<svg style="display: none;" aria-hidden="true" xmlns="http://www.w3.org/2000/svg" xmlns:xlink="http://www.w3.org/1999/xlink"><symbol viewBox="0 0 320 512" id="angle-right"><path d="M278.6 233.4c12.5 12.5 12.5 32.8 0 45.3l-160 160c-12.5 12.5-32.8 12.5-45.3 0s-12.5-32.8 0-45.3L210.7 256 73.4 118.6c-12.5-12.5-12.5-32.8 0-45.3s32.8-12.5 45.3 0l160 160z"/></symbol><symbol viewBox="0 0 12 7" id="arrow"><path fill-rule="evenodd" clip-rule="evenodd" d="M6.70711 0.292893C6.31658 -0.0976311 5.68342 -0.0976311 5.29289 0.292893L0.292893 5.29289C-0.0976315 5.68342 -0.0976315 6.31658 0.292893 6.70711C0.683417 7.09763 1.31658 7.09763 1.70711 6.70711L6 2.41421L10.2929 6.70711C10.6834 7.09763 11.3166 7.09763 11.7071 6.70711C12.0976 6.31658 12.0976 5.68342 11.7071 5.29289L6.70711 0.292893Z"/></symbol><symbol viewBox="0 0 11 7" id="arrow-down"><path d="M1 1L5.5 6L10 1" stroke-linecap="round"/></symbol><symbol viewBox="0 0 9 18" id="arrow-pag"><path d="M0.951172 16.9107L7.42587 10.436C8.19053 9.67132 8.19053 8.42007 7.42587 7.65542L0.951172 1.18066" stroke-width="1.566" stroke-miterlimit="10" stroke-linecap="round" stroke-linejoin="round"/></symbol><symbol viewBox="0 0 37 39" id="box"><path d="M2.41895 10.9058L18.4902 20.2063 34.4522 10.9603M18.4902 36.6961V20.188" stroke-width="2" stroke-linecap="round" stroke-linejoin="round"/><path d="M1 14.0545C1 11.5428 2.80186 8.48511 5.00415 7.26566L14.7233 1.85999C16.7982 0.713338 20.2018 0.713338 22.2766 1.85999L31.9958 7.26566C34.1981 8.48511 36 11.5428 36 14.0545V24.338C36 26.8497 34.1981 29.9074 31.9958 31.1269L22.2766 36.5325C20.2018 37.6791 16.7982 37.6791 14.7233 36.5325L5.00415 31.1269C2.80186 29.9074 1 26.8497 1 24.338V22.8455" stroke-width="2" stroke-linecap="round" stroke-linejoin="round"/><path d="M27.5899 21.4621V14.8007L16.5419 8.41226L14.6309 7.32014L10.3174 4.82666" stroke-width="2" stroke-linecap="round" stroke-linejoin="round"/></symbol><symbol viewBox="0 0 21 23" id="calc"><path d="M12.5513 22.5259H8.44872C2.87949 22.5259 0.5 20.1464 0.5 14.5772V8.42333C0.5 2.8541 2.87949 0.474609 8.44872 0.474609H12.5513C18.1205 0.474609 20.5 2.8541 20.5 8.42333V14.5772C20.5 20.1464 18.1205 22.5259 12.5513 22.5259ZM8.44872 2.01307C3.72051 2.01307 2.03846 3.69512 2.03846 8.42333V14.5772C2.03846 19.3054 3.72051 20.9874 8.44872 20.9874H12.5513C17.2795 20.9874 18.9615 19.3054 18.9615 14.5772V8.42333C18.9615 3.69512 17.2795 2.01307 12.5513 2.01307H8.44872Z"/><path d="M13.5768 10.3002H7.42293C6.15113 10.3002 5.11523 9.26431 5.11523 7.99251V6.96687C5.11523 5.69508 6.15113 4.65918 7.42293 4.65918H13.5768C14.8486 4.65918 15.8845 5.69508 15.8845 6.96687V7.99251C15.8845 9.26431 14.8486 10.3002 13.5768 10.3002zM7.42293 6.19764C7.00241 6.19764 6.6537 6.54636 6.6537 6.96687V7.99251C6.6537 8.41303 7.00241 8.76174 7.42293 8.76174H13.5768C13.9973 8.76174 14.346 8.41303 14.346 7.99251V6.96687C14.346 6.54636 13.9973 6.19764 13.5768 6.19764H7.42293zM6.55054 14.4955C6.41721 14.4955 6.28387 14.4648 6.1608 14.4135 6.03772 14.3622 5.9249 14.2904 5.83259 14.1981 5.63772 14.0032 5.53516 13.7468 5.53516 13.4699 5.53516 13.3366 5.55567 13.2032 5.60695 13.0802 5.65823 12.9468 5.73003 12.8443 5.83259 12.7417 5.87362 12.7007 5.9249 12.6494 5.98644 12.6186 6.03772 12.5776 6.09926 12.5468 6.1608 12.5263 6.22234 12.4955 6.29413 12.475 6.35567 12.4648 6.68387 12.393 7.04285 12.5058 7.27875 12.7417 7.37105 12.834 7.45311 12.9468 7.50439 13.0802 7.55567 13.2032 7.58644 13.3366 7.58644 13.4699 7.58644 13.7468 7.47362 14.0032 7.27875 14.1981 7.08387 14.393 6.82746 14.4955 6.55054 14.4955zM10.6643 14.4946C10.3874 14.4946 10.131 14.3921 9.93611 14.1972 9.74124 14.0023 9.63867 13.7459 9.63867 13.469 9.63867 13.3357 9.65918 13.2023 9.71047 13.0793 9.76175 12.9459 9.83354 12.8434 9.93611 12.7408 9.97713 12.6998 10.0284 12.6485 10.09 12.6177 10.1412 12.5767 10.2028 12.5459 10.2643 12.5254 10.3259 12.4946 10.3976 12.4741 10.4592 12.4639 10.6541 12.4228 10.8592 12.4434 11.0541 12.5254 11.1771 12.5767 11.29 12.6485 11.3823 12.7408 11.4746 12.8434 11.5566 12.9459 11.6079 13.0793 11.6592 13.2023 11.69 13.3357 11.69 13.469 11.69 13.7459 11.5771 14.0023 11.3823 14.1972 11.1874 14.3921 10.931 14.4946 10.6643 14.4946zM14.7556 14.4955C14.6223 14.4955 14.489 14.4647 14.3659 14.4134 14.2428 14.3622 14.13 14.2904 14.0377 14.1981 13.9351 14.0955 13.8633 13.9827 13.812 13.8596 13.7607 13.7365 13.7402 13.6032 13.7402 13.4699 13.7402 13.3365 13.7607 13.2032 13.812 13.0801 13.8633 12.9468 13.9351 12.8442 14.0377 12.7416 14.4172 12.3622 15.1043 12.3622 15.4838 12.7416 15.6787 12.9365 15.7915 13.2032 15.7915 13.4699 15.7915 13.7468 15.6787 14.0032 15.4838 14.1981 15.2992 14.3827 15.0428 14.4955 14.7556 14.4955zM6.56324 18.5971C6.28632 18.5971 6.02991 18.4945 5.83504 18.2997 5.64016 18.1048 5.52734 17.8484 5.52734 17.5715 5.52734 17.3048 5.64016 17.0381 5.83504 16.8433 5.87606 16.8022 5.9376 16.751 5.98888 16.7202 6.04016 16.6792 6.1017 16.6484 6.16324 16.6279 6.22478 16.5971 6.29657 16.5766 6.35811 16.5663 6.69657 16.5048 7.04529 16.6074 7.28119 16.8433 7.33247 16.8945 7.3735 16.9458 7.41452 16.9971 7.44529 17.0587 7.47606 17.1202 7.50683 17.1817 7.52734 17.2433 7.54786 17.3048 7.56837 17.3663 7.57863 17.4381 7.58888 17.4997 7.58888 17.5715 7.58888 17.8484 7.47606 18.1048 7.28119 18.2997 7.08632 18.4945 6.82991 18.5971 6.56324 18.5971zM10.6648 18.5971C10.3879 18.5971 10.1315 18.4945 9.9366 18.2997 9.74173 18.1048 9.62891 17.8484 9.62891 17.5715 9.62891 17.3048 9.74173 17.0381 9.9366 16.8433 10.1725 16.6074 10.5315 16.5048 10.8597 16.5663 10.9212 16.5766 10.993 16.5971 11.0545 16.6279 11.1161 16.6484 11.1776 16.6792 11.2289 16.7202 11.2802 16.751 11.3315 16.8022 11.3828 16.8433 11.5776 17.0381 11.6802 17.3048 11.6802 17.5715 11.6802 17.8484 11.5776 18.1048 11.3828 18.2997 11.1879 18.4945 10.9315 18.5971 10.6648 18.5971zM14.7556 18.5983C14.489 18.5983 14.2325 18.4958 14.0377 18.3009 13.8428 18.106 13.7402 17.8496 13.7402 17.5727 13.7402 17.306 13.8428 17.0393 14.0377 16.8445 14.13 16.7522 14.2428 16.6804 14.3659 16.6291 14.7454 16.4752 15.2069 16.5573 15.4838 16.8445 15.6787 17.0393 15.7813 17.306 15.7813 17.5727 15.7813 17.8496 15.6787 18.106 15.4838 18.3009 15.3915 18.3932 15.2787 18.465 15.1556 18.5163 15.0325 18.5675 14.8992 18.5983 14.7556 18.5983z"/></symbol><symbol viewBox="0 0 21 21" id="call"><path d="M15.8233 21C14.7195 21 13.5572 20.7363 12.3558 20.2284C11.1837 19.7302 10.0019 19.0465 8.8493 18.2163C7.70651 17.3763 6.60279 16.4386 5.55767 15.413C4.52233 14.3679 3.58465 13.2642 2.75442 12.1312C1.91442 10.9591 1.24047 9.78698 0.76186 8.65395C0.253953 7.44279 0 6.2707 0 5.16698C0 4.40512 0.136744 3.68233 0.400465 3.00837C0.673953 2.31488 1.11349 1.67023 1.7093 1.11349C2.4614 0.371163 3.32093 0 4.23907 0C4.62 0 5.0107 0.087907 5.34279 0.244186C5.72372 0.42 6.04605 0.683721 6.28047 1.03535L8.54651 4.2293C8.75163 4.51256 8.90791 4.78605 9.01535 5.05953C9.14233 5.35256 9.2107 5.64558 9.2107 5.92884C9.2107 6.3 9.10326 6.6614 8.89814 7.00326C8.75163 7.26698 8.52698 7.55023 8.24372 7.83349L7.57954 8.52698C7.5893 8.55628 7.59907 8.57581 7.60884 8.59535C7.72605 8.80047 7.96046 9.15209 8.40977 9.67953C8.88837 10.2265 9.33768 10.7247 9.78698 11.1837C10.3633 11.7502 10.8419 12.1995 11.2912 12.5707C11.8479 13.0395 12.2093 13.274 12.4242 13.3814L12.4047 13.4302L13.1177 12.727C13.4205 12.4242 13.7135 12.1995 13.9967 12.053C14.534 11.7209 15.2177 11.6623 15.9014 11.9456C16.1553 12.053 16.4288 12.1995 16.7219 12.4047L19.9647 14.7098C20.326 14.954 20.5898 15.2665 20.746 15.6377C20.8926 16.0088 20.9609 16.3507 20.9609 16.6926C20.9609 17.1614 20.8535 17.6302 20.6484 18.0698C20.4433 18.5093 20.1893 18.8902 19.867 19.2419C19.3102 19.8572 18.7047 20.2967 18.0014 20.58C17.3274 20.8535 16.5949 21 15.8233 21ZM4.23907 1.46512C3.70186 1.46512 3.20372 1.69953 2.72512 2.16837C2.27581 2.58837 1.96326 3.04744 1.76791 3.54558C1.56279 4.05349 1.46512 4.5907 1.46512 5.16698C1.46512 6.07535 1.68 7.06186 2.10977 8.07767C2.5493 9.11302 3.16465 10.1874 3.94605 11.2619C4.72744 12.3363 5.61628 13.3814 6.59302 14.3679C7.56977 15.3349 8.62465 16.2335 9.70884 17.0247C10.7637 17.7963 11.8479 18.4214 12.9223 18.8707C14.5926 19.5837 16.1553 19.7498 17.4447 19.2126C17.9428 19.0074 18.3823 18.6949 18.7828 18.2456C19.0074 18.0014 19.1833 17.7377 19.3298 17.4251C19.447 17.1809 19.5056 16.927 19.5056 16.673C19.5056 16.5167 19.4763 16.3605 19.3981 16.1847C19.3688 16.126 19.3102 16.0186 19.1247 15.8916L15.8819 13.5865C15.6865 13.4498 15.5107 13.3521 15.3447 13.2837C15.1298 13.1958 15.0419 13.1079 14.7098 13.313C14.5144 13.4107 14.3386 13.5572 14.1433 13.7526L13.4009 14.4851C13.02 14.8563 12.434 14.9442 11.9847 14.7781L11.7209 14.6609C11.3205 14.446 10.8516 14.114 10.334 13.6744C9.86512 13.274 9.35721 12.8051 8.74186 12.1995C8.26326 11.7112 7.78465 11.1935 7.28651 10.6172C6.82744 10.08 6.49535 9.62093 6.29023 9.24L6.17302 8.94698C6.11442 8.72233 6.09488 8.59535 6.09488 8.4586C6.09488 8.10698 6.22186 7.79442 6.46605 7.55023L7.19861 6.78837C7.39395 6.59302 7.54047 6.40744 7.63814 6.24139C7.71628 6.11442 7.74558 6.00698 7.74558 5.9093C7.74558 5.83116 7.71628 5.71395 7.66744 5.59674C7.59907 5.44046 7.49163 5.26465 7.35488 5.07907L5.08884 1.87535C4.99116 1.7386 4.87395 1.64093 4.72744 1.57256C4.57116 1.50419 4.40512 1.46512 4.23907 1.46512ZM12.4047 13.44L12.2484 14.1042L12.5121 13.4205C12.4633 13.4107 12.4242 13.4205 12.4047 13.44Z"/></symbol><symbol viewBox="0 0 22 20" id="cart"><path fill-rule="evenodd" clip-rule="evenodd" d="M0 1C0 0.447715 0.447715 0 1 0H2.43845C3.81505 0 5.015 0.936892 5.34887 2.27239L5.53078 3H18.6027C20.8917 3 22.3336 5.45864 21.2234 7.45693L18.4457 12.4569C17.9166 13.4093 16.9127 14 15.8232 14H8.56155C7.18495 14 5.985 13.0631 5.65113 11.7276L3.40859 2.75746C3.2973 2.3123 2.89732 2 2.43845 2H1C0.447715 2 0 1.55228 0 1ZM6.03078 5L7.59141 11.2425C7.7027 11.6877 8.10268 12 8.56155 12H15.8232C16.1864 12 16.521 11.8031 16.6973 11.4856L19.4751 6.48564C19.8461 5.81781 19.3637 5 18.6027 5H6.03078Z"/><path d="M9 18C9 19.1046 8.10457 20 7 20 5.89543 20 5 19.1046 5 18 5 16.8954 5.89543 16 7 16 8.10457 16 9 16.8954 9 18zM19 18C19 19.1046 18.1046 20 17 20 15.8954 20 15 19.1046 15 18 15 16.8954 15.8954 16 17 16 18.1046 16 19 16.8954 19 18z"/></symbol><symbol viewBox="0 0 11 8" id="check"><path d="M3.93725 8C3.71715 8 3.50804 7.91071 3.35397 7.75445L0.239368 4.59574C-0.0797895 4.27206 -0.0797895 3.73631 0.239368 3.41263C0.558526 3.08894 1.08679 3.08894 1.40595 3.41263L3.93725 5.97977L9.59405 0.242762C9.91321 -0.0809208 10.4415 -0.0809208 10.7606 0.242762C11.0798 0.566446 11.0798 1.1022 10.7606 1.42588L4.52054 7.75445C4.36647 7.91071 4.15736 8 3.93725 8Z"/></symbol><symbol viewBox="0 0 18 18" id="clock"><path d="M9 18C4.03535 18 0 13.9647 0 9C0 4.03535 4.03535 0 9 0C13.9647 0 18 4.03535 18 9C18 13.9647 13.9647 18 9 18ZM9 1.25581C4.73023 1.25581 1.25581 4.73023 1.25581 9C1.25581 13.2698 4.73023 16.7442 9 16.7442C13.2698 16.7442 16.7442 13.2698 16.7442 9C16.7442 4.73023 13.2698 1.25581 9 1.25581Z"/><path d="M12.1057 12.29C11.9968 12.29 11.888 12.2649 11.7875 12.1979L9.19217 10.6491C8.54752 10.2639 8.07031 9.41837 8.07031 8.67325V5.2407C8.07031 4.89744 8.35496 4.61279 8.69822 4.61279C9.04148 4.61279 9.32613 4.89744 9.32613 5.2407V8.67325C9.32613 8.97464 9.57729 9.41837 9.83682 9.56906L12.4322 11.1179C12.7336 11.2937 12.8257 11.6788 12.6498 11.9802C12.5243 12.1812 12.315 12.29 12.1057 12.29Z"/></symbol><symbol viewBox="0 0 16 18" id="compare"><path fill-rule="evenodd" clip-rule="evenodd" d="M15-4.37114e-8C15.5523-1.95703e-8 16 .447715 16 1L16 16.75C16 17.3023 15.5523 17.75 15 17.75 14.4477 17.75 14 17.3023 14 16.75L14 1C14 .447715 14.4477-6.78525e-8 15-4.37114e-8zM8 5.25C8.55228 5.25 9 5.69772 9 6.25L9 16.75C9 17.3023 8.55229 17.75 8 17.75 7.44772 17.75 7 17.3023 7 16.75L7 6.25C7 5.69772 7.44772 5.25 8 5.25zM1-4.37114e-8C1.55228-1.95703e-8 2 .447715 2 1L2 16.75C2 17.3023 1.55228 17.75.999999 17.75.447715 17.75-7.56308e-7 17.3023-7.32167e-7 16.75L-4.37114e-8 1C-1.95703e-8.447715.447715-6.78525e-8 1-4.37114e-8z"/></symbol><symbol viewBox="0 0 512 512" id="dislike"><path d="M323.8 477.2c-38.2 10.9-78.1-11.2-89-49.4l-5.7-20c-3.7-13-10.4-25-19.5-35l-51.3-56.4c-8.9-9.8-8.2-25 1.6-33.9s25-8.2 33.9 1.6l51.3 56.4c14.1 15.5 24.4 34 30.1 54.1l5.7 20c3.6 12.7 16.9 20.1 29.7 16.5s20.1-16.9 16.5-29.7l-5.7-20c-5.7-19.9-14.7-38.7-26.6-55.5c-5.2-7.3-5.8-16.9-1.7-24.9s12.3-13 21.3-13L448 288c8.8 0 16-7.2 16-16c0-6.8-4.3-12.7-10.4-15c-7.4-2.8-13-9-14.9-16.7s.1-15.8 5.3-21.7c2.5-2.8 4-6.5 4-10.6c0-7.8-5.6-14.3-13-15.7c-8.2-1.6-15.1-7.3-18-15.2s-1.6-16.7 3.6-23.3c2.1-2.7 3.4-6.1 3.4-9.9c0-6.7-4.2-12.6-10.2-14.9c-11.5-4.5-17.7-16.9-14.4-28.8c.4-1.3 .6-2.8 .6-4.3c0-8.8-7.2-16-16-16H286.5c-12.6 0-25 3.7-35.5 10.7l-61.7 41.1c-11 7.4-25.9 4.4-33.3-6.7s-4.4-25.9 6.7-33.3l61.7-41.1c18.4-12.3 40-18.8 62.1-18.8H384c34.7 0 62.9 27.6 64 62c14.6 11.7 24 29.7 24 50c0 4.5-.5 8.8-1.3 13c15.4 11.7 25.3 30.2 25.3 51c0 6.5-1 12.8-2.8 18.7C504.8 238.3 512 254.3 512 272c0 35.3-28.6 64-64 64l-92.3 0c4.7 10.4 8.7 21.2 11.8 32.2l5.7 20c10.9 38.2-11.2 78.1-49.4 89zM32 384c-17.7 0-32-14.3-32-32V128c0-17.7 14.3-32 32-32H96c17.7 0 32 14.3 32 32V352c0 17.7-14.3 32-32 32H32z"/></symbol><symbol viewBox="0 0 23 20" id="email"><path d="M16.7207 18.8168H6.24023C3.09609 18.8168 1 17.2447 1 13.5766V6.24023C1 2.57207 3.09609 1 6.24023 1H16.7207C19.8648 1 21.9609 2.57207 21.9609 6.24023V13.5766C21.9609 17.2447 19.8648 18.8168 16.7207 18.8168Z" stroke-width="1.572" stroke-miterlimit="10" stroke-linecap="round" stroke-linejoin="round"/><path d="M16.7207 6.76428L13.4403 9.3844C12.3608 10.2438 10.5896 10.2438 9.51014 9.3844L6.24023 6.76428" stroke-width="1.572" stroke-miterlimit="10" stroke-linecap="round" stroke-linejoin="round"/></symbol><symbol viewBox="0 0 20 17" id="eye"><path fill-rule="evenodd" clip-rule="evenodd" d="M0.714841 5.50189C2.90186 2.06401 6.0988 0 9.60001 0C13.1013 0 16.2984 2.06417 18.4854 5.50228C18.9753 6.27021 19.2 7.25889 19.2 8.21115C19.2 9.16357 18.9752 10.1524 18.4852 10.9204C16.2981 14.3583 13.1012 16.4223 9.60001 16.4223C6.09867 16.4223 2.90161 14.3581 0.714593 10.92C0.224711 10.1521 0 9.16341 0 8.21115C0 7.25873 0.224788 6.26987 0.714841 5.50189ZM9.60001 1.2C6.6077 1.2 3.75264 2.96209 1.7271 6.14635L1.7266 6.14713C1.38903 6.676 1.2 7.42536 1.2 8.21115C1.2 8.99695 1.38903 9.74629 1.7266 10.2751L1.7271 10.2759C3.75264 13.4602 6.6077 15.2223 9.60001 15.2223C12.5923 15.2223 15.4474 13.4602 17.4729 10.2759L17.4734 10.2751C17.811 9.74629 18 8.99695 18 8.21115C18 7.42536 17.811 6.676 17.4734 6.14713L17.4729 6.14635C15.4474 2.96209 12.5923 1.2 9.60001 1.2ZM9.60003 5.52313C8.11024 5.52313 6.90727 6.7261 6.90727 8.21588C6.90727 9.70567 8.11025 10.9087 9.60003 10.9087C11.0898 10.9087 12.2928 9.70566 12.2928 8.21588C12.2928 6.72611 11.0898 5.52313 9.60003 5.52313ZM5.70727 8.21588C5.70727 6.06336 7.4475 4.32313 9.60003 4.32313C11.7525 4.32313 13.4928 6.06335 13.4928 8.21588C13.4928 10.3684 11.7525 12.1087 9.60003 12.1087C7.44749 12.1087 5.70727 10.3684 5.70727 8.21588Z"/></symbol><symbol viewBox="0 0 19 18" id="favorite"><path fill-rule="evenodd" clip-rule="evenodd" d="M7.90665 2.5772C7.43025 2.1008 6.59739 1.62186 5.06078 2.00611C3.51888 2.39169 2.38139 3.5405 2.00357 4.95697C1.63275 6.34716 1.96827 8.11238 3.62878 9.77262L8.84293 14.9859C9.20748 15.3504 9.79609 15.3503 10.1606 14.9856C11.3315 13.8139 13.1921 11.9524 15.3719 9.77267C17.0315 8.11299 17.3672 6.34772 16.9965 4.95727C16.6188 3.54065 15.4815 2.39168 13.9393 2.00613C12.4022 1.62183 11.5692 2.10086 11.0928 2.5772C10.8323 2.83776 10.6529 3.12664 10.5386 3.35533C10.4822 3.46811 10.4439 3.56165 10.4209 3.6229C10.4095 3.65338 10.402 3.6754 10.3982 3.68728L10.3952 3.69669C10.2786 4.09372 9.91419 4.36689 9.49986 4.36691C9.08553 4.36694 8.7211 4.09382 8.60448 3.69681L8.60147 3.68738C8.59758 3.6755 8.59011 3.65347 8.57868 3.62299C8.5557 3.56173 8.51739 3.46818 8.46099 3.3554C8.34661 3.12669 8.16723 2.83778 7.90665 2.5772ZM9.49975 1.55631C9.58354 1.45628 9.67451 1.35613 9.77315 1.25749C10.6966 0.334075 12.1965 -0.353361 14.392 0.195513C16.5824 0.743127 18.2445 2.39367 18.7998 4.47644C19.3621 6.58538 18.7646 9.01937 16.6916 11.0924C14.512 13.2719 12.6516 15.1333 11.4807 16.3049C10.3876 17.3987 8.617 17.3993 7.52333 16.3057L2.30918 11.0924C0.235375 9.01895 -0.36226 6.5849 0.200275 4.47596C0.755801 2.3933 2.41818 0.743122 4.60801 0.195525C6.80313 -0.353393 8.30297 0.334128 9.22635 1.25749C9.32499 1.35613 9.41596 1.45628 9.49975 1.55631Z"/></symbol><symbol viewBox="0 0 512 512" id="like"><path d="M323.8 34.8c-38.2-10.9-78.1 11.2-89 49.4l-5.7 20c-3.7 13-10.4 25-19.5 35l-51.3 56.4c-8.9 9.8-8.2 25 1.6 33.9s25 8.2 33.9-1.6l51.3-56.4c14.1-15.5 24.4-34 30.1-54.1l5.7-20c3.6-12.7 16.9-20.1 29.7-16.5s20.1 16.9 16.5 29.7l-5.7 20c-5.7 19.9-14.7 38.7-26.6 55.5c-5.2 7.3-5.8 16.9-1.7 24.9s12.3 13 21.3 13L448 224c8.8 0 16 7.2 16 16c0 6.8-4.3 12.7-10.4 15c-7.4 2.8-13 9-14.9 16.7s.1 15.8 5.3 21.7c2.5 2.8 4 6.5 4 10.6c0 7.8-5.6 14.3-13 15.7c-8.2 1.6-15.1 7.3-18 15.1s-1.6 16.7 3.6 23.3c2.1 2.7 3.4 6.1 3.4 9.9c0 6.7-4.2 12.6-10.2 14.9c-11.5 4.5-17.7 16.9-14.4 28.8c.4 1.3 .6 2.8 .6 4.3c0 8.8-7.2 16-16 16H286.5c-12.6 0-25-3.7-35.5-10.7l-61.7-41.1c-11-7.4-25.9-4.4-33.3 6.7s-4.4 25.9 6.7 33.3l61.7 41.1c18.4 12.3 40 18.8 62.1 18.8H384c34.7 0 62.9-27.6 64-62c14.6-11.7 24-29.7 24-50c0-4.5-.5-8.8-1.3-13c15.4-11.7 25.3-30.2 25.3-51c0-6.5-1-12.8-2.8-18.7C504.8 273.7 512 257.7 512 240c0-35.3-28.6-64-64-64l-92.3 0c4.7-10.4 8.7-21.2 11.8-32.2l5.7-20c10.9-38.2-11.2-78.1-49.4-89zM32 192c-17.7 0-32 14.3-32 32V448c0 17.7 14.3 32 32 32H96c17.7 0 32-14.3 32-32V224c0-17.7-14.3-32-32-32H32z"/></symbol><symbol viewBox="0 0 512 512" id="message"><path d="M168.2 384.9c-15-5.4-31.7-3.1-44.6 6.4c-8.2 6-22.3 14.8-39.4 22.7c5.6-14.7 9.9-31.3 11.3-49.4c1-12.9-3.3-25.7-11.8-35.5C60.4 302.8 48 272 48 240c0-79.5 83.3-160 208-160s208 80.5 208 160s-83.3 160-208 160c-31.6 0-61.3-5.5-87.8-15.1zM26.3 423.8c-1.6 2.7-3.3 5.4-5.1 8.1l-.3 .5c-1.6 2.3-3.2 4.6-4.8 6.9c-3.5 4.7-7.3 9.3-11.3 13.5c-4.6 4.6-5.9 11.4-3.4 17.4c2.5 6 8.3 9.9 14.8 9.9c5.1 0 10.2-.3 15.3-.8l.7-.1c4.4-.5 8.8-1.1 13.2-1.9c.8-.1 1.6-.3 2.4-.5c17.8-3.5 34.9-9.5 50.1-16.1c22.9-10 42.4-21.9 54.3-30.6c31.8 11.5 67 17.9 104.1 17.9c141.4 0 256-93.1 256-208S397.4 32 256 32S0 125.1 0 240c0 45.1 17.7 86.8 47.7 120.9c-1.9 24.5-11.4 46.3-21.4 62.9zM144 272a32 32 0 1 0 0-64 32 32 0 1 0 0 64zm144-32a32 32 0 1 0 -64 0 32 32 0 1 0 64 0zm80 32a32 32 0 1 0 0-64 32 32 0 1 0 0 64z"/></symbol><symbol viewBox="0 0 40 40" id="pin"><g clip-path="url(#ra)"><path d="M20.125 0C10 0 2 7.737 2 17.5A16.506 16.506 0 0 0 7.437 30c.257.244 10.625 9.231 10.875 9.481 1.038.75 2.594.75 3.37 0 .256-.25 10.874-9.237 10.874-9.481a16.504 16.504 0 0 0 5.438-12.5C38.25 7.738 30.225 0 20.125 0Zm0 22.462a5.094 5.094 0 0 1-5.175-5 5.18 5.18 0 0 1 10.356 0 5.1 5.1 0 0 1-5.181 5Z"/></g><defs><clipPath id="ra"><path d="M0 0h40v40H0z"/></clipPath></defs></symbol><symbol viewBox="0 0 32 32" id="quote-up"><path d="M10.786 15.5073H4.53268C4.63935 9.28061 5.86602 8.25395 9.69268 5.98728 10.1327 5.72061 10.2793 5.16061 10.0127 4.70728 9.75935 4.26728 9.18602 4.12061 8.74602 4.38728 4.23935 7.05395 2.66602 8.68061 2.66602 16.4273V23.6139C2.66602 25.8939 4.51935 27.7339 6.78602 27.7339H10.786C13.1327 27.7339 14.906 25.9606 14.906 23.6139V19.6139C14.906 17.2806 13.1327 15.5073 10.786 15.5073zM25.2134 15.5073H18.9601C19.0667 9.28061 20.2934 8.25395 24.1201 5.98728 24.5601 5.72061 24.7067 5.16061 24.4401 4.70728 24.1734 4.26728 23.6134 4.12061 23.1601 4.38728 18.6534 7.05395 17.0801 8.68061 17.0801 16.4406V23.6273C17.0801 25.9073 18.9334 27.7473 21.2001 27.7473H25.2001C27.5467 27.7473 29.3201 25.9739 29.3201 23.6273V19.6273C29.3334 17.2806 27.5601 15.5073 25.2134 15.5073z"/></symbol><symbol viewBox="0 0 19 18" id="search"><path d="M9.08464 17.1251C4.3763 17.1251.542969 13.2917.542969 8.58342.542969 3.87508 4.3763.041748 9.08464.041748 13.793.041748 17.6263 3.87508 17.6263 8.58342 17.6263 13.2917 13.793 17.1251 9.08464 17.1251zM9.08464 1.29175C5.05964 1.29175 1.79297 4.56675 1.79297 8.58342 1.79297 12.6001 5.05964 15.8751 9.08464 15.8751 13.1096 15.8751 16.3763 12.6001 16.3763 8.58342 16.3763 4.56675 13.1096 1.29175 9.08464 1.29175zM17.8345 17.9583C17.6762 17.9583 17.5178 17.9 17.3928 17.775L15.7262 16.1083C15.4845 15.8666 15.4845 15.4666 15.7262 15.225 15.9678 14.9833 16.3678 14.9833 16.6095 15.225L18.2762 16.8916C18.5178 17.1333 18.5178 17.5333 18.2762 17.775 18.1512 17.9 17.9928 17.9583 17.8345 17.9583z"/></symbol><symbol viewBox="0 0 22 22" id="share"><path fill-rule="evenodd" clip-rule="evenodd" d="M15.2869 4.56468C15.5548 4.1792 16.0845 4.08389 16.4699 4.3518 18.6755 5.88463 20.1991 8.32328 20.5081 11.1378 20.5594 11.6045 20.2226 12.0243 19.756 12.0755 19.2894 12.1268 18.8695 11.79 18.8183 11.3234 18.5645 9.01243 17.3143 7.00889 15.4997 5.74777 15.1143 5.47985 15.0189 4.95017 15.2869 4.56468zM6.76178 4.60983C7.03281 4.99313 6.94179 5.52357 6.55848 5.79459 4.76204 7.06481 3.53071 9.06784 3.29526 11.368 3.24745 11.835 2.83012 12.1748 2.36312 12.127 1.89612 12.0792 1.55629 11.6619 1.60409 11.1949 1.89126 8.38952 3.39358 5.95037 5.57702 4.40652 5.96032 4.1355 6.49076 4.22652 6.76178 4.60983zM6.41481 19.5093C6.62764 19.0908 7.13937 18.9242 7.55779 19.137 8.60537 19.6698 9.80009 19.9692 11.0619 19.9692 12.2797 19.9692 13.4188 19.6971 14.4386 19.2007 14.8607 18.9952 15.3694 19.1709 15.5749 19.593 15.7803 20.0151 15.6047 20.5238 15.1826 20.7292 13.9311 21.3384 12.5375 21.6692 11.0619 21.6692 9.5297 21.6692 8.07117 21.3054 6.7871 20.6522 6.36867 20.4394 6.20199 19.9277 6.41481 19.5093zM7.41602 3.79386C7.41602 1.78136 9.04749.149902 11.0599.149902 13.0725.149902 14.7039 1.78137 14.7039 3.79386 14.7039 5.80636 13.0725 7.43782 11.0599 7.43782 9.04749 7.43782 7.41602 5.80637 7.41602 3.79386zM11.0599 1.8499C9.98638 1.8499 9.11602 2.72024 9.11602 3.79386 9.11602 4.86749 9.98638 5.73782 11.0599 5.73782 12.1336 5.73782 13.0039 4.86749 13.0039 3.79386 13.0039 2.72023 12.1336 1.8499 11.0599 1.8499zM.150391 16.0751C.150391 14.0625 1.78186 12.4312 3.79435 12.4312 5.80684 12.4312 7.43831 14.0625 7.43831 16.0751 7.43831 18.0876 5.80686 19.7191 3.79435 19.7191 1.78184 19.7191.150391 18.0875.150391 16.0751zM3.79435 14.1312C2.72072 14.1312 1.85039 15.0015 1.85039 16.0751 1.85039 17.1487 2.72074 18.0191 3.79435 18.0191 4.86795 18.0191 5.73831 17.1487 5.73831 16.0751 5.73831 15.0015 4.86797 14.1312 3.79435 14.1312zM14.5605 16.0751C14.5605 14.0625 16.1921 12.4312 18.2045 12.4312 20.2171 12.4312 21.8485 14.0626 21.8485 16.0751 21.8485 18.0875 20.2171 19.7191 18.2045 19.7191 16.1921 19.7191 14.5605 18.0876 14.5605 16.0751zM18.2045 14.1312C17.1309 14.1312 16.2605 15.0015 16.2605 16.0751 16.2605 17.1487 17.1309 18.0191 18.2045 18.0191 19.2782 18.0191 20.1485 17.1487 20.1485 16.0751 20.1485 15.0014 19.2782 14.1312 18.2045 14.1312z"/></symbol><symbol viewBox="0 0 15 14" id="star"><path d="M6.60929 0.745358C6.98043 0.0181071 8.01958 0.0181088 8.39072 0.74536L9.81681 3.53979C9.96211 3.82451 10.2348 4.02261 10.5505 4.07281L13.6488 4.56558C14.4551 4.69382 14.7763 5.68211 14.1993 6.25982L11.9823 8.47964C11.7564 8.70581 11.6523 9.02634 11.7021 9.34209L12.1909 12.4411C12.3181 13.2476 11.4774 13.8584 10.7497 13.4882L7.95342 12.0657C7.66851 11.9207 7.33149 11.9207 7.04658 12.0657L4.25032 13.4882C3.5226 13.8584 2.68191 13.2476 2.80912 12.4411L3.29791 9.34209C3.34771 9.02634 3.24357 8.70581 3.01768 8.47964L0.800708 6.25982C0.22374 5.68211 0.544856 4.69382 1.3512 4.56558L4.44955 4.07281C4.76523 4.02261 5.03789 3.82451 5.18319 3.53979L6.60929 0.745358Z"/></symbol><symbol viewBox="0 0 35 35" id="truck"><path d="M19.1279 21.9767H1.22093C0.553488 21.9767 0 21.4233 0 20.7558V7.73256C0 3.46744 3.46744 0 7.73256 0H22.3837C23.0512 0 23.6047 0.553488 23.6047 1.22093V17.5C23.6047 19.9744 21.6023 21.9767 19.1279 21.9767ZM2.44186 19.5349H19.1279C20.2512 19.5349 21.1628 18.6233 21.1628 17.5V2.44186H7.73256C4.8186 2.44186 2.44186 4.8186 2.44186 7.73256V19.5349Z"/><path d="M28.8953 31.7443H27.2674C26.6 31.7443 26.0465 31.1908 26.0465 30.5233C26.0465 29.4001 25.1349 28.4884 24.0116 28.4884C22.8884 28.4884 21.9767 29.4001 21.9767 30.5233C21.9767 31.1908 21.4233 31.7443 20.7558 31.7443H14.2442C13.5767 31.7443 13.0233 31.1908 13.0233 30.5233C13.0233 29.4001 12.1116 28.4884 10.9884 28.4884C9.86512 28.4884 8.95349 29.4001 8.95349 30.5233C8.95349 31.1908 8.4 31.7443 7.73256 31.7443H6.10465C2.73488 31.7443 0 29.0094 0 25.6396V20.7559C0 20.0884 0.553488 19.535 1.22093 19.535H19.1279C20.2512 19.535 21.1628 18.6233 21.1628 17.5001V6.10472C21.1628 5.43728 21.7163 4.88379 22.3837 4.88379H25.3791C26.9907 4.88379 28.4721 5.7466 29.2698 7.1466L32.0535 12.014C32.2651 12.3884 32.2651 12.8605 32.0535 13.235C31.8419 13.6094 31.4349 13.8373 30.9953 13.8373H28.8953C28.6674 13.8373 28.4884 14.0163 28.4884 14.2443V19.128C28.4884 19.3559 28.6674 19.535 28.8953 19.535H33.7791C34.4465 19.535 35 20.0884 35 20.7559V25.6396C35 29.0094 32.2651 31.7443 28.8953 31.7443ZM28.3256 29.3024H28.8953C30.914 29.3024 32.5581 27.6582 32.5581 25.6396V21.9768H28.8953C27.3326 21.9768 26.0465 20.6908 26.0465 19.128V14.2443C26.0465 12.6815 27.3163 11.3954 28.8953 11.3954L27.1535 8.35123C26.7953 7.71635 26.1116 7.32565 25.3791 7.32565H23.6047V17.5001C23.6047 19.9745 21.6023 21.9768 19.1279 21.9768H2.44186V25.6396C2.44186 27.6582 4.08605 29.3024 6.10465 29.3024H6.67443C7.21164 27.4303 8.93721 26.0466 10.9884 26.0466C13.0395 26.0466 14.7651 27.4303 15.3023 29.3024H19.714C20.2512 27.4303 21.9767 26.0466 24.0279 26.0466C26.0791 26.0466 27.7884 27.4303 28.3256 29.3024Z"/><path d="M10.9885 34.9999C8.51404 34.9999 6.51172 32.9975 6.51172 30.5231 6.51172 28.0487 8.51404 26.0464 10.9885 26.0464 13.4629 26.0464 15.4652 28.0487 15.4652 30.5231 15.4652 32.9975 13.4629 34.9999 10.9885 34.9999zM10.9885 28.4882C9.86521 28.4882 8.95358 29.3999 8.95358 30.5231 8.95358 31.6464 9.86521 32.558 10.9885 32.558 12.1117 32.558 13.0233 31.6464 13.0233 30.5231 13.0233 29.3999 12.1117 28.4882 10.9885 28.4882zM24.0119 34.9999C21.5375 34.9999 19.5352 32.9975 19.5352 30.5231 19.5352 28.0487 21.5375 26.0464 24.0119 26.0464 26.4863 26.0464 28.4886 28.0487 28.4886 30.5231 28.4886 32.9975 26.4863 34.9999 24.0119 34.9999zM24.0119 28.4882C22.8886 28.4882 21.977 29.3999 21.977 30.5231 21.977 31.6464 22.8886 32.558 24.0119 32.558 25.1352 32.558 26.0468 31.6464 26.0468 30.5231 26.0468 29.3999 25.1352 28.4882 24.0119 28.4882zM33.7785 21.9769H28.8947C27.3319 21.9769 26.0459 20.6909 26.0459 19.1281V14.2443C26.0459 12.6816 27.3319 11.3955 28.8947 11.3955H30.9947C31.4343 11.3955 31.8412 11.6234 32.0529 12.0141L34.8366 16.8978C34.9343 17.0769 34.9994 17.2885 34.9994 17.5002V20.756C34.9994 21.4234 34.4459 21.9769 33.7785 21.9769zM28.8947 13.8374C28.6668 13.8374 28.4878 14.0164 28.4878 14.2443V19.1281C28.4878 19.356 28.6668 19.535 28.8947 19.535H32.5575V17.8257L30.2785 13.8374H28.8947z"/></symbol></svg>