<svg width="169" height="36" viewBox="0 0 169 36" fill="none" xmlns="http://www.w3.org/2000/svg">
<path d="M19.771 7.28902C19.3627 6.59385 18.6169 6.16528 17.8104 6.16528H7.94314C6.42121 6.16528 5.00726 6.98531 4.2446 8.30139L0.306472 15.1147C-0.155846 15.9212 -0.0951032 16.8998 0.488699 17.6591C0.714796 17.9527 1.01513 18.1889 1.35597 18.334C2.47295 18.8132 3.68442 18.3543 4.24123 17.3891L7.74742 11.3216C7.96676 10.9403 8.37171 10.7075 8.81041 10.7075H17.8138C19.5652 10.7041 20.6586 8.80083 19.771 7.28902Z" fill="#0D61DB"/>
<path d="M25.453 17.0991L23.2291 13.2521C22.9119 12.7021 22.318 12.3545 21.6768 12.3545L17.2325 12.3579C16.5947 12.3579 15.9974 12.6987 15.6802 13.2555L13.4631 17.0991C13.1425 17.6492 13.1425 18.3376 13.4631 18.8877L15.6836 22.7414C16.0008 23.2982 16.5947 23.6391 17.2359 23.6391H17.2392L21.6768 23.6357C22.3146 23.6357 22.9052 23.2949 23.2291 22.7414L25.453 18.8877C25.7702 18.3376 25.7702 17.6526 25.453 17.0991Z" fill="#0D61DB"/>
<path d="M35.4644 9.67161L31.5229 2.85159C31.1146 2.13955 30.3823 1.71436 29.5555 1.71436C28.7355 1.71436 27.9998 2.13955 27.5881 2.85159C27.1832 3.55013 27.1832 4.42077 27.5881 5.1193L31.1112 11.2172C31.3204 11.5782 31.3204 12.0304 31.1112 12.3915L26.5758 20.2509C26.1675 20.9629 26.1675 21.8133 26.5758 22.5186C26.9841 23.2307 27.7231 23.6559 28.5432 23.6559H28.5465C29.3497 23.6559 30.109 23.2205 30.5139 22.5186L35.4644 13.9438C36.2237 12.6277 36.2237 10.9877 35.4644 9.67161Z" fill="#0D61DB"/>
<path d="M38.6194 18.6074C38.2144 17.8954 37.4787 17.4702 36.6385 17.4702C35.8353 17.4702 35.076 17.9055 34.6711 18.6007L33.1188 21.2869L31.1717 24.6716C31.1177 24.7694 31.0502 24.8504 30.9759 24.9314C30.8578 25.0428 30.7262 25.1305 30.5811 25.1946C30.4832 25.2351 30.382 25.2621 30.274 25.279C30.22 25.2824 30.166 25.2891 30.1087 25.2891H21.0277C19.2898 25.2891 18.1964 27.1654 19.0502 28.6772C19.4518 29.3892 20.2077 29.8279 21.0277 29.8279H30.9861C32.508 29.8279 33.9287 29.0079 34.688 27.6918L37.6374 22.576C37.6407 22.5726 37.6407 22.5726 37.6475 22.5658L38.6295 20.8549C39.0277 20.1429 39.0243 19.3094 38.6194 18.6074Z" fill="#0D61DB"/>
<path d="M7.66311 24.017C7.66311 24.0136 7.66311 24.0069 7.66648 24.0035C7.66648 23.99 7.66648 23.9731 7.66985 23.9596L7.67323 23.936L7.6766 23.9225L7.69685 23.855L7.70023 23.8516C7.70023 23.8381 7.7036 23.8213 7.71372 23.8078C7.71372 23.7943 7.72385 23.7774 7.72722 23.7605C7.72722 23.747 7.73735 23.7302 7.73735 23.72C7.76097 23.666 7.78459 23.6222 7.81159 23.5783L12.3268 15.7628C12.5259 15.4118 12.6339 15.0204 12.6339 14.6255C12.6339 13.3736 11.6147 12.3511 10.3594 12.3511C9.5495 12.3511 8.79696 12.7864 8.39201 13.4883L3.44488 22.0597C2.6856 23.3758 2.6856 25.0159 3.44151 26.3319L6.40101 31.4546L7.38976 33.1655C7.42351 33.2296 7.46401 33.287 7.51125 33.3443C7.545 33.3916 7.58549 33.4422 7.62261 33.4894C7.78459 33.675 7.97357 33.8303 8.17942 33.9585C8.32115 34.0429 8.46626 34.1036 8.61811 34.1576C8.69573 34.1812 8.77334 34.2048 8.85096 34.2217C9.01294 34.2555 9.17154 34.2757 9.34027 34.2757C10.1535 34.2757 10.8926 33.8573 11.3009 33.1553C11.4325 32.9326 11.5236 32.693 11.5742 32.4467C11.6586 32.0417 11.6282 31.6233 11.4831 31.2318C11.4426 31.1104 11.3853 30.9889 11.311 30.8606L7.81496 24.7965C7.77109 24.7223 7.73735 24.6447 7.7171 24.5637C7.68673 24.4894 7.67323 24.4118 7.66311 24.3308C7.64961 24.2228 7.65298 24.1317 7.66311 24.044V24.017Z" fill="#0D61DB"/>
<path d="M28.8855 10.6772L23.9586 2.13953C23.1994 0.816691 21.7787 0.00341797 20.2567 0.00341797H12.367C11.1217 0.00341797 10.1094 1.01242 10.1094 2.26101C10.1094 2.65246 10.2106 3.04054 10.4131 3.38812C10.7607 3.98879 11.3512 4.39374 12.0194 4.49161C12.1274 4.51185 12.2421 4.52198 12.3703 4.52198H19.3861C19.6729 4.52198 19.9463 4.62322 20.1724 4.80882C20.2027 4.83244 20.2264 4.85606 20.2567 4.88306L20.3107 4.94043C20.331 4.96067 20.3445 4.9843 20.3647 5.00792C20.3951 5.04841 20.4221 5.09228 20.4525 5.13615L24.9609 12.9449C25.376 13.657 26.1082 14.0822 26.9316 14.0822C27.7517 14.0822 28.4873 13.657 28.899 12.9449C29.2905 12.243 29.2905 11.3724 28.8855 10.6772Z" fill="#0D61DB"/>
<path d="M28.5017 32.612C28.1541 32.0113 27.5635 31.6064 26.8954 31.5085C26.7874 31.4883 26.6726 31.4781 26.5444 31.4781H19.532C19.2452 31.4781 18.9718 31.3769 18.7457 31.1913C18.7154 31.1677 18.6918 31.1441 18.6614 31.1171L18.6074 31.0597C18.5601 31.0023 18.5095 30.9382 18.4657 30.864L13.9606 23.0552C13.5455 22.3432 12.8132 21.918 11.9898 21.918C11.1698 21.918 10.4342 22.3432 10.0225 23.0552C9.61751 23.7571 9.61751 24.6244 10.0225 25.3229L14.9493 33.864C15.7086 35.1801 17.1293 36.0001 18.6513 36.0001H26.5444C27.7896 36.0001 28.802 34.9843 28.802 33.7357C28.8054 33.3477 28.7008 32.9562 28.5017 32.612Z" fill="#0D61DB"/>
<path opacity="0.5" d="M20.3574 5.00787C20.3372 4.98425 20.3237 4.96063 20.3034 4.94038L20.2495 4.87964C20.2191 4.85602 20.1955 4.8324 20.1651 4.8054C19.9424 4.6198 19.669 4.51856 19.3788 4.51856H12.3664C12.2382 4.51856 12.1235 4.50844 12.0155 4.48819C11.3473 4.39033 10.7568 3.98538 10.4092 3.3847C10.2101 3.03712 10.1055 2.64904 10.1055 2.25759C10.1055 1.009 11.1212 0 12.3631 0H14.3878C18.1775 0.836895 20.3574 5.00787 20.3574 5.00787Z" fill="url(#paint0_linear_276_3615)"/>
<path opacity="0.5" d="M38.6245 20.8516L37.6425 22.5625C37.6391 22.5659 37.6391 22.5659 37.6323 22.5727C35.0035 25.4613 30.2656 25.2757 30.2656 25.2757C30.296 25.2723 30.323 25.2656 30.3466 25.2622C30.3466 25.2622 30.4613 25.2386 30.5727 25.1947C30.7482 25.1171 30.8427 25.0496 30.9675 24.9315C31.0519 24.8505 31.1093 24.7628 31.17 24.6649L33.1138 21.2937L34.6661 18.6075C35.071 17.909 35.8269 17.4771 36.6335 17.4771C37.4737 17.4771 38.2094 17.9022 38.6143 18.6143C39.0227 19.3094 39.026 20.143 38.6245 20.8516Z" fill="url(#paint1_linear_276_3615)"/>
<path opacity="0.5" d="M0.297828 15.1452L1.27983 13.4343C1.2832 13.4309 1.2832 13.4309 1.28995 13.4242C3.91875 10.5356 8.65666 10.7212 8.65666 10.7212C8.62629 10.7245 8.59929 10.7245 8.57229 10.7313L8.49468 10.7515C8.45418 10.765 8.42044 10.7718 8.38669 10.7853C8.37319 10.7886 8.35632 10.7954 8.3462 10.8055C8.19434 10.8629 8.05261 10.9574 7.95137 11.0687C7.86363 11.1464 7.79614 11.2341 7.7354 11.332L5.80514 14.7065L4.25283 17.3927C3.84788 18.0912 3.09198 18.5232 2.28545 18.5232C1.44518 18.5232 0.709526 18.098 0.304577 17.3859C-0.0969979 16.684 -0.103747 15.8505 0.297828 15.1452Z" fill="url(#paint2_linear_276_3615)"/>
<path opacity="0.5" d="M31.5307 2.84134L32.5195 4.54888C32.5228 4.55563 32.5228 4.55563 32.5228 4.56238C33.7039 8.28791 31.1629 12.2935 31.1629 12.2935C31.2 12.2092 31.2169 12.1383 31.2169 12.1383C31.2641 11.9763 31.3012 11.7772 31.227 11.5073C31.2034 11.3925 31.1494 11.2913 31.0954 11.1934L29.1449 7.8256L27.596 5.13268C27.1944 4.43077 27.1978 3.56013 27.6027 2.86159C28.0245 2.13606 28.7602 1.71086 29.5802 1.71761C30.3935 1.72436 31.119 2.13943 31.5307 2.84134Z" fill="url(#paint3_linear_276_3615)"/>
<path opacity="0.5" d="M11.5801 32.4499C11.5396 32.6895 11.4518 32.9223 11.327 33.1383C10.9085 33.8706 10.1661 34.2958 9.34609 34.2856C9.18074 34.2856 9.01538 34.2654 8.85678 34.2283C8.77916 34.2148 8.70155 34.1878 8.62393 34.1642C8.4687 34.1203 8.32022 34.0528 8.18523 33.9651C7.97601 33.8469 7.78366 33.6883 7.62843 33.496C7.58793 33.4487 7.55081 33.3981 7.51707 33.3509C7.46982 33.2935 7.42933 33.2328 7.39558 33.172L6.40683 31.4611C6.40346 31.451 6.40346 31.451 6.40346 31.4476C5.26622 27.8571 7.57444 24.0101 7.74991 23.7198C7.75329 23.7165 7.76004 23.7097 7.76004 23.7097C7.74991 23.73 7.74654 23.7435 7.73979 23.757C7.73642 23.7772 7.72629 23.7907 7.72629 23.8042C7.71617 23.8177 7.71279 23.8346 7.71279 23.8481C7.6993 23.8953 7.68242 23.9493 7.6723 24.0033C7.6723 24.0134 7.66892 24.0269 7.66892 24.0438C7.6588 24.1315 7.65543 24.2227 7.66892 24.3306C7.67905 24.415 7.69255 24.4926 7.72292 24.5635C7.74316 24.6478 7.77691 24.7255 7.82078 24.7963L11.3236 30.8638C11.3978 30.9921 11.4552 31.1135 11.4957 31.235C11.6341 31.6265 11.6644 32.0449 11.5801 32.4499Z" fill="url(#paint4_linear_276_3615)"/>
<path opacity="0.5" d="M18.5547 30.9956C18.5749 31.0192 18.5884 31.0429 18.6087 31.0631L18.6627 31.1205C18.693 31.1441 18.7167 31.1677 18.747 31.1947C18.9698 31.3803 19.2431 31.4815 19.5333 31.4815H26.5491C26.6773 31.4815 26.792 31.4917 26.9 31.5119C27.5682 31.6098 28.1587 32.0147 28.5063 32.6154C28.7054 32.963 28.81 33.3511 28.81 33.7425C28.81 34.9911 27.7943 36.0001 26.5524 36.0001H24.5277C20.738 35.1666 18.5547 30.9956 18.5547 30.9956Z" fill="url(#paint5_linear_276_3615)"/>
<path d="M45.8462 23.9087L48.4446 21.3237C48.5391 21.2293 48.691 21.236 48.7855 21.3339C50.52 23.1865 52.8383 24.1348 55.1567 24.1348C57.6674 24.1348 59.2669 23.0549 59.2669 21.2191C59.2669 19.3665 57.6842 18.6241 54.0937 17.632C51.0127 16.7714 46.9666 15.2563 46.9666 10.6398C46.9666 7.01891 49.6966 3.95142 55.0689 3.95142C58.3153 3.95142 61.1634 5.14939 63.2692 7.0459C63.367 7.13364 63.3738 7.28212 63.2894 7.38336L60.9373 10.137C60.8496 10.2383 60.7011 10.2484 60.5999 10.1606C59.2905 9.02341 57.2658 8.11565 55.2545 8.11565C53.0813 8.11565 51.5155 9.14489 51.5155 10.7951C51.5155 12.5465 53.4694 13.0695 56.3006 13.9469C60.6134 15.344 63.88 16.9807 63.88 21.1246C63.88 25.623 60.2759 28.3867 55.2377 28.3867C51.6066 28.3867 48.2017 26.9627 45.8327 24.2461C45.7483 24.1449 45.7551 23.9998 45.8462 23.9087Z" fill="#00101E"/>
<path d="M66.6406 6.51272C66.6406 5.23376 67.7036 3.95142 69.32 3.95142C70.9365 3.95142 71.9995 5.23038 71.9995 6.51272C71.9995 7.82543 70.9365 9.05715 69.32 9.05715C67.7205 9.05715 66.6406 7.81193 66.6406 6.51272Z" fill="#00101E"/>
<path d="M67.1133 27.7727V12.1957C67.1133 12.064 67.2213 11.9561 67.3529 11.9561H71.1527C71.2843 11.9561 71.3922 12.064 71.3922 12.1957V27.7727C71.3922 27.9043 71.2843 28.0123 71.1527 28.0123H67.3529C67.2213 28.0123 67.1133 27.9043 67.1133 27.7727Z" fill="#00101E"/>
<path d="M92.4846 19.9908C92.4846 24.6916 88.8974 28.4137 84.5341 28.4137C82.4283 28.4137 80.7444 27.5026 79.5633 26.1055L79.5599 27.7726C79.5599 27.9042 79.452 28.0122 79.3203 28.0122H75.8412C75.7096 28.0122 75.6016 27.9042 75.6016 27.7726V4.34287C75.6016 4.21126 75.7096 4.10327 75.8412 4.10327H79.6274C79.759 4.10327 79.867 4.21126 79.867 4.34287V13.5217C81.0313 12.3271 82.5802 11.5678 84.5341 11.5678C88.8805 11.5678 92.4846 15.3237 92.4846 19.9908ZM88.2394 20.0077C88.2394 17.4295 86.4036 15.5768 83.9773 15.5768C81.5509 15.5768 79.6308 17.4295 79.6308 20.0077C79.6308 22.5858 81.5678 24.4047 83.9941 24.4047C86.4036 24.4047 88.2394 22.5858 88.2394 20.0077Z" fill="#00101E"/>
<path d="M120.818 18.2395V27.7726C120.818 27.9043 120.71 28.0122 120.578 28.0122H116.792C116.66 28.0122 116.552 27.9043 116.552 27.7726V18.9987C116.552 16.6905 115.408 15.4959 113.687 15.4959C111.717 15.4959 110.421 17.1799 110.421 19.235V27.7726C110.421 27.9043 110.313 28.0122 110.181 28.0122H106.378C106.246 28.0122 106.138 27.9043 106.138 27.7726V18.9987C106.138 16.6905 104.994 15.4959 103.273 15.4959C101.303 15.4959 100.007 17.1799 100.007 19.235L99.9899 19.1843V27.7726C99.9899 27.9043 99.8819 28.0122 99.7503 28.0122H95.9505C95.8189 28.0122 95.7109 27.9043 95.7109 27.7726V12.1956C95.7109 12.064 95.8189 11.956 95.9505 11.956H99.3251C99.4567 11.956 99.5647 12.0606 99.5647 12.1922L99.5715 13.758C100.82 12.361 102.673 11.5342 104.492 11.5342C106.749 11.5342 108.534 12.4959 109.53 14.3148C110.758 12.5972 112.85 11.5342 114.889 11.5342C118.459 11.5342 120.818 13.9268 120.818 18.2395Z" fill="#00101E"/>
<path d="M136.706 11.9559H140.171C140.303 11.9559 140.411 12.0639 140.411 12.1955V27.7726C140.411 27.9042 140.303 28.0122 140.171 28.0122H136.712C136.581 28.0122 136.473 27.9042 136.473 27.7726L136.469 26.1224C135.275 27.5026 133.604 28.4138 131.482 28.4138C127.118 28.4138 123.531 24.6916 123.531 19.9908C123.531 15.3238 127.135 11.5679 131.482 11.5679C133.604 11.5679 135.271 12.479 136.469 13.8592V12.1955C136.466 12.0639 136.574 11.9559 136.706 11.9559ZM136.385 20.0077C136.385 17.4295 134.465 15.5769 132.039 15.5769C129.612 15.5769 127.776 17.4295 127.776 20.0077C127.776 22.5859 129.612 24.4048 132.039 24.4048C134.445 24.4048 136.385 22.5859 136.385 20.0077Z" fill="#00101E"/>
<path d="M144.152 6.22927C144.152 4.95031 145.215 3.66797 146.832 3.66797C148.448 3.66797 149.511 4.94693 149.511 6.22927C149.511 7.54198 148.448 8.77371 146.832 8.77371C145.229 8.77033 144.152 7.52511 144.152 6.22927ZM144.621 27.7726V12.1955C144.621 12.0639 144.729 11.9559 144.861 11.9559H148.661C148.792 11.9559 148.9 12.0639 148.9 12.1955V27.7726C148.9 27.9042 148.792 28.0122 148.661 28.0122H144.861C144.729 28.0122 144.621 27.9042 144.621 27.7726Z" fill="#00101E"/>
<path d="M168.728 18.425V27.7726C168.728 27.9042 168.62 28.0122 168.489 28.0122H164.689C164.557 28.0122 164.449 27.9042 164.449 27.7726V19.353C164.449 16.7748 163.272 15.5128 161.146 15.5128C159.02 15.5128 157.44 17.146 157.44 19.2687L157.423 19.1843V27.7726C157.423 27.9042 157.316 28.0122 157.184 28.0122H153.384C153.253 28.0122 153.145 27.9042 153.145 27.7726V12.1955C153.145 12.0639 153.253 11.9559 153.384 11.9559H156.792C156.924 11.9559 157.032 12.0639 157.032 12.1955L157.035 14.0279C158.247 12.5296 160.42 11.5679 162.475 11.5679C166.285 11.5679 168.728 13.9604 168.728 18.425Z" fill="#00101E"/>
<defs>
<linearGradient id="paint0_linear_276_3615" x1="20.9491" y1="2.50566" x2="10.4117" y2="2.50566" gradientUnits="userSpaceOnUse">
<stop stop-color="#00101E"/>
<stop offset="0.1828" stop-color="#021D3B" stop-opacity="0.8172"/>
<stop offset="0.5807" stop-color="#073D86" stop-opacity="0.4193"/>
<stop offset="1" stop-color="#0D61DB" stop-opacity="0"/>
</linearGradient>
<linearGradient id="paint1_linear_276_3615" x1="33.0945" y1="25.69" x2="37.5726" y2="17.0058" gradientUnits="userSpaceOnUse">
<stop stop-color="#00101E"/>
<stop offset="0.448" stop-color="#063370" stop-opacity="0.552"/>
<stop offset="1" stop-color="#0D61DB" stop-opacity="0"/>
</linearGradient>
<linearGradient id="paint2_linear_276_3615" x1="5.8292" y1="10.305" x2="1.35117" y2="18.9892" gradientUnits="userSpaceOnUse">
<stop stop-color="#00101E"/>
<stop offset="0.448" stop-color="#063370" stop-opacity="0.552"/>
<stop offset="1" stop-color="#0D61DB" stop-opacity="0"/>
</linearGradient>
<linearGradient id="paint3_linear_276_3615" x1="32.9427" y1="10.0654" x2="27.6742" y2="1.8299" gradientUnits="userSpaceOnUse">
<stop stop-color="#00101E"/>
<stop offset="0.448" stop-color="#063370" stop-opacity="0.552"/>
<stop offset="1" stop-color="#0D61DB" stop-opacity="0"/>
</linearGradient>
<linearGradient id="paint4_linear_276_3615" x1="6.06283" y1="26.3349" x2="11.0925" y2="33.3391" gradientUnits="userSpaceOnUse">
<stop stop-color="#00101E"/>
<stop offset="0.448" stop-color="#063370" stop-opacity="0.552"/>
<stop offset="1" stop-color="#0D61DB" stop-opacity="0"/>
</linearGradient>
<linearGradient id="paint5_linear_276_3615" x1="17.964" y1="33.499" x2="28.5013" y2="33.499" gradientUnits="userSpaceOnUse">
<stop stop-color="#00101E"/>
<stop offset="0.111" stop-color="#01152A" stop-opacity="0.889"/>
<stop offset="0.3112" stop-color="#032349" stop-opacity="0.6888"/>
<stop offset="0.5777" stop-color="#07397D" stop-opacity="0.4223"/>
<stop offset="0.8969" stop-color="#0B57C3" stop-opacity="0.1031"/>
<stop offset="1" stop-color="#0D61DB" stop-opacity="0"/>
</linearGradient>
</defs>
</svg>
