<svg width="169" height="22" viewBox="0 0 169 22" fill="none" xmlns="http://www.w3.org/2000/svg">
<path d="M0 10.5709V0L9.59845 0.0720334C18.1344 0.144067 19.2869 0.198092 20.1693 0.468217C22.5645 1.24258 23.4108 2.41312 23.5549 5.13238C23.663 7.38342 23.3388 8.57197 22.3123 9.4904C21.9162 9.85056 21.61 10.1747 21.646 10.1927C21.664 10.2107 22.0062 10.4088 22.3664 10.6429C23.5009 11.3272 23.771 12.1556 23.771 15.091C23.771 17.4321 23.735 17.6842 23.3208 18.5306C22.8166 19.521 22.0422 20.1693 20.7096 20.6916C19.9713 20.9797 18.9628 21.0157 9.95861 21.0698L0 21.1238V10.5709ZM18.6386 17.6122C18.9628 17.4681 19.323 17.198 19.431 16.9999C19.5391 16.7838 19.6291 15.7933 19.6291 14.7488C19.6291 12.984 19.6111 12.858 19.1609 12.4438L18.6927 12.0116L11.4173 11.9575L4.14192 11.9035V14.8929V17.8643H11.0751C16.6577 17.8643 18.1344 17.8102 18.6386 17.6122ZM18.2244 8.49994C19.2509 8.2118 19.449 7.7796 19.449 5.92474C19.449 4.48408 19.413 4.30399 18.9988 3.90781L18.5666 3.4576H11.3453H4.14192V6.06881V8.68002H10.859C14.9109 8.68002 17.8283 8.60799 18.2244 8.49994Z" fill="white"/>
<path d="M28.2734 10.571V0.0361328H30.2544H32.2353V10.571V21.1059H30.2544H28.2734V10.571Z" fill="white"/>
<path d="M46.4613 12.2818V3.45772H41.0588H35.6562V1.74693V0.0361328H48.4422H61.2281V1.74693V3.45772H55.9156H50.6032V12.2818V21.1059H48.5322H46.4613V12.2818Z" fill="white"/>
<path d="M64.5048 10.6245L64.5588 0.125628L66.3776 0.0716031L68.2145 0.0175781L74.3733 8.49951C77.7589 13.1457 80.5862 16.9634 80.6402 16.9454C80.7123 16.9454 83.5036 13.1457 86.8531 8.4815L92.9579 0.0355865H94.6507H96.3435V10.5705V21.1053H94.4526H92.5618L92.5257 13.9921L92.4717 6.87876L87.3393 13.974L82.207 21.0873H80.4782L78.7494 21.1053L73.545 13.974L68.3405 6.82473L68.2865 13.974L68.2505 21.1053H66.3596H64.4688L64.5048 10.6245Z" fill="white"/>
<path d="M99.1703 20.5837C99.3504 20.2955 102.502 15.5593 106.158 10.0488L112.821 0.0541412L114.189 0.0361328C115.27 0.0361328 115.612 0.108166 115.828 0.360283C116.152 0.72045 129.478 20.9078 129.478 21.0339C129.478 21.0699 128.452 21.1059 127.191 21.0879H124.886L119.646 12.8581C116.764 8.33798 114.333 4.62826 114.261 4.62826C114.207 4.62826 111.74 8.33798 108.805 12.8581L103.456 21.0879L101.151 21.1059H98.8281L99.1703 20.5837Z" fill="white"/>
<path d="M132.18 10.571V0.0361328H134.251H136.322V10.571V21.1059H134.251H132.18V10.571Z" fill="white"/>
<path d="M140.86 10.6245L140.914 0.125628L142.553 0.0716031L144.21 0.0175781L152.097 5.90631C156.455 9.14781 161.066 12.6054 162.38 13.5779C163.677 14.5503 164.793 15.3427 164.847 15.3427C164.901 15.3427 164.973 11.9211 164.991 7.74316L165.045 0.125628L166.81 0.0716031L168.557 0.0175781V10.5705V21.1053H167.531H166.486L155.501 13.0736L144.516 5.05991L144.462 13.0736L144.426 21.1053H142.625H140.824L140.86 10.6245Z" fill="white"/>
</svg>
