<svg width="188" height="44" viewBox="0 0 188 44" fill="none" xmlns="http://www.w3.org/2000/svg">
<g clip-path="url(#clip0_390_3710)">
<path d="M66.7247 33.5835C65.1942 33.5835 63.7881 33.3415 62.5063 32.8575C61.2248 32.3735 60.1087 31.684 59.1591 30.789C58.2095 29.894 57.4717 28.844 56.9461 27.6384C56.4202 26.433 56.1575 25.1091 56.1575 23.6658C56.1575 22.223 56.4202 20.8985 56.9461 19.6932C57.4717 18.4878 58.2138 17.4375 59.1728 16.5425C60.1318 15.6475 61.257 14.9583 62.5479 14.4743C63.839 13.99 65.2589 13.748 66.8078 13.748C68.523 13.748 70.0676 14.0312 71.4415 14.5975C72.8155 15.1635 73.9725 15.9855 74.9131 17.063L72.0361 19.6932C71.3353 18.9625 70.5697 18.4194 69.7401 18.0632C68.9102 17.7067 68.0068 17.5288 67.0291 17.5288C66.0885 17.5288 65.2311 17.6748 64.4568 17.9673C63.6818 18.2594 63.0135 18.6796 62.451 19.2274C61.8885 19.7752 61.4551 20.4235 61.1511 21.1724C60.8467 21.9216 60.6946 22.7525 60.6946 23.6655C60.6946 24.5604 60.8467 25.3824 61.1511 26.1313C61.4554 26.8802 61.8888 27.5329 62.451 28.0899C63.0135 28.6472 63.6772 29.0718 64.443 29.364C65.2083 29.6561 66.0519 29.8022 66.9741 29.8022C67.8596 29.8022 68.7217 29.6607 69.5607 29.3776C70.3997 29.0944 71.2162 28.6151 72.0089 27.9392L74.554 31.1446C73.5026 31.9303 72.2811 32.5329 70.8887 32.9528C69.496 33.3728 68.1086 33.5829 66.7253 33.5829L66.7247 33.5835ZM6.82028 21.9999C6.82028 13.5802 13.7123 6.75461 22.2138 6.75461C26.4647 6.75461 30.3129 8.46108 33.0985 11.2199L37.9213 6.44363C33.9013 2.46233 28.3478 0 22.2138 0C9.9454 0 0 9.84962 0 21.9999C0 34.1501 9.9454 43.9997 22.2138 43.9997C34.4822 43.9997 44.4275 34.1501 44.4275 21.9999C44.4275 20.6786 44.3099 19.3845 44.0846 18.1275H41.7285H37.106H27.1933V17.0677H17.2333V26.9318H27.1933V24.9813H37.312C35.912 31.9735 29.6849 37.2451 22.2135 37.2451C13.712 37.2451 6.81999 30.4195 6.81999 21.9999H6.82028ZM70.4594 30.5696V25.8403H65.4394V22.3853H74.5537V31.1446L70.4594 30.5693V30.5696ZM85.4806 33.4736C83.8945 33.4736 82.4884 33.145 81.2619 32.4874C80.0358 31.8298 79.0674 30.9302 78.3575 29.7888C77.6472 28.6475 77.2923 27.3459 77.2923 25.8849C77.2923 24.4054 77.6472 23.0951 78.3575 21.9535C79.0674 20.8119 80.0355 19.9169 81.2619 19.2686C82.4884 18.6202 83.8945 18.2959 85.4806 18.2959C87.048 18.2959 88.4495 18.6202 89.6853 19.2686C90.9208 19.9169 91.8889 20.8072 92.5901 21.9399C93.2909 23.0722 93.6412 24.3871 93.6412 25.8849C93.6412 27.3459 93.2909 28.6475 92.5901 29.7888C91.8889 30.9302 90.9208 31.8301 89.6853 32.4874C88.4495 33.145 87.048 33.4736 85.4806 33.4736ZM85.4806 29.9668C86.2 29.9668 86.8452 29.8025 87.4168 29.4738C87.9883 29.1451 88.4401 28.6748 88.7726 28.0627C89.1044 27.4508 89.2703 26.7248 89.2703 25.8849C89.2703 25.0265 89.1044 24.2958 88.7726 23.693C88.4404 23.0905 87.9886 22.6247 87.4168 22.2958C86.8452 21.9671 86.1997 21.8028 85.4806 21.8028C84.761 21.8028 84.1158 21.9671 83.5442 22.2958C82.9727 22.6244 82.5162 23.0902 82.175 23.693C81.8338 24.2955 81.6631 25.0265 81.6631 25.8849C81.6631 26.7251 81.8338 27.4508 82.175 28.0627C82.5162 28.6748 82.9724 29.1451 83.5442 29.4738C84.1158 29.8025 84.7613 29.9668 85.4806 29.9668ZM96.5182 33.2545V12.9261H100.833V33.2545H96.5182ZM111.234 33.4736C109.833 33.4736 108.57 33.1586 107.445 32.5285C106.32 31.8985 105.43 31.0171 104.776 29.8848C104.121 28.7524 103.794 27.419 103.794 25.8849C103.794 24.3323 104.121 22.9899 104.776 21.8576C105.43 20.7249 106.32 19.8482 107.445 19.2274C108.57 18.6066 109.833 18.2959 111.234 18.2959C112.489 18.2959 113.586 18.5698 114.526 19.1179C115.467 19.6656 116.196 20.4968 116.712 21.6109C117.228 22.725 117.486 24.1495 117.486 25.8846C117.486 27.6013 117.237 29.0217 116.74 30.1447C116.242 31.2678 115.527 32.1036 114.596 32.6517C113.665 33.1995 112.544 33.4736 111.235 33.4736H111.234ZM111.982 29.9668C112.682 29.9668 113.319 29.8025 113.89 29.4738C114.462 29.1451 114.918 28.6748 115.26 28.0627C115.601 27.4508 115.772 26.7248 115.772 25.8849C115.772 25.0265 115.601 24.2958 115.26 23.693C114.918 23.0905 114.462 22.6247 113.89 22.2958C113.319 21.9671 112.682 21.8028 111.982 21.8028C111.262 21.8028 110.617 21.9671 110.045 22.2958C109.474 22.6244 109.017 23.0902 108.676 23.693C108.335 24.2955 108.164 25.0265 108.164 25.8849C108.164 26.7251 108.335 27.4508 108.676 28.0627C109.017 28.6748 109.473 29.1451 110.045 29.4738C110.617 29.8025 111.262 29.9668 111.982 29.9668ZM115.882 33.2545V30.241L115.965 25.8577L115.688 21.5016V12.9264H120.004V33.2548H115.882V33.2545ZM128.994 33.4736C127.722 33.4736 126.5 33.3229 125.329 33.0215C124.158 32.7201 123.231 32.3413 122.549 31.8845L123.987 28.8162C124.67 29.2361 125.476 29.5787 126.408 29.8436C127.339 30.1085 128.257 30.241 129.16 30.241C130.156 30.241 130.862 30.1221 131.277 29.8848C131.692 29.6474 131.899 29.3187 131.899 28.8985C131.899 28.5516 131.738 28.2913 131.415 28.1174C131.093 27.9438 130.664 27.8117 130.129 27.7201C129.594 27.6288 129.009 27.5375 128.372 27.4462C127.736 27.3549 127.095 27.2317 126.45 27.0764C125.804 26.921 125.214 26.6883 124.68 26.3779C124.145 26.0675 123.716 25.6473 123.393 25.1178C123.07 24.588 122.909 23.9031 122.909 23.0629C122.909 22.1314 123.181 21.3098 123.725 20.5971C124.269 19.8847 125.058 19.3233 126.09 18.9124C127.123 18.5014 128.359 18.2959 129.797 18.2959C130.812 18.2959 131.845 18.4055 132.895 18.6246C133.947 18.8437 134.823 19.1634 135.523 19.5833L134.085 22.6244C133.365 22.2045 132.642 21.9167 131.913 21.7616C131.185 21.6063 130.479 21.5289 129.797 21.5289C128.838 21.5289 128.137 21.6567 127.695 21.9123C127.252 22.168 127.031 22.4966 127.031 22.8986C127.031 23.2638 127.192 23.5377 127.515 23.7205C127.838 23.9031 128.266 24.0492 128.801 24.1587C129.336 24.2683 129.921 24.3642 130.558 24.4462C131.194 24.5286 131.835 24.6517 132.48 24.8164C133.125 24.9807 133.711 25.2137 134.237 25.5148C134.763 25.8162 135.191 26.2272 135.523 26.7474C135.855 27.268 136.021 27.9482 136.021 28.7887C136.021 29.7019 135.744 30.5099 135.191 31.213C134.638 31.9164 133.84 32.4688 132.798 32.8708C131.756 33.2725 130.488 33.4734 128.994 33.4734V33.4736ZM147.722 18.2959C148.903 18.2959 149.958 18.5287 150.89 18.9944C151.821 19.4601 152.554 20.1722 153.089 21.1313C153.624 22.0903 153.891 23.3185 153.891 24.8164V33.2545H149.576V25.474C149.576 24.2866 149.313 23.4098 148.787 22.8438C148.261 22.2778 147.519 21.9946 146.56 21.9946C145.878 21.9946 145.265 22.1361 144.72 22.4192C144.176 22.7024 143.752 23.136 143.448 23.7205C143.144 24.3048 142.992 25.054 142.992 25.9672V33.2548H138.676V12.9264H142.992V22.5975L142.024 21.3649C142.558 20.3783 143.323 19.6204 144.319 19.0909C145.315 18.5614 146.449 18.2965 147.722 18.2965L147.722 18.2959ZM165.288 33.4736C163.592 33.4736 162.102 33.145 160.821 32.4874C159.539 31.8298 158.548 30.9302 157.847 29.7888C157.146 28.6475 156.796 27.3459 156.796 25.8849C156.796 24.4054 157.142 23.0951 157.833 21.9535C158.525 20.8119 159.47 19.9169 160.669 19.2686C161.867 18.6202 163.223 18.2959 164.735 18.2959C166.192 18.2959 167.506 18.6017 168.677 19.2135C169.848 19.8253 170.775 20.702 171.457 21.8436C172.14 22.985 172.481 24.3503 172.481 25.9394C172.481 26.1037 172.471 26.291 172.453 26.5011C172.434 26.7112 172.416 26.9074 172.398 27.09H160.309V24.597H170.129L168.469 25.3369C168.469 24.5694 168.313 23.9028 167.999 23.3368C167.685 22.7708 167.252 22.3276 166.699 22.0083C166.146 21.6886 165.5 21.5289 164.763 21.5289C164.025 21.5289 163.375 21.6886 162.812 22.0083C162.25 22.3279 161.812 22.7754 161.498 23.3507C161.185 23.926 161.028 24.6062 161.028 25.3919V26.0495C161.028 26.8532 161.208 27.5607 161.568 28.1728C161.927 28.7846 162.434 29.2503 163.089 29.57C163.744 29.8897 164.514 30.0494 165.399 30.0494C166.192 30.0494 166.888 29.9306 167.487 29.6932C168.087 29.4558 168.636 29.0996 169.133 28.6249L171.429 31.0904C170.747 31.8579 169.889 32.4468 168.857 32.8578C167.824 33.2687 166.635 33.4742 165.288 33.4742V33.4736ZM175.358 33.2545V12.9261H179.673V33.2545H175.358ZM183.684 33.2545V12.9261H188V33.2545H183.684Z" fill="#070707" fill-opacity="0.3"/>
</g>
<defs>
<clipPath id="clip0_390_3710">
<rect width="188" height="44" fill="white"/>
</clipPath>
</defs>
</svg>
