<svg width="212" height="21" viewBox="0 0 212 21" fill="none" xmlns="http://www.w3.org/2000/svg">
<path fill-rule="evenodd" clip-rule="evenodd" d="M32.4845 21V0.739877H31.2956V10.1795L12.3547 0.104987V20.2861H13.5437V10.9391L32.4845 20.9999V21ZM81.5787 5.22371C81.5787 9.08177 83.1849 10.0598 85.6658 12.9178C86.1927 13.5249 86.3149 13.7393 86.9189 14.3158C87.4551 14.8275 87.7819 15.1204 88.2161 15.6711C88.8528 16.4787 91.3194 18.3857 89.5402 19.3646C86.0448 21.288 81.1639 14.6777 81.1639 17.2785C81.1639 18.4442 85.8495 20.8949 89.0458 20.8949C93.1217 20.8949 98.1722 19.5599 98.1722 14.8675C98.1722 11.9222 95.6774 9.53654 94.0756 7.98623C93.0562 6.99955 92.3848 6.14084 91.3794 5.17331C85.4263 -0.555266 92.8441 1.08044 94.0962 1.73802C95.1984 2.31683 96.1528 3.58246 96.618 2.72656C97.2013 1.65338 93.0522 0 91.3273 0H88.4234C85.4011 0 81.5786 2.42941 81.5786 5.22375L81.5787 5.22371ZM156.355 0.0175297C160.062 0.0175297 163.344 1.74122 165.353 4.38706C166.055 5.3126 164.782 5.51717 164.214 4.82477C162.41 2.58709 159.561 1.14263 156.355 1.14263C155.956 1.14263 155.563 1.16561 155.177 1.20893V19.7531C155.563 19.7964 155.956 19.8194 156.355 19.8194C160.229 19.8194 163.582 17.7101 165.2 14.6403C166.094 13.3616 166.797 14.1414 166.25 15.1717C164.431 18.595 160.683 20.9445 156.355 20.9445C150.242 20.9445 145.286 16.2599 145.286 10.4811C145.286 4.70226 150.242 0.0175775 156.355 0.0175775V0.0175297ZM68.9497 0.0175297C74.9156 0.0175297 79.7519 4.70221 79.7519 10.481C79.7519 16.2598 74.9156 20.9445 68.9497 20.9445C62.9837 20.9445 58.1474 16.2598 58.1474 10.481C58.1474 4.70221 62.9837 0.0175297 68.9497 0.0175297ZM68.1822 19.79V1.1721C68.4355 1.1528 68.6914 1.14263 68.9497 1.14263C74.2741 1.14263 78.5904 5.32358 78.5904 10.481C78.5904 15.6384 74.2741 19.8194 68.9497 19.8194C68.6913 19.8194 68.4355 19.8093 68.1822 19.7899V19.79ZM212 21V0.739877H210.811V10.1795L191.87 0.104987V20.2861H193.059V10.9391L212 20.9999V21ZM133.723 20.2862H142.507V0.739925H133.723V20.2862ZM113.437 20.2862H122.222V20.2777H132.141V19.126H122.222V0.739877H113.437V20.2861V20.2862ZM100.976 20.2862H109.761V0.739925H100.976V20.2862ZM178.59 0.0175775C184.556 0.0175775 189.393 4.70226 189.393 10.4811C189.393 16.2599 184.556 20.9445 178.59 20.9445C172.624 20.9445 167.788 16.2599 167.788 10.4811C167.788 4.70226 172.624 0.0175775 178.59 0.0175775ZM177.823 19.79V1.17215C178.076 1.15285 178.332 1.14268 178.59 1.14268C183.915 1.14268 188.231 5.32363 188.231 10.4811C188.231 15.6385 183.915 19.8194 178.59 19.8194C178.332 19.8194 178.076 19.8093 177.823 19.79V19.79ZM55.8083 21V0.739925H54.6193V10.1795L35.6785 0.105035V20.2862H36.8674V10.9391L55.8083 21V21ZM0 20.2862H8.78449V0.739973H0V20.2862Z" fill="#070707" fill-opacity="0.3"/>
</svg>
