<svg width="118" height="37" viewBox="0 0 118 37" fill="none" xmlns="http://www.w3.org/2000/svg">
<path fill-rule="evenodd" clip-rule="evenodd" d="M11.609 17.313L7.63897 13.3454C7.32544 13.032 6.81271 13.032 6.4996 13.3454L2.52954 17.313C2.21602 17.6263 2.21602 18.1387 2.52954 18.4516L6.4996 22.4192C6.81313 22.7325 7.32587 22.7325 7.63897 22.4192L11.609 18.4516C11.9226 18.1383 11.9226 17.6259 11.609 17.313ZM9.57985 24.1184L12.8367 20.8636C13.0939 20.6066 13.5145 20.6066 13.7717 20.8636L17.0286 24.1184C17.2858 24.3755 17.2858 24.7958 17.0286 25.0529L13.7717 28.3077C13.5145 28.5648 13.0939 28.5648 12.8367 28.3077L9.57985 25.0529C9.32263 24.7958 9.32263 24.3755 9.57985 24.1184ZM12.7441 22.7317L11.4491 24.0259C11.2946 24.1803 11.2174 24.3836 11.2174 24.5857C11.2174 24.7882 11.2946 24.9911 11.4491 25.1454L12.7441 26.4397C12.8985 26.594 13.1016 26.6711 13.3042 26.6711C13.5068 26.6711 13.7099 26.594 13.8643 26.4397L15.1593 25.1454C15.3138 24.9911 15.391 24.7882 15.391 24.5857C15.391 24.3836 15.3138 24.1803 15.1593 24.0259L13.8643 22.7317C13.7099 22.5774 13.5068 22.5002 13.3042 22.5002C13.102 22.5002 12.8985 22.5774 12.7441 22.7317ZM13.4898 23.1056L14.7848 24.3998C14.8872 24.5021 14.8872 24.6692 14.7848 24.7711L13.4898 26.0654C13.3874 26.1677 13.2202 26.1677 13.1182 26.0654L11.8232 24.7711C11.7208 24.6688 11.7208 24.5017 11.8232 24.3998L13.1182 23.1056C13.2206 23.0032 13.3878 23.0032 13.4898 23.1056ZM16.0283 22.3617L16.5389 21.8514C16.6766 21.7137 16.6766 21.4903 16.5389 21.353C16.4011 21.2153 16.1776 21.2153 16.0402 21.353L15.5296 21.8633L14.9286 21.2626L15.4537 20.7379C15.5915 20.6002 15.5915 20.3768 15.4537 20.2395C15.3159 20.1018 15.0924 20.1018 14.955 20.2395L14.4299 20.7643L14.0503 20.3849C13.6348 19.9739 12.9745 19.9739 12.559 20.3849L12.1793 20.7643L11.6832 20.2689C11.5455 20.1312 11.3219 20.1312 11.1846 20.2689C11.0468 20.4066 11.0468 20.63 11.1846 20.7673L11.6807 21.2631L11.0797 21.8637L10.5691 21.3534C10.4313 21.2158 10.2078 21.2158 10.0704 21.3534C9.93262 21.4911 9.93262 21.7145 10.0704 21.8518L10.581 22.3621L9.97997 22.9627L9.45486 22.438C9.31708 22.3003 9.09356 22.3003 8.95621 22.438C8.81842 22.5757 8.81842 22.799 8.95621 22.9363L9.48131 23.4611L9.09228 23.8503C8.69472 24.26 8.696 24.8956 9.0829 25.3117C9.21343 25.4459 9.34865 25.5777 9.48131 25.7103L8.98521 26.206C8.84743 26.3437 8.84743 26.5671 8.98521 26.7044C9.12299 26.8421 9.34651 26.8421 9.48387 26.7044L9.97997 26.2086L10.581 26.8093L10.0704 27.3195C9.93262 27.4572 9.93262 27.6806 10.0704 27.8179C10.2082 27.9556 10.4317 27.9556 10.5691 27.8179L11.0797 27.3076L11.6807 27.9083L11.1556 28.433C11.0178 28.5707 11.0178 28.7941 11.1556 28.9314C11.2934 29.0691 11.5169 29.0691 11.6542 28.9314L12.1793 28.4066L12.559 28.786C12.9745 29.197 13.6348 29.197 14.0503 28.786L14.4299 28.4066L14.926 28.9024C15.0638 29.0401 15.2873 29.0401 15.4247 28.9024C15.5625 28.7647 15.5625 28.5413 15.4247 28.4041L14.9286 27.9083L15.5296 27.3076L16.0402 27.8179C16.178 27.9556 16.4015 27.9556 16.5389 27.8179C16.6766 27.6802 16.6766 27.4568 16.5389 27.3195L16.0283 26.8093L16.6293 26.2086L17.1544 26.7334C17.2922 26.8711 17.5157 26.8711 17.6531 26.7334C17.7908 26.5957 17.7908 26.3723 17.6531 26.235L17.128 25.7103L17.517 25.321C17.9197 24.9058 17.9141 24.251 17.5072 23.8401L17.1275 23.4607L17.6232 22.9649C17.761 22.8272 17.761 22.6038 17.6232 22.4665C17.4854 22.3288 17.2619 22.3288 17.1245 22.4665L16.6289 22.9623L16.0278 22.3617H16.0283ZM40.6604 34.6749V19.3311H44.7132V34.6749H40.6604ZM42.6866 13.1919C43.8741 13.1919 44.8365 14.1541 44.8365 15.3405C44.8365 16.5273 43.8737 17.489 42.6866 17.489C41.499 17.489 40.5367 16.5269 40.5367 15.3405C40.5367 14.1536 41.4994 13.1919 42.6866 13.1919ZM48.9089 34.6749V13.5069H55.7673C58.3655 13.5069 60.0568 13.6105 60.8455 13.8224C62.0587 14.1426 63.0739 14.8323 63.8925 15.8968C64.7111 16.9613 65.1202 18.3361 65.1202 20.0213C65.1202 21.3223 64.8834 22.4111 64.4151 23.2982C63.9416 24.1849 63.3452 24.8798 62.6205 25.3875C61.8958 25.8902 61.1561 26.2252 60.4066 26.3876C59.3858 26.5897 57.9116 26.6933 55.9788 26.6933H53.198V34.6758H48.9085L48.9089 34.6749ZM53.1985 17.084V23.1154H55.5305C57.2116 23.1154 58.3309 23.002 58.8983 22.7803C59.4652 22.5586 59.9088 22.2137 60.2296 21.7358C60.5499 21.2626 60.7129 20.7157 60.7129 20.0852C60.7129 19.3115 60.486 18.6758 60.0372 18.1732C59.5838 17.6706 59.0168 17.3552 58.3215 17.2273C57.8135 17.1335 56.7932 17.0845 55.2545 17.0845H53.1985V17.084ZM67.6646 26.8157C67.6646 25.4656 67.9948 24.1598 68.6607 22.8984C69.3261 21.6318 70.268 20.6714 71.4858 20.0059C72.7037 19.3409 74.0597 19.0058 75.5634 19.0058C77.8856 19.0058 79.7839 19.7595 81.2679 21.2673C82.7519 22.7799 83.4916 24.682 83.4916 26.9879C83.4916 29.3138 82.7421 31.2402 81.2483 32.7677C79.7493 34.2951 77.866 35.059 75.5928 35.059C74.1877 35.059 72.8466 34.7389 71.5694 34.1033C70.2974 33.4677 69.3261 32.5362 68.6603 31.3046C67.9948 30.0777 67.6642 28.5797 67.6642 26.8157H67.6646ZM71.8356 27.0326C71.8356 28.5554 72.1956 29.723 72.9153 30.5313C73.64 31.3443 74.5277 31.7484 75.5877 31.7484C76.643 31.7484 77.5303 31.3443 78.2452 30.5313C78.9602 29.723 79.3202 28.5456 79.3202 27.0032C79.3202 25.5005 78.9602 24.3423 78.2452 23.5344C77.5303 22.7215 76.6426 22.3173 75.5877 22.3173C74.5277 22.3173 73.64 22.7215 72.9153 23.5344C72.1952 24.3427 71.8356 25.5103 71.8356 27.0331V27.0326ZM86.6814 34.6749V13.5069H90.7343V34.6749H86.6814ZM94.9005 34.6749V13.5069H98.9534V34.6749H94.9005ZM102.173 26.8157C102.173 25.4656 102.503 24.1598 103.169 22.8984C103.835 21.6318 104.776 20.6714 105.994 20.0059C107.212 19.3409 108.568 19.0058 110.072 19.0058C112.394 19.0058 114.292 19.7595 115.776 21.2673C117.26 22.7799 118 24.682 118 26.9879C118 29.3138 117.251 31.2402 115.757 32.7677C114.258 34.2951 112.374 35.059 110.101 35.059C108.696 35.059 107.355 34.7389 106.078 34.1033C104.806 33.4677 103.835 32.5362 103.169 31.3046C102.503 30.0777 102.173 28.5797 102.173 26.8157H102.173ZM106.344 27.0326C106.344 28.5554 106.704 29.723 107.424 30.5313C108.148 31.3443 109.036 31.7484 110.096 31.7484C111.151 31.7484 112.039 31.3443 112.754 30.5313C113.469 29.723 113.829 28.5456 113.829 27.0032C113.829 25.5005 113.469 24.3423 112.754 23.5344C112.039 22.7215 111.151 22.3173 110.096 22.3173C109.036 22.3173 108.148 22.7215 107.424 23.5344C106.704 24.3427 106.344 25.5103 106.344 27.0331V27.0326ZM1.51175 29.0814L5.48182 25.1139C5.79534 24.8005 5.79534 24.2881 5.48182 23.9752L1.51175 20.0076C1.34411 19.8401 1.11931 19.7621 0.898351 19.774C0.318219 21.2661 0 22.889 0 24.5857C0 26.2508 0.306275 27.8443 0.865505 29.3134C1.0967 29.3351 1.33516 29.2579 1.51133 29.0819L1.51175 29.0814ZM7.63811 35.6972L11.6082 31.7296C11.9217 31.4163 11.9217 30.9039 11.6082 30.591L7.63811 26.6234C7.32459 26.3101 6.81185 26.3101 6.49875 26.6234L2.52869 30.591C2.21516 30.9043 2.21516 31.4167 2.52869 31.7296L6.49875 35.6972C6.81228 36.0106 7.32501 36.0106 7.63811 35.6972ZM17.8412 36.8453L13.8711 32.8777C13.5576 32.5643 13.0449 32.5643 12.7318 32.8777L8.76169 36.8453C8.72543 36.8815 8.69301 36.9207 8.66529 36.9616L17.9627 37C17.9295 36.9446 17.8894 36.8926 17.8416 36.8453H17.8412ZM24.0742 30.5906L20.1041 26.623C19.7906 26.3096 19.2779 26.3096 18.9648 26.623L14.9947 30.5906C14.6812 30.9039 14.6812 31.4163 14.9947 31.7292L18.9648 35.6968C19.2783 36.0101 19.791 36.0101 20.1041 35.6968L24.0742 31.7292C24.3877 31.4159 24.3877 30.9035 24.0742 30.5906ZM25.0911 20.0072L21.121 23.9748C20.8075 24.2881 20.8075 24.8005 21.121 25.1134L25.0911 29.081C25.2669 29.2567 25.5057 29.3338 25.7369 29.3125C25.9711 28.6973 26.1609 28.0605 26.3026 27.4057C26.6895 25.4553 26.6997 23.5728 26.3026 21.7644C26.1545 21.0793 25.9536 20.4143 25.7045 19.7731C25.484 19.7612 25.2588 19.8392 25.0911 20.0068V20.0072ZM18.9643 13.3449L14.9943 17.3125C14.6807 17.6259 14.6807 18.1383 14.9943 18.4512L18.9643 22.4188C19.2779 22.7321 19.7906 22.7321 20.1037 22.4188L24.0737 18.4512C24.3873 18.1379 24.3873 17.6254 24.0737 17.3125L20.1037 13.3449C19.7902 13.0316 19.2774 13.0316 18.9643 13.3449ZM4.14197 2.72407L8.63329 10.4985H13.3038H17.9743L22.4656 2.72407L16.4574 5.6907L13.3038 0L10.1502 5.6907L4.14197 2.72407ZM8.76169 12.5559L12.7318 16.5235C13.0453 16.8368 13.558 16.8368 13.8711 16.5235L17.8412 12.5559C17.9448 12.4523 18.0139 12.3269 18.0493 12.1944L8.55822 12.2114C8.59448 12.3376 8.6623 12.457 8.76169 12.5559Z" fill="white"/>
</svg>
