<svg width="122" height="43" viewBox="0 0 122 43" fill="none" xmlns="http://www.w3.org/2000/svg">
<path d="M46.1426 13.7725H52.625L55.0944 23.3984L57.571 13.7725H64.024V29.5922H60.0036V17.5322L56.9012 29.5922H53.2584L50.1633 17.5322V29.5922H46.1426V13.7725Z" fill="white"/>
<path d="M66.3398 13.7725H71.2709V29.5922H66.3398V13.7725Z" fill="white"/>
<path d="M73.8184 13.7725H78.4052L84.3695 22.507V13.7725H89.0118V29.5922H84.3695L78.4385 20.9052V29.5922H73.8184V13.7725Z" fill="white"/>
<path d="M91.2656 13.7725H104.416V17.1528H96.1967V19.6718H103.816V22.8975H96.1967V26.0127H104.66V29.5922H91.2656V13.7725Z" fill="white"/>
<path d="M106.361 29.5918V13.7725H114.551C116.068 13.7725 117.231 13.9012 118.031 14.1629C118.834 14.4208 119.482 14.903 119.974 15.6028C120.467 16.3063 120.711 17.1642 120.711 18.1732C120.711 19.0497 120.522 19.8082 120.145 20.4451C119.771 21.0858 119.252 21.6012 118.59 21.9992C118.172 22.2495 117.594 22.4594 116.865 22.6251C117.449 22.8201 117.875 23.0117 118.142 23.2068C118.319 23.3355 118.582 23.6155 118.927 24.0391C119.267 24.4627 119.497 24.7903 119.612 25.0222L121.999 29.5922H116.446L113.821 24.7682C113.488 24.1423 113.192 23.737 112.933 23.5492C112.578 23.3062 112.174 23.1847 111.726 23.1847H111.293V29.5922H106.362L106.361 29.5918ZM111.293 20.2017H113.37C113.592 20.2017 114.029 20.1282 114.673 19.9846C114.999 19.9221 115.265 19.7564 115.469 19.4875C115.676 19.2185 115.78 18.913 115.78 18.5668C115.78 18.0548 115.616 17.6609 115.291 17.3886C114.965 17.1124 114.354 16.976 113.455 16.976H111.293V20.2017Z" fill="white"/>
<path fill-rule="evenodd" clip-rule="evenodd" d="M11.4021 8.77288C11.4583 8.77288 11.5142 8.77426 11.5704 8.77495C12.7397 3.74763 17.2696 0 22.6792 0C28.9764 0 34.0813 5.07773 34.0813 11.3413C34.0813 11.3927 34.0799 11.4438 34.0792 11.4952C35.7143 11.8518 37.2174 12.5581 38.5067 13.5303C38.2374 13.5151 37.9584 13.5075 37.6696 13.5075C36.0148 13.5075 34.7116 13.7136 33.7599 14.1261C32.8086 14.5386 32.0979 15.1055 31.6238 15.8311C31.15 16.5529 30.913 17.3186 30.913 18.1288C30.913 19.3661 31.3756 20.3824 32.3012 21.1777C33.2192 21.9769 34.7519 22.6176 36.9068 23.0964C38.2211 23.3874 39.0579 23.6892 39.4167 24.0133C39.776 24.3375 39.9536 24.7055 39.9536 25.1142C39.9536 25.545 39.7648 25.9244 39.3834 26.252C39.0058 26.5796 38.4654 26.7419 37.7654 26.7419C36.8252 26.7419 36.1033 26.4215 35.5959 25.7846C35.2849 25.3942 35.0778 24.8197 34.9778 24.0686L30.3133 24.3596C30.4503 25.9541 31.039 27.2687 32.0791 28.3033C33.1193 29.3379 34.9927 29.8571 37.6953 29.8571C38.8233 29.8571 39.8079 29.7387 40.6512 29.5018C38.5661 32.1852 35.2985 33.9137 31.6252 33.9137C31.4863 33.9137 31.3485 33.9109 31.2108 33.9061C30.1623 39.0932 25.5564 43.0003 20.0329 43.0003C13.7357 43.0003 8.63078 37.9226 8.63078 31.6591C8.63078 31.4789 8.63564 31.2994 8.64397 31.1212C7.4886 30.8358 6.40264 30.3749 5.41663 29.7687C5.91085 29.8277 6.45435 29.8574 7.04748 29.8574C8.56554 29.8574 9.81288 29.5298 10.7867 28.8781C11.7603 28.2225 12.4082 27.4233 12.7303 26.4843C13.0524 25.5416 13.2117 24.1683 13.2117 22.3639V13.7729H8.2806V23.5093C8.2806 24.4704 8.15114 25.1553 7.8957 25.5602C7.63645 25.9651 7.23281 26.1678 6.68133 26.1678C6.33322 26.1678 6.06668 26.1015 5.87787 25.9651C5.60022 25.7553 5.40413 25.4863 5.28925 25.1477C5.17438 24.8125 5.11156 24.2971 5.10427 23.6046L0.759723 24.1918C0.269322 22.9266 0 21.552 0 20.1145C0 13.851 5.10496 8.77323 11.4021 8.77323V8.77288ZM42.2089 18.3463C42.5285 19.1375 42.7614 19.9733 42.8954 20.8412C42.6462 20.6641 42.3703 20.4987 42.068 20.3454C41.1423 19.8739 39.6062 19.4065 37.459 18.9463C36.5927 18.7657 36.0447 18.5745 35.8187 18.3646C35.5855 18.162 35.4672 17.9376 35.4672 17.687C35.4672 17.3407 35.6115 17.0462 35.9003 16.807C36.189 16.5674 36.6222 16.4459 37.1924 16.4459C37.8848 16.4459 38.429 16.6078 38.825 16.9358C39.2175 17.2599 39.4764 17.7829 39.5986 18.501L42.2089 18.347V18.3463ZM24.6762 26.9846H19.1083L18.3087 29.5916H13.2922L19.2787 13.7722H24.6578L30.6183 29.5916H25.4724L24.6766 26.9846H24.6762ZM23.6361 23.5601L21.8997 17.8744L20.1561 23.5601H23.6361Z" fill="white"/>
</svg>
