<svg width="237" height="46" viewBox="0 0 237 46" fill="none" xmlns="http://www.w3.org/2000/svg">
<path d="M95.5315 32.6356L90.8125 19.9256H92.9921L97.1844 31.4369H96.1543L100.514 19.9256H102.454L106.718 31.4369H105.712L110 19.9256H112.06L107.317 32.6356H105.113L101.113 22.1316H101.783L97.735 32.6356H95.5311H95.5315ZM121.162 19.8055C122.2 19.8055 123.114 20.0055 123.905 20.4051C124.695 20.8047 125.314 21.4124 125.762 22.2278C126.208 23.0432 126.432 24.0744 126.432 25.3214V32.6356H124.133V25.5851C124.133 24.3539 123.833 23.427 123.234 22.8035C122.635 22.1799 121.793 21.868 120.707 21.868C119.893 21.868 119.182 22.0278 118.575 22.3474C117.968 22.6671 117.501 23.1389 117.174 23.7624C116.847 24.3859 116.683 25.1612 116.683 26.0885V32.6356H114.383V14.8414H116.683V23.3547L116.228 22.4436C116.643 21.6124 117.282 20.9645 118.144 20.5008C119.006 20.0371 120.012 19.8055 121.162 19.8055H121.162ZM138.577 32.6356V29.9497L138.457 29.4463V24.8659C138.457 23.8906 138.173 23.1353 137.607 22.5994C137.04 22.0639 136.189 21.7962 135.055 21.7962C134.304 21.7962 133.57 21.9199 132.851 22.1677C132.133 22.4156 131.526 22.7475 131.031 23.1628L130.073 21.4363C130.728 20.9085 131.514 20.5049 132.432 20.2254C133.351 19.9455 134.313 19.8055 135.319 19.8055C137.059 19.8055 138.401 20.229 139.343 21.0765C140.285 21.9239 140.756 23.2188 140.756 24.9616V32.6356H138.577ZM134.409 32.7797C133.467 32.7797 132.64 32.6198 131.929 32.3002C131.218 31.9805 130.671 31.5367 130.288 30.9692C129.905 30.4016 129.713 29.7583 129.713 29.0386C129.713 28.351 129.877 27.7274 130.205 27.168C130.532 26.6086 131.067 26.1608 131.81 25.8253C132.552 25.4894 133.554 25.3214 134.816 25.3214H138.84V26.9762H134.911C133.762 26.9762 132.987 27.168 132.588 27.5518C132.189 27.9356 131.989 28.3993 131.989 28.9429C131.989 29.5664 132.237 30.0662 132.731 30.4418C133.227 30.8175 133.913 31.0053 134.792 31.0053C135.654 31.0053 136.408 30.8134 137.055 30.4296C137.702 30.0459 138.169 29.4865 138.457 28.751L138.912 30.3339C138.608 31.0857 138.073 31.6812 137.307 32.1205C136.54 32.5602 135.574 32.7797 134.408 32.7797H134.409ZM149.38 32.7797C148.102 32.7797 147.112 32.4361 146.409 31.7484C145.707 31.0613 145.355 30.0779 145.355 28.7988V17.144H147.655V28.7031C147.655 29.3903 147.827 29.9181 148.17 30.2861C148.513 30.6536 149.004 30.8378 149.643 30.8378C150.362 30.8378 150.96 30.6378 151.439 30.2382L152.158 31.8929C151.807 32.1968 151.388 32.4203 150.9 32.5643C150.413 32.7083 149.907 32.7801 149.379 32.7801L149.38 32.7797ZM143.2 21.8201V19.9256H151.296V21.8201H143.2ZM158.578 32.7797C157.524 32.7797 156.522 32.6356 155.572 32.348C154.622 32.0604 153.875 31.7087 153.332 31.2929L154.291 29.4702C154.833 29.8377 155.504 30.1497 156.303 30.4053C157.101 30.6613 157.915 30.789 158.746 30.789C159.816 30.789 160.587 30.6373 161.058 30.3335C161.529 30.0296 161.765 29.6061 161.765 29.0625C161.765 28.6629 161.621 28.351 161.333 28.127C161.046 27.9031 160.667 27.7351 160.196 27.6236C159.724 27.5116 159.202 27.4118 158.627 27.3238C158.052 27.2358 157.477 27.1238 156.902 26.9879C156.327 26.852 155.8 26.6601 155.321 26.4122C154.842 26.1644 154.458 25.8208 154.171 25.381C153.883 24.9413 153.74 24.3539 153.74 23.6184C153.74 22.8509 153.955 22.1795 154.387 21.6038C154.818 21.0282 155.429 20.5848 156.219 20.2728C157.009 19.9613 157.947 19.8051 159.033 19.8051C159.864 19.8051 160.706 19.9049 161.561 20.1049C162.415 20.3049 163.114 20.5884 163.657 20.9564L162.675 22.7791C162.1 22.3953 161.501 22.1316 160.878 21.9876C160.255 21.8436 159.632 21.7718 159.01 21.7718C158.003 21.7718 157.253 21.9357 156.758 22.2635C156.263 22.5913 156.015 23.0111 156.015 23.5227C156.015 23.9543 156.163 24.2862 156.459 24.5178C156.754 24.7498 157.138 24.9295 157.608 25.0573C158.08 25.1851 158.602 25.293 159.177 25.381C159.752 25.4691 160.327 25.581 160.902 25.7169C161.477 25.8528 162 26.0407 162.471 26.2804C162.942 26.5202 163.326 26.8561 163.621 27.2877C163.916 27.7193 164.064 28.295 164.064 29.0142C164.064 29.7817 163.84 30.445 163.394 31.0048C162.946 31.5642 162.316 31.9999 161.501 32.3119C160.687 32.6234 159.713 32.7797 158.579 32.7797H158.578ZM182.819 19.806C183.841 19.806 184.744 20.006 185.526 20.4056C186.309 20.8051 186.92 21.4129 187.359 22.2282C187.798 23.0436 188.017 24.0749 188.017 25.3219V32.6361H185.717V25.5856C185.717 24.3543 185.43 23.4274 184.855 22.8039C184.28 22.1804 183.474 21.8684 182.436 21.8684C181.669 21.8684 180.998 22.0282 180.423 22.3479C179.848 22.6676 179.406 23.1394 179.094 23.7629C178.782 24.3864 178.627 25.1616 178.627 26.089V32.6361H176.327V25.5856C176.327 24.3543 176.043 23.4274 175.477 22.8039C174.91 22.1804 174.099 21.8684 173.045 21.8684C172.295 21.8684 171.632 22.0282 171.057 22.3479C170.482 22.6676 170.035 23.1394 169.715 23.7629C169.396 24.3864 169.236 25.1616 169.236 26.089V32.6361H166.937V19.9261H169.141V23.3073L168.781 22.4441C169.18 21.6129 169.796 20.965 170.626 20.5013C171.456 20.0376 172.423 19.806 173.524 19.806C174.738 19.806 175.784 20.1058 176.662 20.7054C177.54 21.3049 178.115 22.2124 178.387 23.4274L177.453 23.0436C177.836 22.0684 178.507 21.2851 179.465 20.6932C180.423 20.1017 181.541 19.806 182.819 19.806H182.819ZM192.258 32.6361V19.9261H194.557V32.6361H192.258ZM193.407 17.4799C192.96 17.4799 192.589 17.3359 192.293 17.0483C191.998 16.7607 191.85 16.4089 191.85 15.9931C191.85 15.5615 191.997 15.2017 192.293 14.914C192.589 14.626 192.96 14.4824 193.407 14.4824C193.854 14.4824 194.226 14.6224 194.521 14.9023C194.816 15.1822 194.964 15.5299 194.964 15.9457C194.964 16.3773 194.82 16.7412 194.533 17.037C194.245 17.3327 193.87 17.4808 193.407 17.4808V17.4799ZM205.719 19.806C206.757 19.806 207.672 20.006 208.462 20.4056C209.253 20.8051 209.871 21.4129 210.319 22.2282C210.766 23.0436 210.989 24.0749 210.989 25.3219V32.6361H208.69V25.5856C208.69 24.3543 208.39 23.4274 207.791 22.8039C207.193 22.1804 206.35 21.8684 205.264 21.8684C204.45 21.8684 203.739 22.0282 203.132 22.3479C202.525 22.6676 202.059 23.1394 201.731 23.7629C201.404 24.3864 201.24 25.1616 201.24 26.089V32.6361H198.941V19.9261H201.145V23.3556L200.785 22.4445C201.2 21.6133 201.839 20.9654 202.701 20.5017C203.564 20.0381 204.57 19.8064 205.72 19.8064L205.719 19.806ZM220.906 32.7797C219.549 32.7797 218.355 32.5002 217.325 31.9403C216.295 31.3809 215.496 30.6134 214.929 29.6382C214.362 28.6629 214.079 27.5437 214.079 26.2809C214.079 25.0176 214.354 23.8988 214.905 22.9235C215.456 21.9483 216.214 21.1848 217.181 20.6336C218.147 20.0818 219.237 19.806 220.45 19.806C221.68 19.806 222.766 20.0778 223.708 20.6214C224.65 21.165 225.389 21.9285 225.924 22.9114C226.459 23.8947 226.726 25.042 226.726 26.3526C226.726 26.4488 226.722 26.5603 226.714 26.6886C226.706 26.8163 226.694 26.9364 226.678 27.0484H215.875V25.3937H225.48L224.546 25.9693C224.562 25.1539 224.395 24.4266 224.043 23.7873C223.692 23.1479 223.209 22.6481 222.594 22.2883C221.979 21.9285 221.264 21.7488 220.45 21.7488C219.651 21.7488 218.941 21.9285 218.318 22.2883C217.695 22.6481 217.208 23.1516 216.857 23.799C216.506 24.4464 216.33 25.186 216.33 26.0172V26.401C216.33 27.2484 216.526 28.0038 216.917 28.6675C217.308 29.3307 217.855 29.8463 218.558 30.2143C219.26 30.5818 220.067 30.766 220.977 30.766C221.728 30.766 222.41 30.6382 223.025 30.3822C223.64 30.1262 224.179 29.7429 224.642 29.2314L225.911 30.7181C225.336 31.3895 224.622 31.9011 223.767 32.2528C222.913 32.6045 221.959 32.7801 220.905 32.7801L220.906 32.7797ZM229.912 32.6356V19.9256H232.116V23.3791L231.901 22.5159C232.252 21.6368 232.843 20.965 233.673 20.5013C234.503 20.0376 235.526 19.806 236.739 19.806V22.0364C236.644 22.0206 236.552 22.0124 236.464 22.0124C236.376 22.0124 236.292 22.0124 236.212 22.0124C234.982 22.0124 234.008 22.38 233.29 23.1154C232.571 23.8509 232.212 24.9142 232.212 26.3048V32.6361H229.912V32.6356Z" fill="#070707" fill-opacity="0.3"/>
<path d="M67.8432 10.3234L81.1295 23.2384L77.0793 28.3746C74.9615 28.2816 72.8428 28.1917 70.725 28.1019L70.6474 26.0083L58.9928 24.0411L40.7146 46L21.8132 37.2966C21.0501 36.9453 20.4124 36.483 19.887 35.9394C19.3229 35.3556 18.8886 34.6765 18.5679 33.9392C18.2554 33.22 18.0525 32.4448 17.9438 31.6493C17.8364 30.8632 17.8207 30.0546 17.8815 29.2577C16.4375 28.6482 15.0327 27.8924 13.7885 26.9998C12.6128 26.1559 11.576 25.187 10.78 24.0998C10.0525 23.1061 9.5249 22.018 9.271 20.8405C9.05002 19.8152 9.03604 18.7244 9.27821 17.5726C8.03757 17.0281 6.8551 16.4822 5.77366 15.8556C4.62141 15.1878 3.5828 14.4275 2.71016 13.4807C1.54708 12.2188 0.756967 10.5699 0.342518 8.82354C-0.094481 6.981 -0.113873 5.02377 0.287498 3.2941L0.378596 2.9013L1.38789 3.61917C2.23979 4.2305 3.06282 4.8215 4.00131 5.3502C4.47394 5.61613 4.97272 5.8771 5.52156 6.14889C6.07221 6.4216 6.68058 6.7092 7.36787 7.0266C10.3376 8.39824 13.4453 9.79245 16.6206 11.1966C19.8717 12.6342 23.0714 14.0297 26.2707 15.4248L29.3369 16.7631C29.2818 16.6394 29.2286 16.5138 29.1781 16.387C29.027 16.0068 28.8954 15.6113 28.784 15.2081C28.4786 14.1011 28.3158 12.91 28.3086 11.8007C28.3014 10.7072 28.4453 9.68906 28.7519 8.90211L29.2805 7.77066C29.5628 8.07136 29.8735 8.38018 30.1401 8.689C30.5153 9.15494 31.479 9.7911 32.8162 10.5315C34.0216 11.1993 35.5139 11.9411 37.1465 12.7159C37.0342 12.4396 36.9322 12.1538 36.8398 11.8616C36.6603 11.2928 36.5155 10.6923 36.4078 10.09C36.2319 9.10934 36.1548 8.11967 36.1805 7.25144C36.2062 6.38638 36.3352 5.63329 36.5715 5.11497C36.6657 4.90774 36.7803 4.71856 36.9124 4.54609C37.045 4.37272 37.1947 4.21876 37.3598 4.08196L37.565 3.91219L38.1382 4.58402C38.4886 4.99533 39.1141 5.47843 39.9885 6.02609C40.8738 6.58188 42.0157 7.20133 43.3867 7.87857C43.9594 8.1612 44.5736 8.45467 45.2271 8.75763C45.5338 8.89985 45.8499 9.04432 46.1751 9.19151C45.4043 8.17881 44.8663 7.03518 44.6196 5.72946C44.3567 4.33705 44.4262 2.76269 44.9001 0.968454C45.0066 0.646088 45.1315 0.321012 45.2465 0L46.0592 0.454203L58.4169 6.88257L61.6071 2.49721L62.2597 2.96586C62.9506 3.46205 63.5134 3.98488 63.9472 4.53255C64.386 5.08698 64.6909 5.66625 64.8596 6.26899C65.0066 6.79227 65.0512 7.32594 64.9935 7.86909C64.9457 8.31968 64.8285 8.77478 64.6417 9.23395L67.7981 10.2828L67.8419 10.3252L67.8432 10.3234ZM78.9513 23.3842L66.8524 11.6237L62.2705 10.1848L62.7941 9.30348C63.0769 8.82761 63.2595 8.37115 63.3416 7.935C63.4223 7.50834 63.407 7.09794 63.2969 6.70559C63.1973 6.35026 63.0187 5.99855 62.7621 5.65225C62.5452 5.35968 62.2728 5.06982 61.9444 4.78358L58.9017 8.96622L46.2472 2.38298C46.033 3.5966 46.0497 4.67161 46.2617 5.62968C46.4921 6.67308 46.9557 7.58239 47.6038 8.38379C48.2802 9.22041 49.161 9.95273 50.1919 10.606C51.231 11.2648 52.4256 11.8449 53.7213 12.3736L53.8954 12.4391C54.041 12.4928 54.1989 12.5506 54.3188 12.6129L54.5349 12.7254L54.2467 13.4532L53.9544 14.2103L53.3479 13.9728L53.0047 13.8333C50.9415 13.0071 49.0289 12.2134 47.2881 11.4567C45.5496 10.7013 44.0018 9.99111 42.6687 9.33283C41.4867 8.74905 40.4562 8.19642 39.5917 7.67946C38.9057 7.26905 38.324 6.87986 37.854 6.51415C37.8035 6.85594 37.7823 7.25641 37.7887 7.6921C37.7986 8.34135 37.8707 9.06825 38.0024 9.80148C38.1603 10.6823 38.4024 11.5573 38.7222 12.2982C39.0018 12.9439 39.3369 13.4843 39.7216 13.8297C39.7793 13.8816 39.8384 13.9286 39.8983 13.9706C39.952 14.008 40.007 14.041 40.0616 14.069L41.866 14.8894L43.6784 15.7084C44.6954 16.1671 45.706 16.6236 46.8281 17.1364C47.8685 17.6119 48.8367 18.0598 49.6756 18.4598L49.9173 18.5754L49.2331 20.0432L48.9901 19.9335C47.2042 19.1271 45.2866 18.2476 43.3695 17.3681L40.5536 16.0781C38.2671 15.0397 36.0172 13.9968 34.0951 13.0251C32.3959 12.1669 30.9581 11.365 29.9845 10.6742C29.9191 11.2016 29.9069 11.7858 29.9457 12.3912C29.9962 13.1768 30.1315 13.9959 30.3462 14.7724C30.5595 15.5458 30.849 16.27 31.2066 16.8637C31.5196 17.3834 31.8822 17.7988 32.2876 18.0512C34.5132 19.0269 36.7167 19.9985 38.8724 20.9611C41.0492 21.9336 43.1715 22.8934 45.2077 23.8344L45.4535 23.9481L45.1135 24.6859L44.7833 25.425L44.5362 25.3135C41.5557 23.9707 38.8119 22.7508 36.0677 21.5304L31.8628 19.6589C31.8082 19.6346 31.7541 19.6088 31.7022 19.5822C31.6558 19.5592 31.6062 19.5321 31.5543 19.5018C29.5867 18.6395 27.6042 17.7744 25.6221 16.9102C22.3327 15.4759 19.0424 14.0406 15.9419 12.6698C12.7656 11.2657 9.65794 9.87146 6.68779 8.49937C5.98697 8.17565 5.36191 7.87992 4.78782 7.59548C4.21147 7.31014 3.69239 7.03879 3.20669 6.76564C2.86529 6.5733 2.53292 6.37509 2.201 6.16515C2.01926 6.05047 1.83796 5.93173 1.65487 5.80802C1.6702 7.26228 1.86998 8.48312 2.22175 9.52246C2.61004 10.6702 3.18549 11.598 3.9039 12.3777C4.70709 13.2491 5.70376 13.9548 6.82669 14.5846C7.96812 15.2248 9.23041 15.7838 10.5531 16.3576L40.6875 29.4333L40.0458 30.9215L10.8061 18.234C10.6758 19.0634 10.7119 19.8517 10.8851 20.5958C11.0975 21.5078 11.5164 22.3571 12.0878 23.1373C12.8161 24.1323 13.7921 25.024 14.9087 25.802C16.1606 26.6743 17.5875 27.4025 19.0428 27.975L35.9157 34.6115L35.3245 36.1254L19.4694 29.8893C19.4541 30.4451 19.4834 31.0014 19.565 31.5414C19.6575 32.1545 19.8171 32.7446 20.053 33.2877C20.2965 33.848 20.6244 34.3623 21.0483 34.803C21.4411 35.2111 21.9169 35.5569 22.4851 35.8188L40.2636 44.0048L58.3447 22.2826C62.9691 23.0582 67.5925 23.8416 72.2159 24.624L72.2872 26.5424L76.3207 26.7153L78.9491 23.3824L78.9513 23.3842ZM62.2416 15.726L63.4074 13.999L65.9018 15.2126L64.4799 16.6827L62.2421 15.726H62.2416Z" fill="#070707" fill-opacity="0.3"/>
</svg>
