<svg width="211" height="41" viewBox="0 0 211 41" fill="none" xmlns="http://www.w3.org/2000/svg">
<path d="M85.1434 29.0896L80.9375 17.7615H82.8801L86.6166 28.0212H85.6985L89.5841 17.7615H91.3133L95.1137 28.0212H94.2169L98.0386 17.7615H99.8747L95.6474 29.0896H93.6831L90.1179 19.7277H90.7156L87.1073 29.0896H85.143H85.1434ZM107.987 17.6545C108.912 17.6545 109.727 17.8327 110.432 18.1889C111.136 18.545 111.688 19.0866 112.087 19.8134C112.485 20.5401 112.684 21.4592 112.684 22.5706V29.0896H110.635V22.8056C110.635 21.7083 110.368 20.8822 109.834 20.3264C109.3 19.7707 108.549 19.4927 107.582 19.4927C106.856 19.4927 106.222 19.6351 105.682 19.92C105.141 20.2049 104.725 20.6254 104.433 21.1811C104.141 21.7369 103.995 22.4278 103.995 23.2543V29.0896H101.945V13.2301H103.995V20.8178L103.589 20.0057C103.96 19.2649 104.529 18.6874 105.297 18.2742C106.066 17.8609 106.963 17.6545 107.988 17.6545H107.987ZM123.508 29.0896V26.6957L123.402 26.247V22.1646C123.402 21.2954 123.149 20.6222 122.644 20.1446C122.138 19.6673 121.38 19.4287 120.37 19.4287C119.701 19.4287 119.046 19.5389 118.405 19.7599C117.765 19.9808 117.224 20.2765 116.783 20.6467L115.929 19.108C116.513 18.6376 117.214 18.2778 118.032 18.0287C118.85 17.7792 119.708 17.6545 120.605 17.6545C122.156 17.6545 123.351 18.0319 124.191 18.7872C125.031 19.5426 125.451 20.6966 125.451 22.2499V29.0896H123.508ZM119.793 29.2179C118.954 29.2179 118.217 29.0755 117.584 28.7906C116.95 28.5057 116.462 28.1101 116.121 27.6043C115.78 27.0985 115.609 26.525 115.609 25.8836C115.609 25.2708 115.755 24.715 116.046 24.2165C116.338 23.7179 116.815 23.3187 117.477 23.0197C118.139 22.7203 119.032 22.5706 120.156 22.5706H123.743V24.0454H120.242C119.217 24.0454 118.526 24.2165 118.171 24.5585C117.815 24.9005 117.637 25.3138 117.637 25.7983C117.637 26.354 117.858 26.7995 118.299 27.1343C118.74 27.4691 119.352 27.6365 120.135 27.6365C120.903 27.6365 121.576 27.4655 122.152 27.1234C122.729 26.7814 123.145 26.2828 123.401 25.6273L123.807 27.0381C123.536 27.7081 123.06 28.2389 122.376 28.6304C121.693 29.0224 120.832 29.2179 119.793 29.2179H119.793ZM133.137 29.2179C131.998 29.2179 131.116 28.9117 130.489 28.2988C129.863 27.6864 129.55 26.8099 129.55 25.6699V15.2823H131.599V25.5846C131.599 26.1971 131.752 26.6675 132.058 26.9955C132.364 27.323 132.802 27.4872 133.371 27.4872C134.012 27.4872 134.546 27.3089 134.972 26.9528L135.613 28.4276C135.3 28.6984 134.927 28.8976 134.492 29.026C134.058 29.1543 133.606 29.2183 133.136 29.2183L133.137 29.2179ZM127.628 19.45V17.7615H134.845V19.45H127.628ZM141.335 29.2179C140.395 29.2179 139.502 29.0896 138.655 28.8332C137.809 28.5769 137.143 28.2634 136.659 27.8928L137.513 26.2683C137.997 26.5959 138.595 26.8739 139.307 27.1017C140.019 27.3299 140.744 27.4437 141.485 27.4437C142.439 27.4437 143.125 27.3085 143.545 27.0377C143.965 26.7669 144.175 26.3894 144.175 25.9049C144.175 25.5488 144.047 25.2708 143.791 25.0712C143.535 24.8716 143.197 24.7219 142.777 24.6225C142.357 24.5227 141.891 24.4338 141.378 24.3553C140.866 24.2768 140.354 24.177 139.841 24.0559C139.328 23.9348 138.859 23.7638 138.432 23.5428C138.005 23.3219 137.663 23.0157 137.407 22.6238C137.151 22.2318 137.023 21.7083 137.023 21.0528C137.023 20.3687 137.215 19.7703 137.599 19.2573C137.983 18.7442 138.528 18.349 139.232 18.071C139.937 17.7933 140.773 17.6541 141.741 17.6541C142.481 17.6541 143.232 17.743 143.993 17.9213C144.755 18.0995 145.378 18.3522 145.861 18.6802L144.986 20.3047C144.474 19.9627 143.94 19.7277 143.385 19.5993C142.83 19.4709 142.275 19.4069 141.719 19.4069C140.823 19.4069 140.154 19.553 139.713 19.8452C139.271 20.1373 139.051 20.5115 139.051 20.9675C139.051 21.3522 139.182 21.6479 139.446 21.8544C139.709 22.0612 140.051 22.2213 140.471 22.3352C140.891 22.4491 141.356 22.5453 141.869 22.6238C142.381 22.7022 142.894 22.802 143.406 22.9231C143.919 23.0443 144.385 23.2117 144.805 23.4253C145.224 23.639 145.566 23.9384 145.829 24.3231C146.093 24.7078 146.224 25.2209 146.224 25.8619C146.224 26.546 146.025 27.1371 145.627 27.6361C145.228 28.1347 144.666 28.523 143.94 28.801C143.214 29.0787 142.346 29.2179 141.336 29.2179H141.335ZM162.94 17.6549C163.851 17.6549 164.656 17.8331 165.353 18.1893C166.05 18.5454 166.595 19.087 166.986 19.8138C167.378 20.5405 167.573 21.4596 167.573 22.571V29.09H165.523V22.806C165.523 21.7087 165.267 20.8826 164.755 20.3268C164.242 19.7711 163.524 19.4931 162.598 19.4931C161.915 19.4931 161.317 19.6355 160.805 19.9204C160.292 20.2053 159.898 20.6258 159.62 21.1815C159.342 21.7373 159.204 22.4282 159.204 23.2547V29.09H157.154V22.806C157.154 21.7087 156.901 20.8826 156.396 20.3268C155.891 19.7711 155.168 19.4931 154.229 19.4931C153.56 19.4931 152.969 19.6355 152.457 19.9204C151.944 20.2053 151.546 20.6258 151.261 21.1815C150.977 21.7373 150.834 22.4282 150.834 23.2547V29.09H148.785V17.7619H150.749V20.7755L150.429 20.0061C150.784 19.2653 151.333 18.6879 152.073 18.2746C152.813 17.8613 153.674 17.6549 154.656 17.6549C155.738 17.6549 156.67 17.9221 157.453 18.4565C158.235 18.9909 158.748 19.7997 158.99 20.8826L158.157 20.5405C158.499 19.6713 159.097 18.9732 159.951 18.4456C160.805 17.9185 161.801 17.6549 162.94 17.6549H162.94ZM171.352 29.09V17.7619H173.402V29.09H171.352ZM172.377 15.5817C171.979 15.5817 171.648 15.4533 171.384 15.197C171.121 14.9407 170.989 14.6272 170.989 14.2566C170.989 13.8719 171.12 13.5512 171.384 13.2949C171.647 13.0381 171.978 12.9102 172.377 12.9102C172.776 12.9102 173.106 13.0349 173.37 13.2844C173.633 13.5339 173.765 13.8437 173.765 14.2143C173.765 14.599 173.637 14.9234 173.381 15.1869C173.124 15.4505 172.79 15.5825 172.377 15.5825V15.5817ZM183.35 17.6549C184.276 17.6549 185.09 17.8331 185.795 18.1893C186.5 18.5454 187.051 19.087 187.45 19.8138C187.848 20.5405 188.047 21.4596 188.047 22.571V29.09H185.998V22.806C185.998 21.7087 185.731 20.8826 185.197 20.3268C184.663 19.7711 183.913 19.4931 182.945 19.4931C182.219 19.4931 181.585 19.6355 181.045 19.9204C180.504 20.2053 180.088 20.6258 179.796 21.1815C179.504 21.7373 179.358 22.4282 179.358 23.2547V29.09H177.309V17.7619H179.273V20.8186L178.953 20.0065C179.323 19.2657 179.892 18.6883 180.661 18.275C181.429 17.8617 182.326 17.6553 183.351 17.6553L183.35 17.6549ZM196.886 29.2179C195.676 29.2179 194.612 28.9688 193.694 28.4699C192.776 27.9713 192.064 27.2872 191.559 26.418C191.054 25.5488 190.801 24.5513 190.801 23.4257C190.801 22.2998 191.046 21.3027 191.538 20.4335C192.029 19.5643 192.704 18.8838 193.566 18.3925C194.427 17.9008 195.398 17.6549 196.48 17.6549C197.576 17.6549 198.544 17.8971 199.383 18.3816C200.223 18.8661 200.882 19.5466 201.358 20.4226C201.835 21.299 202.073 22.3215 202.073 23.4897C202.073 23.5754 202.07 23.6748 202.062 23.7891C202.055 23.903 202.045 24.01 202.03 24.1098H192.402V22.635H200.963L200.13 23.1481C200.144 22.4213 199.995 21.7731 199.682 21.2033C199.369 20.6335 198.939 20.188 198.39 19.8673C197.842 19.5466 197.205 19.3864 196.479 19.3864C195.768 19.3864 195.135 19.5466 194.579 19.8673C194.024 20.188 193.59 20.6367 193.277 21.2137C192.964 21.7908 192.808 22.4499 192.808 23.1907V23.5328C192.808 24.2881 192.982 24.9613 193.331 25.5528C193.68 26.144 194.167 26.6035 194.793 26.9315C195.419 27.259 196.138 27.4232 196.949 27.4232C197.618 27.4232 198.227 27.3093 198.775 27.0812C199.322 26.853 199.803 26.5114 200.216 26.0554L201.347 27.3806C200.835 27.9789 200.198 28.4348 199.436 28.7483C198.674 29.0618 197.824 29.2183 196.885 29.2183L196.886 29.2179ZM204.913 29.0896V17.7615H206.877V20.8395L206.685 20.0701C206.998 19.2866 207.525 18.6879 208.265 18.2746C209.005 17.8613 209.916 17.6549 210.998 17.6549V19.6428C210.912 19.6287 210.83 19.6214 210.752 19.6214C210.674 19.6214 210.599 19.6214 210.528 19.6214C209.432 19.6214 208.563 19.949 207.923 20.6045C207.283 21.26 206.963 22.2077 206.963 23.4471V29.09H204.913V29.0896Z" fill="white"/>
<path d="M60.4666 9.20289L72.3083 20.7136L68.6984 25.2913C66.8109 25.2085 64.9226 25.1284 63.035 25.0483L62.9659 23.1824L52.5785 21.4291L36.2877 41.0003L19.4414 33.2432C18.7613 32.9302 18.193 32.5181 17.7247 32.0336C17.2219 31.5133 16.8348 30.9081 16.549 30.251C16.2705 29.6099 16.0896 28.919 15.9927 28.21C15.8971 27.5094 15.883 26.7887 15.9373 26.0784C14.6502 25.5352 13.3982 24.8616 12.2892 24.066C11.2414 23.3139 10.3173 22.4504 9.60786 21.4814C8.95953 20.5957 8.48925 19.6259 8.26296 18.5765C8.06601 17.6626 8.05354 16.6904 8.26939 15.6639C7.16364 15.1786 6.10975 14.6921 5.14588 14.1335C4.11892 13.5384 3.19324 12.8607 2.41548 12.0169C1.37887 10.8922 0.674662 9.4226 0.305275 7.86611C-0.0842081 6.2239 -0.101492 4.47949 0.256238 2.93788L0.337431 2.58779L1.23698 3.22761C1.99625 3.77247 2.7298 4.29921 3.56625 4.77042C3.98748 5.00744 4.43203 5.24003 4.9212 5.48227C5.41197 5.72533 5.95419 5.98166 6.56676 6.26455C9.21355 7.48704 11.9833 8.72966 14.8134 9.98114C17.711 11.2624 20.5628 12.5062 23.4142 13.7496L26.147 14.9424C26.098 14.8321 26.0506 14.7202 26.0056 14.6072C25.8709 14.2683 25.7535 13.9158 25.6543 13.5565C25.3821 12.5698 25.237 11.5083 25.2306 10.5196C25.2242 9.54493 25.3524 8.63751 25.6257 7.93613L26.0968 6.9277C26.3484 7.1957 26.6254 7.47095 26.8629 7.74619C27.1973 8.16147 28.0563 8.72846 29.248 9.3884C30.3224 9.98355 31.6525 10.6447 33.1075 11.3352C33.0074 11.0889 32.9166 10.8342 32.8342 10.5739C32.6742 10.0668 32.5452 9.53165 32.4491 8.99485C32.2924 8.12083 32.2236 7.23876 32.2465 6.46494C32.2695 5.69394 32.3844 5.02273 32.595 4.56077C32.679 4.37607 32.7811 4.20746 32.8989 4.05375C33.0171 3.89922 33.1505 3.762 33.2976 3.64007L33.4805 3.48877L33.9914 4.08755C34.3037 4.45414 34.8612 4.88471 35.6406 5.37282C36.4296 5.86818 37.4473 6.42027 38.6692 7.02388C39.1797 7.27578 39.7271 7.53734 40.3095 7.80736C40.5829 7.93411 40.8646 8.06288 41.1544 8.19407C40.4675 7.29148 39.988 6.27219 39.7681 5.10844C39.5338 3.86743 39.5957 2.46425 40.0181 0.865107C40.113 0.577791 40.2243 0.288061 40.3268 0.00195312L41.0511 0.40677L52.0652 6.13618L54.9085 2.22764L55.4901 2.64534C56.1059 3.08758 56.6075 3.55356 56.9942 4.04167C57.3853 4.53582 57.657 5.05211 57.8074 5.58931C57.9384 6.0557 57.9782 6.53134 57.9267 7.01543C57.8841 7.41703 57.7796 7.82265 57.6132 8.23189L60.4264 9.16667L60.4654 9.2045L60.4666 9.20289ZM70.3669 20.8436L59.5835 10.3618L55.4998 9.07935L55.9664 8.29386C56.2185 7.86973 56.3813 7.4629 56.4544 7.07418C56.5264 6.69391 56.5127 6.32812 56.4146 5.97844C56.3258 5.66175 56.1666 5.34827 55.9379 5.03963C55.7446 4.77887 55.5018 4.52053 55.2092 4.26541L52.4973 7.99327L41.2187 2.12583C41.0278 3.20749 41.0427 4.16561 41.2316 5.01951C41.437 5.94946 41.8502 6.7599 42.4278 7.47417C43.0307 8.21982 43.8157 8.87252 44.7345 9.45479C45.6606 10.0419 46.7254 10.559 47.8801 11.0302L48.0353 11.0885C48.1651 11.1364 48.3058 11.1879 48.4127 11.2435L48.6053 11.3437L48.3484 11.9923L48.088 12.6672L47.5473 12.4555L47.2415 12.3312C45.4026 11.5948 43.6979 10.8873 42.1464 10.2129C40.5969 9.5397 39.2175 8.90672 38.0293 8.32002C36.9758 7.79971 36.0574 7.30717 35.2868 6.84642C34.6755 6.48064 34.157 6.13376 33.7382 5.80782C33.6931 6.11244 33.6742 6.46937 33.6799 6.85769C33.6887 7.43634 33.753 8.08421 33.8704 8.73771C34.0111 9.5228 34.2269 10.3027 34.5119 10.963C34.7611 11.5384 35.0597 12.0201 35.4026 12.3279C35.4541 12.3742 35.5067 12.4161 35.5602 12.4535C35.608 12.4869 35.657 12.5163 35.7057 12.5412L37.3138 13.2724L38.9293 14.0023C39.8356 14.4112 40.7364 14.818 41.7364 15.2751C42.6637 15.6989 43.5267 16.0981 44.2743 16.4546L44.4897 16.5576L43.88 17.8658L43.6634 17.768C42.0717 17.0493 40.3626 16.2655 38.6539 15.4816L36.1442 14.3319C34.1063 13.4064 32.101 12.4768 30.388 11.6109C28.8734 10.8459 27.592 10.1312 26.7242 9.51556C26.666 9.98556 26.6551 10.5063 26.6897 11.0459C26.7347 11.7461 26.8553 12.476 27.0466 13.1682C27.2367 13.8575 27.4948 14.5029 27.8135 15.0321C28.0925 15.4953 28.4156 15.8655 28.777 16.0904C30.7606 16.96 32.7245 17.826 34.6457 18.6839C36.5859 19.5507 38.4775 20.4062 40.2923 21.2448L40.5113 21.3462L40.2082 22.0037L39.914 22.6625L39.6938 22.5631C37.0373 21.3663 34.5919 20.279 32.1461 19.1913L28.3983 17.5234C28.3497 17.5016 28.3015 17.4787 28.2552 17.455C28.2138 17.4344 28.1696 17.4103 28.1234 17.3833C26.3697 16.6147 24.6028 15.8437 22.8362 15.0735C19.9045 13.7951 16.9719 12.5159 14.2085 11.2942C11.3776 10.0427 8.60783 8.80008 5.96062 7.57718C5.336 7.28866 4.77891 7.02509 4.26724 6.77157C3.75355 6.51725 3.29091 6.27541 2.85802 6.03196C2.55375 5.86053 2.25752 5.68388 1.96169 5.49676C1.7997 5.39455 1.63812 5.28872 1.47493 5.17846C1.4886 6.4746 1.66666 7.5627 1.98018 8.48903C2.32625 9.51193 2.83913 10.3389 3.47943 11.0338C4.19529 11.8105 5.08358 12.4394 6.08442 13.0008C7.10174 13.5714 8.22678 14.0695 9.40568 14.581L36.2636 26.235L35.6916 27.5613L9.63118 16.2534C9.51501 16.9926 9.54717 17.6952 9.70152 18.3584C9.89083 19.1712 10.2642 19.9281 10.7735 20.6235C11.4226 21.5104 12.2924 22.3051 13.2877 22.9985C14.4035 23.7759 15.6752 24.425 16.9723 24.9352L32.0106 30.8501L31.4837 32.1994L17.3525 26.6414C17.3388 27.1368 17.365 27.6325 17.4377 28.1138C17.5201 28.6603 17.6624 29.1862 17.8726 29.6703C18.0897 30.1697 18.3819 30.628 18.7597 31.0208C19.1098 31.3845 19.5339 31.6928 20.0403 31.9262L35.8857 39.2221L52.0009 19.8617C56.1224 20.5531 60.2431 21.2512 64.3639 21.9486L64.4274 23.6584L68.0223 23.8125L70.3649 20.842L70.3669 20.8436ZM55.4741 14.018L56.5131 12.4788L58.7362 13.5605L57.4689 14.8707L55.4745 14.018H55.4741Z" fill="white"/>
</svg>
