<svg width="178" height="48" viewBox="0 0 178 48" fill="none" xmlns="http://www.w3.org/2000/svg">
<path d="M0 14.6238V32.7628C0 32.7628 0.217393 34.2791 2.04355 33.2922C4.01062 32.2304 6.46238 30.8265 6.46238 30.8265C6.46238 30.8265 7.14489 30.5031 7.14489 30.1083V17.5225C7.14489 17.5225 7.11289 17.3653 6.81505 17.1679C6.54106 16.9875 1.84867 14.2273 1.84867 14.2273C1.84867 14.2273 0.727109 13.5733 0.00020843 14.6239L0 14.6238ZM71.3706 29.3202C70.8956 29.4736 70.4097 29.6089 69.9274 29.725C69.4437 29.8421 68.9544 29.9316 68.4721 29.9926C66.9939 30.1815 65.7442 30.0799 64.6711 29.65C63.9541 29.3631 63.3311 28.9428 62.8202 28.402C62.307 27.8578 61.905 27.1881 61.6264 26.4114C61.3446 25.6288 61.2016 24.7293 61.2016 23.7388C61.2016 22.7896 61.3354 21.906 61.5966 21.1135C61.8577 20.3276 62.2383 19.6507 62.7294 19.1033C63.2213 18.5557 63.8344 18.1222 64.5518 17.8146C65.9727 17.2065 67.8267 17.2279 69.8242 17.7007C70.8076 17.9321 71.734 18.2652 72.5789 18.6895L72.8816 18.8412V13.3778L72.7317 13.3334C71.9797 13.1091 71.1198 12.9205 70.1755 12.7727C69.2288 12.6247 68.0515 12.5497 66.6761 12.5497C64.9801 12.5497 63.417 12.8218 62.0315 13.3597C60.6414 13.9002 59.4369 14.678 58.4509 15.6708C57.4617 16.6664 56.6858 17.8814 56.1444 19.2835C55.6029 20.6854 55.3282 22.2683 55.3282 23.9904C55.3282 25.7671 55.5817 27.3565 56.0813 28.7143C56.5824 30.079 57.3167 31.2399 58.2648 32.1655C59.214 33.092 60.3817 33.7983 61.7365 34.2674C63.0854 34.7331 64.6286 34.9693 66.322 34.9693C67.4942 34.9693 68.6348 34.8699 69.7118 34.6733C70.7932 34.4747 71.8511 34.1668 72.854 33.7594L72.9848 33.7061V28.6975L72.6927 28.8251C72.286 29.0026 71.8412 29.1693 71.3707 29.3201L71.3706 29.3202ZM172.555 34.7554V21.4834C172.555 18.4899 170.673 17.4808 168.955 17.4808C167.236 17.4808 165.312 18.4899 165.312 21.4834V34.7554H159.867V12.8009H165.187V14.8244C166.611 13.3054 168.619 12.5499 170.629 12.5499C172.805 12.5499 174.563 13.2666 175.781 14.4877C177.54 16.2573 178 18.3218 178 20.7231V34.7554H172.555ZM150.778 34.7579V32.8589C149.312 34.3361 147.932 34.9701 145.42 34.9701C142.949 34.9701 141.15 34.3361 139.851 33.0323C138.676 31.8083 138.049 30.0384 138.049 28.0983C138.049 24.6032 140.438 21.737 145.505 21.737H150.652V20.6424C150.652 18.2385 149.48 17.186 146.592 17.186C144.495 17.186 143.535 17.6928 142.406 18.9992L138.926 15.5868C141.065 13.2251 143.16 12.5497 146.803 12.5497C152.919 12.5497 156.097 15.165 156.097 20.3033V34.7578H150.778V34.7579ZM150.652 25.4879H146.34C144.371 25.4879 143.284 26.4143 143.284 27.9742C143.284 29.4928 144.286 30.502 146.422 30.502C147.932 30.502 148.893 30.3755 149.855 29.4488C150.444 28.9006 150.652 28.0156 150.652 26.6652V25.4878V25.4879ZM130.506 34.7579V32.8589C129.04 34.3361 127.659 34.9701 125.145 34.9701C122.677 34.9701 120.875 34.3361 119.576 33.0323C118.404 31.8083 117.777 30.0384 117.777 28.0983C117.777 24.6032 120.163 21.737 125.23 21.737H130.379V20.6424C130.379 18.2385 129.21 17.186 126.317 17.186C124.224 17.186 123.263 17.6928 122.132 18.9992L118.656 15.5868C120.793 13.2251 122.885 12.5497 126.528 12.5497C132.641 12.5497 135.824 15.165 135.824 20.3033V34.7578H130.506V34.7579ZM130.379 25.4879H126.068C124.099 25.4879 123.013 26.4143 123.013 27.9742C123.013 29.4928 124.014 30.502 126.15 30.502C127.659 30.502 128.623 30.3755 129.585 29.4488C130.171 28.9006 130.379 28.0156 130.379 26.6652V25.4878V25.4879ZM110.113 34.7554V21.4834C110.113 18.4899 108.231 17.4808 106.514 17.4808C104.796 17.4808 102.871 18.4899 102.871 21.4834V34.7554H97.4255V12.8009H102.745V14.8244C104.169 13.3054 106.177 12.5499 108.19 12.5499C110.365 12.5499 112.124 13.2666 113.339 14.4877C115.098 16.2573 115.558 18.3218 115.558 20.7231V34.7554H110.113ZM88.3316 34.7579V32.8589C86.8637 34.3361 85.4855 34.9701 82.9739 34.9701C80.5032 34.9701 78.701 34.3361 77.4051 33.0323C76.2303 31.8083 75.6007 30.0384 75.6007 28.0983C75.6007 24.6032 77.9888 21.737 83.0584 21.737H88.2056V20.6424C88.2056 18.2385 87.0334 17.186 84.1457 17.186C82.0486 17.186 81.0894 17.6928 79.9579 18.9992L76.4796 15.5868C78.6187 13.2251 80.7114 12.5497 84.3565 12.5497C90.4679 12.5497 93.6507 15.165 93.6507 20.3033V34.7578H88.3316V34.7579ZM88.2056 25.4879H83.894C81.9248 25.4879 80.837 26.4143 80.837 27.9742C80.837 29.4928 81.8402 30.502 83.9764 30.502C85.4854 30.502 86.447 30.3755 87.4088 29.4488C87.9973 28.9006 88.2056 28.0156 88.2056 26.6652V25.4878V25.4879ZM42.212 34.1728C41.8179 34.1728 41.3734 34.0404 40.8831 33.7753C39.0147 32.7687 36.6899 31.4387 36.4694 31.3127C36.2171 31.1897 35.5011 30.7825 35.5011 30.1194L35.5117 17.4294C35.5393 17.2881 35.6499 17.0098 36.0739 16.7311C36.3501 16.5484 40.5807 14.0591 41.0623 13.776C41.5987 13.4631 42.8193 13.1782 43.6147 14.3294L43.7101 14.4672L43.7046 32.8501C43.6929 32.933 43.5691 33.6727 42.8939 34.0157C42.687 34.1207 42.4592 34.1729 42.212 34.1729V34.1728ZM36.5652 30.0777C36.6215 30.1571 36.8124 30.2917 36.9425 30.3531L36.9796 30.3727C37.0039 30.3867 39.4441 31.786 41.3856 32.8317C41.837 33.0756 42.2106 33.1599 42.4101 33.062C42.5637 32.9873 42.6271 32.7913 42.6459 32.7182V14.8211C42.2506 14.3914 41.7478 14.6177 41.5931 14.7038C39.7182 15.8069 36.8489 17.4996 36.6566 17.6272C36.6159 17.6534 36.5862 17.6764 36.5652 17.6951V30.0777ZM24.1408 47.9999C23.6938 47.9999 23.3868 47.8246 23.1977 47.6617C22.5728 47.1234 22.5577 46.1594 22.5581 46.0514C22.5684 45.4829 22.6569 40.5572 22.6804 40.2233C22.718 39.7164 22.9041 39.4839 23.0117 39.3901L23.0936 39.332C23.0936 39.332 33.0133 33.5775 34.1403 32.9265C34.7103 32.5919 35.4212 33.0026 35.6534 33.1582C35.8734 33.2843 38.1935 34.618 39.9993 35.7193C40.7693 36.1866 41.1774 36.7277 41.2126 37.3273C41.2578 38.0952 40.6649 38.5831 40.5973 38.6363L40.5359 38.6774L24.5349 47.9604L24.4379 47.9759C24.3326 47.9925 24.2338 48 24.1407 48L24.1408 47.9999ZM23.7577 40.1826C23.7515 40.2103 23.7448 40.2494 23.7415 40.3012C23.725 40.5305 23.6611 43.8726 23.6217 46.0628C23.6233 46.2387 23.6901 46.679 23.8907 46.8502C23.9381 46.8898 24.0174 46.937 24.1834 46.9289L39.96 37.7757C40.0119 37.7261 40.1632 37.5639 40.1507 37.386C40.1352 37.1702 39.8792 36.897 39.4491 36.6352C37.5724 35.4912 35.1339 34.0924 35.1094 34.0786L35.0744 34.0565C34.9355 33.9629 34.7306 33.8764 34.6416 33.8704C33.4584 34.5552 24.9266 39.5041 23.7577 40.1825V40.1826ZM18.791 47.437L2.87405 38.2035C2.87405 38.2035 1.65118 37.2439 3.42149 36.1674C5.328 35.0063 7.77257 33.603 7.77257 33.603C7.77257 33.603 8.39557 33.1783 8.7424 33.3805C9.86719 34.0315 19.7862 39.7853 19.7862 39.7853C19.7862 39.7853 19.9081 39.8914 19.9339 40.2514C19.9577 40.5804 20.0555 46.0429 20.0555 46.0429C20.0555 46.0429 20.0613 47.6402 18.791 47.4369V47.437ZM24.3534 0.0179015L40.2693 9.24879C40.2693 9.24879 41.4947 10.2103 39.7231 11.2879C37.8187 12.4479 35.3719 13.8519 35.3719 13.8519C35.3719 13.8519 34.7489 14.2767 34.4047 14.0748C33.2769 13.4222 23.3585 7.66887 23.3585 7.66887C23.3585 7.66887 23.2361 7.56284 23.2097 7.20386C23.1865 6.87487 23.0892 1.41199 23.0892 1.41199C23.0892 1.41199 23.0832 -0.186078 24.3534 0.0180064V0.0179015ZM18.791 0.0179015L2.87405 9.24879C2.87405 9.24879 1.65118 10.2103 3.42149 11.2879C5.328 12.4479 7.77257 13.8519 7.77257 13.8519C7.77257 13.8519 8.39557 14.2767 8.7424 14.0748C9.86719 13.4222 19.7862 7.66887 19.7862 7.66887C19.7862 7.66887 19.9081 7.56284 19.9339 7.20386C19.9577 6.87487 20.0555 1.41199 20.0555 1.41199C20.0555 1.41199 20.0613 -0.186078 18.791 0.0180064V0.0179015Z" fill="#070707" fill-opacity="0.3"/>
</svg>
