<svg width="126" height="34" viewBox="0 0 126 34" fill="none" xmlns="http://www.w3.org/2000/svg">
<path d="M0 10.3585V23.207C0 23.207 0.153885 24.2811 1.44656 23.582C2.83897 22.8299 4.57449 21.8354 4.57449 21.8354C4.57449 21.8354 5.05762 21.6063 5.05762 21.3267V12.4118C5.05762 12.4118 5.03497 12.3004 4.82413 12.1606C4.63019 12.0328 1.30861 10.0776 1.30861 10.0776C1.30861 10.0776 0.514695 9.6144 0.000147541 10.3586L0 10.3585ZM50.5208 20.7685C50.1845 20.8771 49.8406 20.973 49.4992 21.0552C49.1567 21.1382 48.8104 21.2015 48.469 21.2448C47.4226 21.3786 46.538 21.3066 45.7784 21.0021C45.2709 20.7988 44.8299 20.5012 44.4682 20.1181C44.105 19.7326 43.8204 19.2582 43.6232 18.7081C43.4237 18.1538 43.3225 17.5166 43.3225 16.815C43.3225 16.1426 43.4172 15.5168 43.6021 14.9554C43.7869 14.3987 44.0563 13.9192 44.4039 13.5315C44.7521 13.1436 45.1861 12.8365 45.694 12.6187C46.6998 12.1879 48.0121 12.2031 49.4262 12.538C50.1222 12.7019 50.778 12.9379 51.3761 13.2384L51.5904 13.3458V9.47593L51.4842 9.44451C50.9519 9.28561 50.3432 9.15204 49.6748 9.0473C49.0046 8.94248 48.1712 8.88937 47.1977 8.88937C45.9972 8.88937 44.8907 9.08214 43.9099 9.46315C42.926 9.84595 42.0733 10.3969 41.3754 11.1002C40.6752 11.8054 40.1259 12.666 39.7427 13.6592C39.3594 14.6522 39.1649 15.7733 39.1649 16.9932C39.1649 18.2517 39.3443 19.3775 39.698 20.3393C40.0527 21.306 40.5725 22.1283 41.2436 22.7839C41.9155 23.4401 42.7421 23.9405 43.7011 24.2727C44.6559 24.6026 45.7483 24.7699 46.947 24.7699C47.7768 24.7699 48.5842 24.6995 49.3466 24.5602C50.1121 24.4196 50.8609 24.2015 51.5708 23.9129L51.6634 23.8752V20.3274L51.4566 20.4178C51.1688 20.5435 50.8539 20.6616 50.5208 20.7684L50.5208 20.7685ZM122.146 24.6184V15.2174C122.146 13.097 120.813 12.3822 119.598 12.3822C118.38 12.3822 117.019 13.097 117.019 15.2174V24.6184H113.165V9.06728H116.93V10.5006C117.938 9.42467 119.359 8.88952 120.783 8.88952C122.322 8.88952 123.567 9.39719 124.429 10.2621C125.674 11.5156 126 12.978 126 14.6789V24.6184H122.146ZM106.73 24.6202V23.2751C105.693 24.3214 104.716 24.7705 102.938 24.7705C101.189 24.7705 99.915 24.3214 98.9959 23.3979C98.1643 22.5309 97.7202 21.2772 97.7202 19.903C97.7202 17.4272 99.4111 15.397 102.998 15.397H106.641V14.6217C106.641 12.9189 105.811 12.1734 103.767 12.1734C102.283 12.1734 101.604 12.5324 100.804 13.4578L98.3408 11.0407C99.8549 9.36777 101.338 8.88937 103.917 8.88937C108.246 8.88937 110.496 10.7419 110.496 14.3815V24.6201H106.73V24.6202ZM106.641 18.0539H103.589C102.195 18.0539 101.425 18.7102 101.425 19.8151C101.425 20.8907 102.135 21.6056 103.647 21.6056C104.716 21.6056 105.396 21.516 106.077 20.8595C106.494 20.4712 106.641 19.8443 106.641 18.8878V18.0538V18.0539ZM92.3803 24.6202V23.2751C91.3431 24.3214 90.3653 24.7705 88.5857 24.7705C86.8386 24.7705 85.5629 24.3214 84.644 23.3979C83.8139 22.5309 83.3701 21.2772 83.3701 19.903C83.3701 17.4272 85.059 15.397 88.646 15.397H92.2909V14.6217C92.2909 12.9189 91.4632 12.1734 89.4157 12.1734C87.9341 12.1734 87.2535 12.5324 86.4526 13.4578L83.9922 11.0407C85.5048 9.36777 86.9859 8.88937 89.5649 8.88937C93.8923 8.88937 96.1452 10.7419 96.1452 14.3815V24.6201H92.3803V24.6202ZM92.2909 18.0539H89.2392C87.8451 18.0539 87.0767 18.7102 87.0767 19.8151C87.0767 20.8907 87.785 21.6056 89.2974 21.6056C90.3653 21.6056 91.0479 21.516 91.7284 20.8595C92.1433 20.4712 92.2909 19.8443 92.2909 18.8878V18.0538V18.0539ZM77.9452 24.6184V15.2174C77.9452 13.097 76.6131 12.3822 75.3975 12.3822C74.1816 12.3822 72.8185 13.097 72.8185 15.2174V24.6184H68.9641V9.06728H72.7293V10.5006C73.7375 9.42467 75.1591 8.88952 76.5839 8.88952C78.1236 8.88952 79.3684 9.39719 80.2288 10.2621C81.4738 11.5156 81.7996 12.978 81.7996 14.6789V24.6184H77.9452ZM62.5269 24.6202V23.2751C61.4878 24.3214 60.5122 24.7705 58.7343 24.7705C56.9854 24.7705 55.7097 24.3214 54.7924 23.3979C53.9607 22.5309 53.5151 21.2772 53.5151 19.903C53.5151 17.4272 55.2055 15.397 58.7942 15.397H62.4377V14.6217C62.4377 12.9189 61.6079 12.1734 59.5638 12.1734C58.0793 12.1734 57.4004 12.5324 56.5994 13.4578L54.1373 11.0407C55.6514 9.36777 57.1328 8.88937 59.7131 8.88937C64.0391 8.88937 66.292 10.7419 66.292 14.3815V24.6201H62.5269V24.6202ZM62.4377 18.0539H59.3857C57.9917 18.0539 57.2217 18.7102 57.2217 19.8151C57.2217 20.8907 57.9318 21.6056 59.4439 21.6056C60.5121 21.6056 61.1928 21.516 61.8736 20.8595C62.2902 20.4712 62.4377 19.8443 62.4377 18.8878V18.0538V18.0539ZM29.8804 24.2057C29.6014 24.2057 29.2868 24.112 28.9397 23.9242C27.6172 23.2112 25.9715 22.2691 25.8154 22.1798C25.6368 22.0927 25.13 21.8043 25.13 21.3346L25.1375 12.3458C25.1571 12.2457 25.2353 12.0486 25.5354 11.8512C25.731 11.7218 28.7257 9.95856 29.0666 9.75799C29.4463 9.5364 30.3103 9.33456 30.8733 10.15L30.9409 10.2476L30.937 23.2688C30.9287 23.3275 30.8411 23.8515 30.3631 24.0945C30.2167 24.1688 30.0554 24.2058 29.8804 24.2058V24.2057ZM25.8833 21.305C25.9231 21.3613 26.0582 21.4566 26.1503 21.5001L26.1766 21.514C26.1938 21.5239 27.9211 22.5151 29.2954 23.2558C29.6149 23.4286 29.8794 23.4883 30.0207 23.4189C30.1293 23.366 30.1743 23.2272 30.1875 23.1754V10.4982C29.9077 10.1939 29.5518 10.3542 29.4423 10.4152C28.1151 11.1965 26.0841 12.3956 25.948 12.4859C25.9191 12.5045 25.8981 12.5207 25.8833 12.534V21.305ZM17.0884 33.9999C16.772 33.9999 16.5547 33.8758 16.4208 33.7604C15.9785 33.379 15.9678 32.6962 15.9681 32.6198C15.9754 32.2171 16.038 28.728 16.0547 28.4915C16.0813 28.1325 16.213 27.9678 16.2892 27.9013L16.3471 27.8601C16.3471 27.8601 23.3689 23.7841 24.1667 23.3229C24.5702 23.086 25.0734 23.3769 25.2378 23.4871C25.3935 23.5764 27.0358 24.5211 28.3141 25.3011C28.8591 25.6322 29.148 26.0155 29.173 26.4402C29.205 26.9841 28.7852 27.3297 28.7374 27.3674L28.694 27.3965L17.3674 33.9719L17.2988 33.9829C17.2242 33.9947 17.1542 34 17.0884 34L17.0884 33.9999ZM16.8173 28.4627C16.8128 28.4823 16.8081 28.51 16.8058 28.5467C16.7941 28.7091 16.7489 31.0764 16.721 32.6278C16.7221 32.7524 16.7694 33.0643 16.9114 33.1855C16.945 33.2136 17.0011 33.247 17.1186 33.2413L28.2863 26.7578C28.3231 26.7227 28.4301 26.6078 28.4212 26.4818C28.4103 26.3289 28.2291 26.1354 27.9246 25.95C26.5962 25.1396 24.8701 24.1488 24.8527 24.139L24.828 24.1234C24.7296 24.0571 24.5846 23.9958 24.5216 23.9916C23.684 24.4766 17.6447 27.982 16.8173 28.4626V28.4627ZM13.3015 33.6012L2.03444 27.0608C2.03444 27.0608 1.16882 26.3811 2.42195 25.6186C3.77151 24.7962 5.50193 23.8021 5.50193 23.8021C5.50193 23.8021 5.94293 23.5013 6.18844 23.6445C6.98464 24.1057 14.0059 28.1813 14.0059 28.1813C14.0059 28.1813 14.0923 28.2564 14.1105 28.5114C14.1274 28.7444 14.1966 32.6138 14.1966 32.6138C14.1966 32.6138 14.2007 33.7451 13.3015 33.6012V33.6012ZM17.2389 0.0126803L28.5052 6.55123C28.5052 6.55123 29.3727 7.23228 28.1186 7.99556C26.7706 8.81724 25.0385 9.81177 25.0385 9.81177C25.0385 9.81177 24.5975 10.1126 24.3539 9.96963C23.5556 9.50743 16.5346 5.43212 16.5346 5.43212C16.5346 5.43212 16.448 5.35701 16.4293 5.10273C16.4129 4.8697 16.344 1.00016 16.344 1.00016C16.344 1.00016 16.3398 -0.131805 17.2389 0.0127545V0.0126803ZM13.3015 0.0126803L2.03444 6.55123C2.03444 6.55123 1.16882 7.23228 2.42195 7.99556C3.77151 8.81724 5.50193 9.81177 5.50193 9.81177C5.50193 9.81177 5.94293 10.1126 6.18844 9.96963C6.98464 9.50743 14.0059 5.43212 14.0059 5.43212C14.0059 5.43212 14.0923 5.35701 14.1105 5.10273C14.1274 4.8697 14.1966 1.00016 14.1966 1.00016C14.1966 1.00016 14.2007 -0.131805 13.3015 0.0127545V0.0126803Z" fill="white"/>
</svg>
