<svg width="150" height="47" viewBox="0 0 150 47" fill="none" xmlns="http://www.w3.org/2000/svg">
<path fill-rule="evenodd" clip-rule="evenodd" d="M14.7572 21.9921L9.71055 16.9522C9.312 16.5542 8.66022 16.5542 8.26221 16.9522L3.21552 21.9921C2.81697 22.3902 2.81697 23.0411 3.21552 23.4385L8.26221 28.4785C8.66076 28.8765 9.31254 28.8765 9.71055 28.4785L14.7572 23.4385C15.1558 23.0405 15.1558 22.3896 14.7572 21.9921ZM12.1778 30.6369L16.3178 26.5024C16.6448 26.1759 17.1794 26.1759 17.5064 26.5024L21.6465 30.6369C21.9734 30.9635 21.9734 31.4974 21.6465 31.8239L17.5064 35.9584C17.1794 36.285 16.6448 36.285 16.3178 35.9584L12.1778 31.8239C11.8508 31.4974 11.8508 30.9635 12.1778 30.6369ZM16.2002 28.8754L14.5539 30.5194C14.3576 30.7155 14.2595 30.9738 14.2595 31.2304C14.2595 31.4877 14.3576 31.7454 14.5539 31.9415L16.2002 33.5855C16.3964 33.7815 16.6546 33.8796 16.9121 33.8796C17.1697 33.8796 17.4278 33.7815 17.6241 33.5855L19.2704 31.9415C19.4666 31.7454 19.5648 31.4877 19.5648 31.2304C19.5648 30.9738 19.4666 30.7155 19.2704 30.5194L17.6241 28.8754C17.4278 28.6794 17.1697 28.5813 16.9121 28.5813C16.6551 28.5813 16.3964 28.6794 16.2002 28.8754ZM17.148 29.3503L18.7943 30.9943C18.9244 31.1243 18.9244 31.3366 18.7943 31.466L17.148 33.1101C17.0179 33.24 16.8053 33.24 16.6757 33.1101L15.0294 31.466C14.8993 31.336 14.8993 31.1238 15.0294 30.9943L16.6757 29.3503C16.8058 29.2203 17.0184 29.2203 17.148 29.3503ZM20.3749 28.4053L21.024 27.7571C21.1991 27.5822 21.1991 27.2985 21.024 27.1241C20.8488 26.9492 20.5647 26.9492 20.3901 27.1241L19.741 27.7723L18.977 27.0093L19.6445 26.3427C19.8196 26.1678 19.8196 25.884 19.6445 25.7097C19.4694 25.5348 19.1852 25.5348 19.0106 25.7097L18.3431 26.3763L17.8605 25.8943C17.3324 25.3723 16.493 25.3723 15.9648 25.8943L15.4822 26.3763L14.8516 25.747C14.6764 25.5721 14.3923 25.5721 14.2177 25.747C14.0426 25.9219 14.0426 26.2057 14.2177 26.3801L14.8483 27.0099L14.0843 27.7729L13.4352 27.1247C13.2601 26.9497 12.976 26.9497 12.8014 27.1247C12.6262 27.2996 12.6262 27.5833 12.8014 27.7577L13.4504 28.4059L12.6864 29.1689L12.0189 28.5023C11.8437 28.3274 11.5596 28.3274 11.385 28.5023C11.2099 28.6772 11.2099 28.9609 11.385 29.1353L12.0525 29.8019L11.558 30.2963C11.0526 30.8167 11.0542 31.6241 11.5461 32.1527C11.712 32.3232 11.8839 32.4906 12.0525 32.659L11.4219 33.2888C11.2467 33.4637 11.2467 33.7474 11.4219 33.9218C11.597 34.0967 11.8812 34.0967 12.0558 33.9218L12.6864 33.292L13.4504 34.055L12.8014 34.7032C12.6262 34.8781 12.6262 35.1619 12.8014 35.3362C12.9765 35.5111 13.2606 35.5111 13.4352 35.3362L14.0843 34.688L14.8483 35.451L14.1808 36.1176C14.0057 36.2926 14.0057 36.5763 14.1808 36.7507C14.356 36.9256 14.6401 36.9256 14.8147 36.7507L15.4822 36.0841L15.9648 36.566C16.493 37.088 17.3324 37.088 17.8605 36.566L18.3431 36.0841L18.9737 36.7139C19.1489 36.8888 19.433 36.8888 19.6076 36.7139C19.7828 36.539 19.7828 36.2552 19.6076 36.0808L18.977 35.451L19.741 34.688L20.3901 35.3362C20.5652 35.5111 20.8494 35.5111 21.024 35.3362C21.1991 35.1613 21.1991 34.8776 21.024 34.7032L20.3749 34.055L21.1389 33.292L21.8064 33.9586C21.9816 34.1335 22.2657 34.1335 22.4403 33.9586C22.6155 33.7837 22.6155 33.5 22.4403 33.3256L21.7728 32.659L22.2673 32.1646C22.7792 31.6371 22.7722 30.8054 22.2549 30.2833L21.7723 29.8014L22.4024 29.1716C22.5775 28.9967 22.5775 28.7129 22.4024 28.5386C22.2272 28.3636 21.9431 28.3636 21.7685 28.5386L21.1384 29.1683L20.3744 28.4053H20.3749ZM51.6869 44.0466V24.5557H56.8388V44.0466H51.6869ZM54.2626 16.7573C55.7722 16.7573 56.9955 17.9795 56.9955 19.4865C56.9955 20.9941 55.7717 22.2158 54.2626 22.2158C52.753 22.2158 51.5297 20.9936 51.5297 19.4865C51.5297 17.9789 52.7535 16.7573 54.2626 16.7573ZM62.1723 44.0466V17.1575H70.8906C74.1934 17.1575 76.3434 17.2891 77.346 17.5582C78.8882 17.9649 80.1787 18.841 81.2193 20.1932C82.2599 21.5454 82.7799 23.2918 82.7799 25.4324C82.7799 27.0851 82.4789 28.4682 81.8835 29.5951C81.2817 30.7214 80.5236 31.6041 79.6023 32.249C78.681 32.8875 77.7408 33.3131 76.7881 33.5194C75.4905 33.7761 73.6165 33.9077 71.1595 33.9077H67.6246V44.0476H62.1718L62.1723 44.0466ZM67.6252 21.7013V29.3628H70.5896C72.7266 29.3628 74.1495 29.2187 74.8707 28.9371C75.5913 28.6555 76.1553 28.2174 76.563 27.6104C76.9702 27.0093 77.1774 26.3145 77.1774 25.5136C77.1774 24.5308 76.8889 23.7234 76.3185 23.0849C75.7421 22.4465 75.0214 22.0458 74.1376 21.8833C73.4917 21.7642 72.1947 21.7019 70.2388 21.7019H67.6252V21.7013ZM86.0144 34.0631C86.0144 32.3481 86.4341 30.6895 87.2805 29.0871C88.1264 27.4783 89.3237 26.2582 90.8718 25.4129C92.4199 24.5681 94.1437 24.1425 96.0552 24.1425C99.0071 24.1425 101.42 25.0999 103.307 27.0153C105.193 28.9366 106.133 31.3528 106.133 34.2819C106.133 37.2364 105.181 39.6835 103.282 41.6238C101.376 43.5641 98.9822 44.5345 96.0926 44.5345C94.3064 44.5345 92.6016 44.1278 90.9781 43.3204C89.3611 42.513 88.1264 41.3298 87.28 39.7653C86.4341 38.2068 86.0138 36.3039 86.0138 34.0631H86.0144ZM91.3165 34.3388C91.3165 36.2731 91.7741 37.7563 92.6889 38.783C93.6102 39.8157 94.7386 40.329 96.0861 40.329C97.4276 40.329 98.5555 39.8157 99.4643 38.783C100.373 37.7563 100.831 36.2606 100.831 34.3014C100.831 32.3925 100.373 30.9212 99.4643 29.8951C98.5555 28.8624 97.427 28.349 96.0861 28.349C94.7386 28.349 93.6102 28.8624 92.6889 29.8951C91.7736 30.9218 91.3165 32.405 91.3165 34.3393V34.3388ZM110.188 44.0466V17.1575H115.34V44.0466H110.188ZM120.636 44.0466V17.1575H125.788V44.0466H120.636ZM129.881 34.0631C129.881 32.3481 130.301 30.6895 131.147 29.0871C131.993 27.4783 133.19 26.2582 134.738 25.4129C136.287 24.5681 138.01 24.1425 139.922 24.1425C142.874 24.1425 145.287 25.0999 147.173 27.0153C149.06 28.9366 150 31.3528 150 34.2819C150 37.2364 149.047 39.6835 147.148 41.6238C145.243 43.5641 142.849 44.5345 139.959 44.5345C138.173 44.5345 136.468 44.1278 134.845 43.3204C133.228 42.513 131.993 41.3298 131.147 39.7653C130.301 38.2068 129.88 36.3039 129.88 34.0631H129.881ZM135.183 34.3388C135.183 36.2731 135.641 37.7563 136.556 38.783C137.477 39.8157 138.605 40.329 139.953 40.329C141.294 40.329 142.422 39.8157 143.331 38.783C144.24 37.7563 144.697 36.2606 144.697 34.3014C144.697 32.3925 144.24 30.9212 143.331 29.8951C142.422 28.8624 141.294 28.349 139.953 28.349C138.605 28.349 137.477 28.8624 136.556 29.8951C135.64 30.9218 135.183 32.405 135.183 34.3393V34.3388ZM1.92172 36.9413L6.96841 31.9014C7.36696 31.5034 7.36696 30.8525 6.96841 30.455L1.92172 25.4151C1.70862 25.2023 1.42285 25.1032 1.14197 25.1183C0.404516 27.0136 0 29.0752 0 31.2304C0 33.3456 0.389333 35.3698 1.10022 37.2359C1.39412 37.2635 1.69723 37.1655 1.92118 36.9418L1.92172 36.9413ZM9.70946 45.3451L14.7561 40.3052C15.1547 39.9072 15.1547 39.2563 14.7561 38.8588L9.70946 33.8189C9.31091 33.4209 8.65913 33.4209 8.26112 33.8189L3.21444 38.8588C2.81589 39.2568 2.81589 39.9077 3.21444 40.3052L8.26112 45.3451C8.65968 45.7431 9.31146 45.7431 9.70946 45.3451ZM22.6795 46.8034L17.6328 41.7635C17.2342 41.3655 16.5824 41.3655 16.1844 41.7635L11.1377 46.8034C11.0917 46.8495 11.0504 46.8993 11.0152 46.9513L22.834 47C22.7917 46.9296 22.7407 46.8635 22.68 46.8034H22.6795ZM30.6028 38.8583L25.5561 33.8184C25.1575 33.4203 24.5057 33.4203 24.1077 33.8184L19.061 38.8583C18.6625 39.2563 18.6625 39.9072 19.061 40.3047L24.1077 45.3446C24.5063 45.7426 25.1581 45.7426 25.5561 45.3446L30.6028 40.3047C31.0013 39.9067 31.0013 39.2557 30.6028 38.8583ZM31.8955 25.4145L26.8488 30.4545C26.4502 30.8525 26.4502 31.5034 26.8488 31.9008L31.8955 36.9408C32.1189 37.1639 32.4225 37.2619 32.7164 37.2348C33.0141 36.4534 33.2554 35.6444 33.4355 34.8126C33.9273 32.3351 33.9403 29.9438 33.4355 27.6467C33.2473 26.7765 32.9919 25.9317 32.6752 25.1172C32.3949 25.1021 32.1086 25.2012 31.8955 25.414V25.4145ZM24.1072 16.9517L19.0605 21.9916C18.662 22.3896 18.662 23.0405 19.0605 23.438L24.1072 28.4779C24.5057 28.8759 25.1575 28.8759 25.5555 28.4779L30.6022 23.438C31.0008 23.04 31.0008 22.3891 30.6022 21.9916L25.5555 16.9517C25.157 16.5537 24.5052 16.5537 24.1072 16.9517ZM5.26521 3.4603L10.9745 13.336H16.9116H22.8486L28.558 3.4603L20.9204 7.22873L16.9116 0L12.9028 7.22873L5.26521 3.4603ZM11.1377 15.9493L16.1844 20.9892C16.583 21.3873 17.2348 21.3873 17.6328 20.9892L22.6795 15.9493C22.8112 15.8178 22.8991 15.6585 22.9441 15.4901L10.8791 15.5118C10.9252 15.6721 11.0114 15.8237 11.1377 15.9493Z" fill="#070707" fill-opacity="0.3"/>
</svg>
