<svg width="134" height="47" viewBox="0 0 134 47" fill="none" xmlns="http://www.w3.org/2000/svg">
<path d="M50.4336 15.0547H57.519L60.2181 25.5759L62.9251 15.0547H69.9783V32.3459H65.5839V19.1641L62.1929 32.3459H58.2113L54.8283 19.1641V32.3459H50.4336V15.0547Z" fill="#070707" fill-opacity="0.3"/>
<path d="M72.5117 15.0527H77.9015V32.3439H72.5117V15.0527Z" fill="#070707" fill-opacity="0.3"/>
<path d="M80.6836 15.0527H85.697L92.2161 24.5997V15.0527H97.2902V32.3439H92.2161L85.7335 22.849V32.3439H80.6836V15.0527Z" fill="#070707" fill-opacity="0.3"/>
<path d="M99.7539 15.0547H114.127V18.7494H105.144V21.5027H113.471V25.0284H105.144V28.4334H114.394V32.3459H99.7539V15.0547Z" fill="#070707" fill-opacity="0.3"/>
<path d="M116.254 32.3455V15.0547H125.205C126.864 15.0547 128.135 15.1954 129.009 15.4814C129.887 15.7633 130.595 16.2904 131.133 17.0553C131.671 17.8242 131.938 18.7619 131.938 19.8648C131.938 20.8228 131.732 21.6518 131.319 22.3479C130.911 23.0483 130.344 23.6116 129.62 24.0467C129.163 24.3202 128.531 24.5496 127.734 24.7307C128.373 24.9439 128.839 25.1533 129.13 25.3665C129.324 25.5073 129.611 25.8133 129.988 26.2762C130.36 26.7392 130.611 27.0973 130.737 27.3509L133.346 32.3459H127.277L124.408 27.0732C124.044 26.3891 123.72 25.9461 123.437 25.7408C123.048 25.4752 122.607 25.3424 122.118 25.3424H121.644V32.3459H116.254L116.254 32.3455ZM121.644 22.0819H123.914C124.157 22.0819 124.634 22.0016 125.338 21.8446C125.695 21.7763 125.986 21.5952 126.208 21.3013C126.435 21.0073 126.548 20.6734 126.548 20.2949C126.548 19.7354 126.37 19.3048 126.014 19.0071C125.658 18.7053 124.99 18.5562 124.007 18.5562H121.644V22.0819Z" fill="#070707" fill-opacity="0.3"/>
<path fill-rule="evenodd" clip-rule="evenodd" d="M12.4627 9.58889C12.5241 9.58889 12.5852 9.5904 12.6466 9.59115C13.9247 4.09621 18.8759 0 24.7887 0C31.6716 0 37.2514 5.55003 37.2514 12.3962C37.2514 12.4524 37.2499 12.5082 37.2491 12.5644C39.0362 12.9542 40.6792 13.7262 42.0884 14.7888C41.7941 14.7722 41.4891 14.7639 41.1734 14.7639C39.3647 14.7639 37.9403 14.9891 36.9001 15.44C35.8603 15.8909 35.0834 16.5105 34.5652 17.3036C34.0474 18.0926 33.7883 18.9295 33.7883 19.8151C33.7883 21.1674 34.294 22.2782 35.3057 23.1476C36.3091 24.0211 37.9843 24.7214 40.3396 25.2447C41.7762 25.5628 42.6908 25.8926 43.0831 26.2469C43.4757 26.6012 43.6699 27.0034 43.6699 27.4502C43.6699 27.9211 43.4636 28.3358 43.0467 28.6938C42.6339 29.0519 42.0433 29.2293 41.2781 29.2293C40.2505 29.2293 39.4615 28.8791 38.9069 28.1829C38.567 27.7562 38.3405 27.1283 38.2312 26.3073L33.1328 26.6254C33.2827 28.3682 33.926 29.8051 35.0629 30.9359C36.1998 32.0667 38.2476 32.6342 41.2015 32.6342C42.4344 32.6342 43.5106 32.5048 44.4324 32.2459C42.1533 35.1789 38.5818 37.0681 34.5668 37.0681C34.415 37.0681 34.2644 37.0651 34.1138 37.0598C32.9678 42.7295 27.9335 47 21.8962 47C15.0134 47 9.43357 41.45 9.43357 34.6038C9.43357 34.4069 9.43888 34.2107 9.44799 34.016C8.18515 33.7039 6.99817 33.2002 5.92045 32.5376C6.46064 32.6021 7.0547 32.6346 7.703 32.6346C9.36226 32.6346 10.7256 32.2765 11.7901 31.5641C12.8541 30.8476 13.5624 29.9741 13.9144 28.9478C14.2664 27.9173 14.4406 26.4163 14.4406 24.4441V15.054H9.05081V25.696C9.05081 26.7465 8.90932 27.4951 8.63012 27.9377C8.34675 28.3803 7.90557 28.6018 7.30279 28.6018C6.9223 28.6018 6.63097 28.5293 6.4246 28.3803C6.12113 28.1509 5.9068 27.8569 5.78123 27.4868C5.65567 27.1204 5.58701 26.5571 5.57904 25.8002L0.830388 26.442C0.294372 25.0591 0 23.5566 0 21.9854C0 15.1393 5.5798 9.58926 12.4627 9.58926V9.58889ZM46.1349 20.0528C46.4843 20.9176 46.7388 21.8311 46.8853 22.7797C46.6129 22.5861 46.3113 22.4054 45.9809 22.2379C44.9692 21.7224 43.2902 21.2115 40.9432 20.7086C39.9963 20.5112 39.3974 20.3022 39.1504 20.0728C38.8955 19.8513 38.7661 19.606 38.7661 19.3321C38.7661 18.9536 38.9239 18.6318 39.2395 18.3703C39.5552 18.1084 40.0286 17.9756 40.6518 17.9756C41.4086 17.9756 42.0035 18.1526 42.4363 18.511C42.8653 18.8654 43.1483 19.437 43.2818 20.2218L46.1349 20.0535V20.0528ZM26.9715 29.4945H20.8856L20.0116 32.3441H14.5286L21.0719 15.0533H26.9514L33.4663 32.3441H27.8417L26.9719 29.4945H26.9715ZM25.8346 25.7515L23.9367 19.537L22.0309 25.7515H25.8346Z" fill="#070707" fill-opacity="0.3"/>
</svg>
