<svg width="93" height="60" viewBox="0 0 93 60" fill="none" xmlns="http://www.w3.org/2000/svg">
<path d="M91.0845 9.23645C90.012 5.62521 86.8711 2.77788 82.8876 1.80562C75.6101 0 46.4998 0 46.4998 0C46.4998 0 17.3895 0 10.112 1.73617C6.20508 2.70843 2.98763 5.62521 1.91515 9.23645C0 15.8339 0 29.515 0 29.515C0 29.515 0 43.2655 1.91515 49.7935C2.98763 53.4047 6.12847 56.2521 10.112 57.2243C17.4662 59.0299 46.4998 59.0299 46.4998 59.0299C46.4998 59.0299 75.6101 59.0299 82.8876 57.2938C86.8711 56.3215 90.012 53.4742 91.0845 49.8629C92.9996 43.2655 92.9996 29.5844 92.9996 29.5844C92.9996 29.5844 93.0762 15.8339 91.0845 9.23645Z" fill="#FF0000"/>
<path d="M37.2305 16.876V42.1547L61.4379 29.5153L37.2305 16.876Z" fill="white"/>
</svg>
