<svg width="48" height="45" viewBox="0 0 48 45" fill="none" xmlns="http://www.w3.org/2000/svg">
<path d="M11.6621 25.6378L16.9116 42.2152C16.9116 42.2152 17.5679 43.7663 18.2707 43.7663C18.9735 43.7663 29.4264 31.3595 29.4264 31.3595L41.0503 5.74414L11.8494 21.3586L11.6621 25.6378Z" fill="#C8DAEA"/>
<path d="M18.6211 29.8892L17.6134 42.1083C17.6134 42.1083 17.1915 45.8524 20.4724 42.1083C23.7533 38.3642 26.8937 35.4771 26.8937 35.4771" fill="#A9C6D8"/>
<path d="M11.7558 26.2299L0.957419 22.2157C0.957419 22.2157 -0.333106 21.6184 0.0824428 20.2638C0.167986 19.9844 0.340547 19.7467 0.856757 19.3383C3.24939 17.4355 45.1424 0.256097 45.1424 0.256097C45.1424 0.256097 46.3252 -0.19866 47.0229 0.10381C47.1954 0.164762 47.3507 0.276923 47.4729 0.428819C47.595 0.580715 47.6795 0.766893 47.7179 0.968313C47.7933 1.32407 47.8248 1.69008 47.8116 2.05578C47.8082 2.37213 47.7747 2.66535 47.7492 3.12515C47.4941 7.82207 39.8586 42.8767 39.8586 42.8767C39.8586 42.8767 39.4018 44.928 37.765 44.9982C37.3628 45.013 36.962 44.9353 36.5867 44.7696C36.2114 44.604 35.8691 44.3538 35.5803 44.034C32.3684 40.8818 21.2669 32.3697 18.8138 30.4977C18.7585 30.4547 18.7119 30.3986 18.6772 30.3333C18.6425 30.268 18.6204 30.195 18.6125 30.1191C18.5782 29.9218 18.7663 29.6774 18.7663 29.6774C18.7663 29.6774 38.0969 10.0736 38.6112 8.01559C38.6511 7.85615 38.5006 7.77748 38.2986 7.84732C37.0147 8.38621 14.7579 24.4222 12.3015 26.192C12.1247 26.2531 11.9378 26.266 11.7558 26.2299Z" fill="white"/>
</svg>
