<svg width="16" height="16" viewBox="0 0 16 16" fill="none" xmlns="http://www.w3.org/2000/svg">
<path d="M7.66634 14.5002C3.89967 14.5002 0.833008 11.4335 0.833008 7.66683C0.833008 3.90016 3.89967 0.833496 7.66634 0.833496C11.433 0.833496 14.4997 3.90016 14.4997 7.66683C14.4997 11.4335 11.433 14.5002 7.66634 14.5002ZM7.66634 1.8335C4.44634 1.8335 1.83301 4.4535 1.83301 7.66683C1.83301 10.8802 4.44634 13.5002 7.66634 13.5002C10.8863 13.5002 13.4997 10.8802 13.4997 7.66683C13.4997 4.4535 10.8863 1.8335 7.66634 1.8335Z" fill="#0D61DB"/>
<path d="M14.6666 15.1666C14.54 15.1666 14.4133 15.12 14.3133 15.02L12.98 13.6866C12.7866 13.4933 12.7866 13.1733 12.98 12.98C13.1733 12.7866 13.4933 12.7866 13.6866 12.98L15.02 14.3133C15.2133 14.5066 15.2133 14.8266 15.02 15.02C14.92 15.12 14.7933 15.1666 14.6666 15.1666Z" fill="#0D61DB"/>
</svg>
