<svg width="1306" height="1207" viewBox="0 0 1306 1207" fill="none" xmlns="http://www.w3.org/2000/svg">
<path d="M662.967 244.297C649.337 220.922 624.277 206.633 597.238 206.633H266.324C215.251 206.633 167.841 234.111 142.341 278.223L10.2979 506.698C-5.23657 533.663 -3.18485 566.564 16.3798 592.064C24.0005 601.883 34.0393 609.724 45.3971 614.633C82.8411 630.681 123.509 615.366 142.121 582.978L259.656 379.491C267.057 366.814 280.613 358.9 295.341 358.9H597.165C655.932 358.9 692.57 295.077 662.893 244.37L662.967 244.297Z" fill="white" fill-opacity="0.1"/>
<path d="M853.446 573.24L778.851 444.201C768.226 425.663 748.295 414.085 726.825 414.085L577.855 414.305C556.458 414.305 536.454 425.736 525.829 444.348L451.454 573.24C440.609 591.706 440.609 614.714 451.454 633.253L525.829 762.439C536.454 781.051 556.458 792.482 577.855 792.482H578.001L726.752 792.335C748.221 792.335 768.006 780.831 778.778 762.365L853.372 633.18C863.997 614.641 863.997 591.633 853.372 573.167L853.446 573.24Z" fill="white" fill-opacity="0.1"/>
<path d="M1188.99 324.174L1056.88 95.5527C1043.1 71.6647 1018.63 57.4492 990.93 57.4492C963.451 57.4492 938.757 71.6647 924.981 95.5527C911.425 118.928 911.425 148.238 924.981 171.613L1043.1 376.126C1050.14 388.144 1050.14 403.385 1043.1 415.549L891.055 679.049C877.279 702.937 877.279 731.368 891.055 755.109C904.757 778.997 929.451 793.213 957.003 793.213H957.149C984.188 793.213 1009.47 778.704 1023.1 755.109L1189.14 467.575C1214.64 423.389 1214.64 368.506 1189.14 324.32L1188.99 324.174Z" fill="white" fill-opacity="0.1"/>
<path d="M1294.87 623.794C1281.32 599.906 1256.55 585.69 1228.48 585.69C1201.52 585.69 1176.16 600.272 1162.54 623.647L1110.58 713.777L1045.15 827.135C1043.39 830.432 1041.12 833.217 1038.63 835.781C1034.67 839.518 1030.27 842.449 1025.36 844.574C1022.07 845.893 1018.69 846.846 1015.1 847.359C1013.27 847.579 1011.44 847.652 1009.53 847.652H705C646.746 847.652 610.034 910.523 638.759 961.303C652.241 985.191 677.595 999.919 705 999.919H1038.99C1089.99 999.919 1137.62 972.368 1163.12 928.255L1262.12 756.716C1262.26 756.497 1262.26 756.497 1262.48 756.35L1295.38 698.902C1308.79 675.234 1308.65 647.242 1295.02 623.721L1294.87 623.794Z" fill="white" fill-opacity="0.1"/>
<path d="M256.908 805.15C256.908 804.93 256.908 804.783 257.054 804.71C257.054 804.197 257.054 803.684 257.274 803.245L257.421 802.439L257.567 801.926L258.227 799.654L258.446 799.508C258.446 798.995 258.593 798.482 258.886 798.042C258.886 797.529 259.253 797.016 259.399 796.43C259.399 795.917 259.692 795.404 259.692 795.111C260.498 793.279 261.378 791.814 262.184 790.348L413.352 528.46C420.02 516.662 423.61 503.619 423.61 490.356C423.61 448.369 389.464 414.149 347.403 414.149C320.218 414.149 295.084 428.731 281.455 452.253L115.632 739.641C90.1316 783.827 90.1316 838.71 115.485 882.896L214.774 1054.58L247.968 1111.96C249.14 1114.15 250.459 1116.06 252.071 1118.04C253.171 1119.65 254.49 1121.34 255.809 1122.95C261.158 1129.1 267.606 1134.38 274.494 1138.63C279.184 1141.41 284.093 1143.54 289.222 1145.3C291.787 1146.1 294.425 1146.98 297.063 1147.42C302.485 1148.52 307.908 1149.18 313.403 1149.18C340.735 1149.18 365.429 1135.11 379.132 1111.59C383.602 1104.04 386.679 1096.06 388.291 1087.85C391.076 1074.29 390.123 1060.22 385.141 1047.11C383.822 1043.08 381.916 1038.97 379.425 1034.72L261.964 831.236C260.498 828.745 259.399 826.18 258.74 823.396C257.714 820.904 257.274 818.266 256.908 815.555C256.395 811.964 256.541 808.887 256.908 805.883V805.077V805.15Z" fill="white" fill-opacity="0.1"/>
<path d="M968.573 357.88L803.336 71.6639C777.836 27.3319 730.207 0 679.207 0H414.534C372.84 0 338.84 33.8535 338.84 75.7673C338.84 88.8104 342.211 101.927 348.952 113.504C360.603 133.582 380.314 147.211 402.736 150.509C406.327 151.168 410.284 151.461 414.461 151.461H649.676C659.349 151.461 668.435 154.905 675.982 161.061C677.008 161.867 677.814 162.746 678.767 163.552L680.525 165.457C681.185 166.19 681.698 166.923 682.357 167.729C683.383 169.048 684.263 170.513 685.288 171.979L836.457 433.794C850.379 457.682 874.853 471.897 902.478 471.897C929.957 471.897 954.651 457.682 968.427 433.794C981.983 410.272 981.983 381.181 968.427 357.733L968.573 357.88Z" fill="white" fill-opacity="0.1"/>
<path d="M955.652 1093.35C944.074 1073.27 924.216 1059.64 901.867 1056.34C898.277 1055.68 894.32 1055.39 890.07 1055.39H654.927C645.255 1055.39 636.095 1051.95 628.548 1045.72C627.522 1044.91 626.716 1044.11 625.763 1043.23L623.932 1041.32C622.246 1039.34 620.634 1037.22 619.169 1034.73L468.074 772.913C454.151 749.025 429.604 734.81 401.979 734.81C374.5 734.81 349.806 749.025 336.03 772.913C322.474 796.435 322.474 825.525 336.03 848.973L501.194 1135.41C526.694 1179.59 574.324 1207 625.324 1207H889.996C931.69 1207 965.69 1172.93 965.69 1131.09C965.69 1118.04 962.32 1104.93 955.578 1093.35H955.652Z" fill="white" fill-opacity="0.1"/>
</svg>
