<svg width="118" height="56" viewBox="0 0 118 56" fill="none" xmlns="http://www.w3.org/2000/svg">
<path d="M9.87306 31.3763L89.0713 3.9381C103.42 -0.844959 114.79 0.579715 116.472 5.56142L116.888 6.79366C117.829 9.58093 112.564 13.8487 109.625 14.8265L88.224 21.9622M70.684 27.8099L48.5752 35.1816C39.8409 38.093 17.6513 42.2584 11.096 40.6879M8.29629 36.5753L7.95176 35.5448C7.37134 33.8004 8.24042 31.9474 9.86995 31.3825" stroke="#0D61DB" stroke-width="2" stroke-miterlimit="22.9256" stroke-linecap="round" stroke-linejoin="round"/>
<path fill-rule="evenodd" clip-rule="evenodd" d="M6.95684 42.0656L19.8689 37.7606C21.1167 37.3447 21.7995 35.9821 21.3836 34.7343C20.9677 33.4866 19.6051 32.8037 18.3573 33.2196L5.44525 37.5247C4.1975 37.9406 3.51465 39.3032 3.93057 40.551C4.34649 41.7987 5.70908 42.4816 6.95684 42.0656Z" stroke="#0D61DB" stroke-width="2" stroke-miterlimit="22.9256" stroke-linecap="round" stroke-linejoin="round"/>
<path d="M32.6133 27.9068L43.8089 24.1729" stroke="#0D61DB" stroke-width="2" stroke-miterlimit="22.9256" stroke-linecap="round" stroke-linejoin="round"/>
<path d="M47.4121 22.9717L50.755 21.8574" stroke="#0D61DB" stroke-width="2" stroke-miterlimit="22.9256" stroke-linecap="round" stroke-linejoin="round"/>
<path fill-rule="evenodd" clip-rule="evenodd" d="M75.1989 28.856L88.9955 24.256L86.1928 15.8477L72.3961 20.4476C70.0837 21.2173 68.8235 23.7408 69.5933 26.0532C70.363 28.3655 72.8865 29.6257 75.1989 28.856Z" stroke="#0D61DB" stroke-width="2" stroke-miterlimit="22.9256" stroke-linecap="round" stroke-linejoin="round"/>
<path d="M11.4228 30.842L1 19.7146L9.70324 16.8125C15.4361 21.0989 22.5936 23.2779 30.0087 24.4046" stroke="#0D61DB" stroke-width="2" stroke-miterlimit="22.9256" stroke-linecap="round" stroke-linejoin="round"/>
<path d="M105.719 6.58461L114.996 3.49316" stroke="#0D61DB" stroke-width="2" stroke-miterlimit="22.9256" stroke-linecap="round" stroke-linejoin="round"/>
<path d="M19.0762 54.4219H54.364" stroke="#0D61DB" stroke-width="2" stroke-miterlimit="22.9256" stroke-linecap="round" stroke-linejoin="round"/>
<path d="M59.4707 54.4219H65.4922" stroke="#0D61DB" stroke-width="2" stroke-miterlimit="22.9256" stroke-linecap="round" stroke-linejoin="round"/>
</svg>
