<svg width="82" height="89" viewBox="0 0 82 89" fill="none" xmlns="http://www.w3.org/2000/svg">
<path fill-rule="evenodd" clip-rule="evenodd" d="M27.4544 36.8916H55.2978C58.0411 36.8916 60.2855 39.136 60.2855 41.8792C60.2855 44.6225 58.0411 46.8669 55.2978 46.8669H27.4544C24.7112 46.8669 22.4668 44.6225 22.4668 41.8792C22.4668 39.136 24.7112 36.8916 27.4544 36.8916Z" stroke="#0D61DB" stroke-width="2" stroke-miterlimit="22.9256" stroke-linecap="round" stroke-linejoin="round"/>
<path fill-rule="evenodd" clip-rule="evenodd" d="M27.4544 51.9873H55.2978C58.0411 51.9873 60.2855 54.2317 60.2855 56.9749C60.2855 59.7182 58.0411 61.9626 55.2978 61.9626H27.4544C24.7112 61.9626 22.4668 59.7182 22.4668 56.9749C22.4668 54.2317 24.7112 51.9873 27.4544 51.9873Z" stroke="#0D61DB" stroke-width="2" stroke-miterlimit="22.9256" stroke-linecap="round" stroke-linejoin="round"/>
<path d="M27 57L56 57" stroke="#0D61DB" stroke-width="2" stroke-miterlimit="22.9256" stroke-linecap="round" stroke-linejoin="round"/>
<path d="M28.123 46.8672V51.9873" stroke="#0D61DB" stroke-width="2" stroke-miterlimit="22.9256" stroke-linecap="round" stroke-linejoin="round"/>
<path d="M54.6289 46.8672V51.9873" stroke="#0D61DB" stroke-width="2" stroke-miterlimit="22.9256" stroke-linecap="round" stroke-linejoin="round"/>
<path d="M2.05188 39.077L37.9129 2.16707C38.7178 1.3389 39.8117 0.947667 40.8847 1.00577C41.9577 0.946892 43.0508 1.3389 43.8557 2.16707L79.7167 39.077C81.1747 40.5777 81.1058 43.0095 79.5935 44.4536C78.0813 45.8984 75.6734 45.8302 74.217 44.3304L42.7688 11.9618C41.8941 11.0609 39.8768 11.0616 39.0021 11.9618L7.55316 44.3304C6.09591 45.8302 3.68886 45.8984 2.17661 44.4536C0.664356 43.0087 0.595406 40.5777 2.05343 39.077" stroke="#0D61DB" stroke-width="2" stroke-miterlimit="22.9256" stroke-linecap="round" stroke-linejoin="round"/>
<path fill-rule="evenodd" clip-rule="evenodd" d="M39.5988 78.7764H43.1509C45.5216 78.7764 47.4607 80.7155 47.4607 83.0861C47.4607 85.4568 45.5216 87.3959 43.1509 87.3959H39.5988C37.2282 87.3959 35.2891 85.4568 35.2891 83.0861C35.2891 80.7155 37.2282 78.7764 39.5988 78.7764Z" stroke="#0D61DB" stroke-width="2" stroke-miterlimit="22.9256" stroke-linecap="round" stroke-linejoin="round"/>
<path d="M41.377 78.7764V72.7568" stroke="#0D61DB" stroke-width="2" stroke-miterlimit="22.9256" stroke-linecap="round" stroke-linejoin="round"/>
<path d="M7.47266 82.9727H35.2905" stroke="#0D61DB" stroke-width="2" stroke-miterlimit="22.9256" stroke-linecap="round" stroke-linejoin="round"/>
<path d="M47.4629 82.9727H75.2815" stroke="#0D61DB" stroke-width="2" stroke-miterlimit="22.9256" stroke-linecap="round" stroke-linejoin="round"/>
<path d="M18.9057 72.7561H63.8456C66.7616 72.7561 69.147 70.3708 69.147 67.4547V39.1147L42.7663 11.9616C41.8916 11.0606 39.8742 11.0614 38.9996 11.9616L13.6035 38.1006V67.4547C13.6035 70.3708 15.9889 72.7561 18.9049 72.7561" stroke="#0D61DB" stroke-width="2" stroke-miterlimit="22.9256" stroke-linecap="round" stroke-linejoin="round"/>
<path d="M27 42L46 42" stroke="#0D61DB" stroke-width="2" stroke-miterlimit="22.9256" stroke-linecap="round" stroke-linejoin="round"/>
<path d="M52 41.8789H56.2648" stroke="#0D61DB" stroke-width="2" stroke-miterlimit="22.9256" stroke-linecap="round" stroke-linejoin="round"/>
</svg>
