<svg width="72" height="67" viewBox="0 0 72 67" fill="none" xmlns="http://www.w3.org/2000/svg">
<path d="M64.0808 23.9279C57.8593 23.9279 55.3156 19.5206 58.4092 14.1148C60.1967 10.9815 59.1311 6.98738 56.0031 5.19692L50.0565 1.78815C47.3411 0.16985 43.835 1.13395 42.2194 3.85407L41.8413 4.50828C38.7477 9.9141 33.6605 9.9141 30.5325 4.50828L30.1544 3.85407C28.6076 1.13395 25.1016 0.16985 22.3861 1.78815L16.4395 5.19692C13.3115 6.98738 12.246 11.0159 14.0334 14.1492C17.1613 19.5206 14.6177 23.9279 8.39615 23.9279C4.82133 23.9279 1.86523 26.8546 1.86523 30.47V36.53C1.86523 40.1109 4.78696 43.0721 8.39615 43.0721C14.6177 43.0721 17.1613 47.4794 14.0334 52.8852C12.246 56.0185 13.3115 60.0126 16.4395 61.8031L22.3861 65.2118C25.1016 66.8302 28.6076 65.8661 30.2232 63.1459L30.6013 62.4917C33.6949 57.0859 38.7821 57.0859 41.9101 62.4917L42.2882 63.1459C43.9037 65.8661 47.4098 66.8302 50.1253 65.2118L56.0719 61.8031C59.1998 60.0126 60.2654 55.9841 58.478 52.8852C55.35 47.4794 57.8936 43.0721 64.1152 43.0721C67.69 43.0721 70.6461 40.1454 70.6461 36.53V30.47C70.6117 26.8891 67.69 23.9279 64.0808 23.9279ZM36.2385 44.6904C30.0857 44.6904 25.0672 39.6633 25.0672 33.5C25.0672 27.3367 30.0857 22.3096 36.2385 22.3096C42.3913 22.3096 47.4098 27.3367 47.4098 33.5C47.4098 39.6633 42.3913 44.6904 36.2385 44.6904Z" stroke="#0D61DB" stroke-width="2"/>
</svg>
