<svg width="100" height="100" viewBox="0 0 100 100" fill="none" xmlns="http://www.w3.org/2000/svg">
<g clip-path="url(#clip0_382_24637)">
<path d="M50.0004 28.2C54.2004 28.2 57.6004 24.8 57.6004 20.6C57.6004 16.4 54.2004 13 50.0004 13C45.8004 13 42.4004 16.4 42.4004 20.6C42.4004 24.8 45.8004 28.2 50.0004 28.2ZM50.0004 15.2C53.0004 15.2 55.5004 17.6 55.5004 20.7C55.5004 23.8 53.0004 26.1 50.0004 26.1C47.0004 26.1 44.5004 23.7 44.5004 20.6C44.5004 17.5 47.0004 15.2 50.0004 15.2Z" fill="#0D61DB"/>
<path d="M38 20.1C38.3 13.8 43.5 8.7 50 8.7C56.5 8.7 61.7 13.8 62 20.1H64.1C63.8 12.6 57.6 6.5 50 6.5C42.4 6.5 36.2 12.5 35.9 20.1H38ZM27.2 29.4C20 29.4 13.8 35 13.1 42.3V42.7L12.7 42.8C5.3 44.2 0 50.7 0 58.2C0 66.9 7.1 73.9 15.7 73.9H23.3V71.8H15.7C8.2 71.8 2.1 65.7 2.1 58.2C2.1 50.7 8.2 44.6 15.7 44.6C17.1 44.6 18.5 44.8 19.8 45.2L20.5 43.2C19 42.7 17.4 42.5 15.8 42.4H15.2L15.3 41.8C16.1 35.9 21.2 31.5 27.1 31.5C31.2 31.5 35 33.6 37.2 37L39 35.9C38.3 34.8 37.4 33.7 36.3 32.8L36 32.5L36.2 32.1C37.2 30 38.6 28.1 40.4 26.7L39.1 25C37.2 26.5 35.6 28.5 34.5 30.8L34.2 31.3L33.7 31C31.7 29.9 29.4 29.4 27.2 29.4ZM35.3 100H64.7C68.9 100 72.3 96.6 72.3 92.4V69.6C72.3 66.6 70.5 63.9 67.7 62.7L67.4 62.6V56.6C67.4 47 59.6 39.2 50 39.2C40.4 39.2 32.6 47 32.6 56.6V62.6L32.3 62.7C29.5 63.9 27.7 66.6 27.7 69.6V92.4C27.7 96.6 31.1 100 35.3 100ZM34.8 56.5C34.8 48.1 41.6 41.3 50 41.3C58.4 41.3 65.2 48.1 65.2 56.5V62H60.8V56.5C60.8 50.5 55.9 45.6 49.9 45.6C43.9 45.6 39 50.5 39 56.5V62H34.6V56.5H34.8ZM58.7 56.5V62H41.3V56.5C41.3 51.7 45.2 47.8 50 47.8C54.8 47.8 58.7 51.7 58.7 56.5ZM29.9 69.6C29.9 66.6 32.3 64.1 35.4 64.1H64.8C67.8 64.1 70.3 66.5 70.3 69.6V92.4C70.3 95.4 67.9 97.9 64.8 97.9H35.3C32.3 97.9 29.8 95.5 29.8 92.4V69.6H29.9Z" fill="#0D61DB"/>
<path d="M54.3004 93.5V82.3L54.5004 82.1C56.4004 80.7 57.5004 78.4 57.5004 76.1C57.5004 71.9 54.1004 68.5 49.9004 68.5C45.7004 68.5 42.3004 71.9 42.3004 76.1C42.3004 78.5 43.4004 80.7 45.3004 82.1L45.5004 82.3V93.5H54.3004ZM44.5004 76.1C44.5004 73.1 46.9004 70.6 50.0004 70.6C53.1004 70.6 55.5004 73 55.5004 76.1C55.5004 78 54.5004 79.8 52.8004 80.8L52.3004 81.1V91.3H47.9004V81.1L47.4004 80.8C45.6004 79.8 44.5004 78 44.5004 76.1ZM50.0004 0C38.8004 0 29.7004 9 29.4004 20.1H31.5004C31.8004 10.1 40.0004 2.1 50.0004 2.1C60.0004 2.1 68.2004 10.1 68.5004 20H70.6004C70.3004 9 61.2004 0 50.0004 0ZM100 58.2C100 50.7 94.7004 44.2 87.3004 42.8L86.9004 42.7V42.3C86.3004 35.1 80.1004 29.4 72.8004 29.4C70.6004 29.4 68.3004 30 66.2004 31.1L65.7004 31.4L65.4004 30.9C64.3004 28.6 62.7004 26.7 60.8004 25.2L59.5004 26.9C61.3004 28.3 62.7004 30.2 63.7004 32.3L63.9004 32.7L63.6004 33C62.5004 34 61.5004 35 60.8004 36.2L62.7004 37.3C64.9004 33.8 68.7004 31.7 72.8004 31.7C78.7004 31.7 83.8004 36.1 84.6004 42L84.7004 42.6H84.1004C83.2004 42.6 82.3004 42.7 81.4004 42.9L81.9004 45C82.7004 44.9 83.5004 44.8 84.3004 44.8C91.8004 44.8 97.9004 50.9 97.9004 58.4C97.9004 65.9 91.8004 72 84.3004 72H76.7004V74.1H84.3004C92.9004 73.9 100 66.8 100 58.2Z" fill="#0D61DB"/>
</g>
<defs>
<clipPath id="clip0_382_24637">
<rect width="100" height="100" fill="white"/>
</clipPath>
</defs>
</svg>
