<svg width="68" height="67" viewBox="0 0 68 67" fill="none" xmlns="http://www.w3.org/2000/svg">
<path fill-rule="evenodd" clip-rule="evenodd" d="M33.7948 30.9629C35.1943 30.9629 36.3278 32.0984 36.3278 33.5003C36.3278 34.9022 35.1943 36.0376 33.7948 36.0376C32.3952 36.0376 31.2617 34.9022 31.2617 33.5003C31.2617 32.0984 32.3952 30.9629 33.7948 30.9629Z" stroke="#0D61DB" stroke-width="2" stroke-miterlimit="22.9256" stroke-linecap="round" stroke-linejoin="round"/>
<path fill-rule="evenodd" clip-rule="evenodd" d="M33.7937 8.80859C47.4082 8.80859 58.4447 19.864 58.4447 33.5018C58.4447 47.1396 47.4082 58.195 33.7937 58.195C20.1791 58.195 9.14258 47.1396 9.14258 33.5018C9.14258 19.864 20.1791 8.80859 33.7937 8.80859Z" stroke="#0D61DB" stroke-width="2" stroke-miterlimit="22.9256" stroke-linecap="round" stroke-linejoin="round"/>
<path d="M33.7942 1.00205C51.7137 1.00205 66.2388 15.5519 66.2388 33.5021C66.2388 44.9448 60.3358 55.0041 51.4129 60.7941M35.0198 65.9754C34.6126 65.9898 34.2054 66 33.7942 66C32.3251 66 30.8806 65.8996 29.4647 65.711M27.2877 65.3462C12.4864 62.3292 1.34961 49.2181 1.34961 33.5C1.34961 15.5499 15.8747 1 33.7942 1" stroke="#0D61DB" stroke-width="2" stroke-miterlimit="22.9256" stroke-linecap="round" stroke-linejoin="round"/>
<path d="M54.4901 51.9336L51.4414 60.7754L61.2032 60.3655" stroke="#0D61DB" stroke-width="2" stroke-miterlimit="22.9256" stroke-linecap="round" stroke-linejoin="round"/>
<path d="M33.7949 30.9623V18.8555" stroke="#0D61DB" stroke-width="2" stroke-miterlimit="22.9256" stroke-linecap="round" stroke-linejoin="round"/>
<path d="M31.934 35.2256L25.8203 41.3497" stroke="#0D61DB" stroke-width="2" stroke-miterlimit="22.9256" stroke-linecap="round" stroke-linejoin="round"/>
<path d="M9.14258 33.502H13.8485" stroke="#0D61DB" stroke-width="2" stroke-miterlimit="22.9256" stroke-linecap="round" stroke-linejoin="round"/>
<path d="M16.3633 50.9605L19.6902 47.6279" stroke="#0D61DB" stroke-width="2" stroke-miterlimit="22.9256" stroke-linecap="round" stroke-linejoin="round"/>
<path d="M33.793 58.1935V53.4795" stroke="#0D61DB" stroke-width="2" stroke-miterlimit="22.9256" stroke-linecap="round" stroke-linejoin="round"/>
<path d="M51.2235 50.9605L47.8945 47.6279" stroke="#0D61DB" stroke-width="2" stroke-miterlimit="22.9256" stroke-linecap="round" stroke-linejoin="round"/>
<path d="M53.7344 33.502H58.4403" stroke="#0D61DB" stroke-width="2" stroke-miterlimit="22.9256" stroke-linecap="round" stroke-linejoin="round"/>
<path d="M47.8945 19.3766L51.2235 16.042" stroke="#0D61DB" stroke-width="2" stroke-miterlimit="22.9256" stroke-linecap="round" stroke-linejoin="round"/>
<path d="M33.793 13.5246V8.81055" stroke="#0D61DB" stroke-width="2" stroke-miterlimit="22.9256" stroke-linecap="round" stroke-linejoin="round"/>
<path d="M19.6902 19.3765L16.3633 16.0439" stroke="#0D61DB" stroke-width="2" stroke-miterlimit="22.9256" stroke-linecap="round" stroke-linejoin="round"/>
</svg>
