<svg width="100" height="100" viewBox="0 0 100 100" fill="none" xmlns="http://www.w3.org/2000/svg">
<path d="M49.7004 74.0998C45.8004 74.0998 42.6004 77.2998 42.6004 81.1998C42.6004 85.0998 45.8004 88.2998 49.7004 88.2998C53.6004 88.2998 56.8004 85.0998 56.8004 81.1998C56.8004 77.2998 53.6004 74.0998 49.7004 74.0998ZM49.7004 86.5998C46.8004 86.5998 44.4004 84.1998 44.4004 81.2998C44.4004 78.3998 46.8004 75.9998 49.7004 75.9998C52.6004 75.9998 55.0004 78.3998 55.0004 81.2998C55.0004 84.1998 52.6004 86.5998 49.7004 86.5998ZM11.9004 26.0998H13.8004V27.9998H11.9004V26.0998ZM36.7004 8.2998H38.6004V10.1998H36.7004V8.2998ZM5.90039 26.0998H7.80039V27.9998H5.90039V26.0998ZM30.8004 8.2998H32.7004V10.1998H30.8004V8.2998ZM30.8004 26.0998H32.7004V27.9998H30.8004V26.0998ZM36.7004 26.0998H38.6004V27.9998H36.7004V26.0998ZM56.7004 8.2998H68.5004V10.1998H56.7004V8.2998ZM56.7004 26.0998H68.5004V27.9998H56.7004V26.0998ZM11.9004 43.9998H13.8004V45.8998H11.9004V43.9998ZM82.4004 43.9998H94.2004V45.8998H82.4004V43.9998ZM5.90039 43.9998H7.80039V45.8998H5.90039V43.9998ZM30.8004 43.9998H32.7004V45.8998H30.8004V43.9998Z" fill="#0D61DB"/>
<path d="M100 37.9998H97V33.9998H100V20.0998H71.5V16.0998H74.5V2.2998H24.9V16.1998H27.9V20.1998H0V33.9998H3V37.9998H0V51.8998H100V37.9998ZM74.4 22.0998H98V32.0998H74.4V22.0998ZM95.1 33.9998V37.9998H71.4V33.9998H95.1ZM26.8 14.1998V4.1998H72.5V14.1998H26.8ZM69.6 16.0998V20.0998H29.8V16.0998H69.6ZM26.8 22.0998H72.5V32.0998H26.8V22.0998ZM69.6 33.9998V37.9998H29.8V33.9998H69.6ZM27.8 33.9998V37.9998H4.9V33.9998H27.8ZM1.9 32.0998V22.0998H24.8V32.0998H1.9ZM24.9 49.8998H1.9V39.8998H24.8V49.8998H24.9ZM72.5 49.8998H26.8V39.8998H72.5V49.8998ZM98.1 49.8998H74.4V39.8998H98V49.8998H98.1Z" fill="#0D61DB"/>
<path d="M82.3992 26.0996H94.1992V27.9996H82.3992V26.0996ZM36.6992 43.9996H38.5992V45.8996H36.6992V43.9996ZM56.6992 43.9996H68.4992V45.8996H56.6992V43.9996ZM88.3992 75.8996L87.8992 75.7996V51.4996H86.0992V75.7996L85.5992 75.8996C83.6992 76.3996 82.0992 77.8996 81.5992 79.8996L81.4992 80.3996H66.0992V77.4996L61.9992 76.0996L63.8992 72.1996L58.5992 66.9996L54.7992 68.8996L53.3992 64.7996H50.4992V51.4996H48.6992V64.7996H45.7992L44.3992 68.8996L40.6992 66.9996L35.3992 72.2996L37.2992 76.1996L33.1992 77.5996V80.4996H17.7992L17.6992 79.9996C17.1992 78.0996 15.6992 76.4996 13.6992 75.9996L13.1992 75.8996V51.4996H11.3992V75.7996L10.8992 75.8996C8.39922 76.4996 6.69922 78.6996 6.69922 81.2996C6.69922 84.3996 9.19922 86.8996 12.2992 86.8996C14.7992 86.8996 16.9992 85.1996 17.6992 82.6996L17.7992 82.1996H33.1992V84.9996L37.2992 86.3996L35.3992 90.2996L40.6992 95.5996L44.4992 93.6996L45.8992 97.7996H53.3992L54.7992 93.6996L58.5992 95.5996L63.8992 90.2996L61.9992 86.3996L66.0992 84.9996V82.0996H81.4992L81.5992 82.5996C82.1992 85.0996 84.3992 86.7996 86.9992 86.7996C90.0992 86.7996 92.5992 84.2996 92.5992 81.1996C92.5992 78.6996 90.7992 76.4996 88.3992 75.8996ZM12.2992 84.9996C10.1992 84.9996 8.49922 83.2996 8.49922 81.1996C8.49922 79.0996 10.1992 77.3996 12.2992 77.3996C14.3992 77.3996 16.0992 79.0996 16.0992 81.1996C16.0992 83.2996 14.3992 84.9996 12.2992 84.9996ZM64.2992 83.6996L60.5992 84.8996L60.3992 85.2996L60.0992 85.8996L59.9992 86.3996L61.7992 89.8996L58.2992 93.3996L54.7992 91.5996L54.3992 91.7996C54.1992 91.8996 53.9992 91.9996 53.7992 91.9996L53.3992 92.1996L52.1992 95.8996H47.2992L45.9992 92.1996L45.5992 91.9996L44.9992 91.6996L44.5992 91.4996L40.9992 93.2996L37.4992 89.7996L39.2992 86.2996L39.0992 85.9996L38.7992 85.3996L38.5992 84.9996L34.9992 83.6996V78.7996L38.6992 77.5996L38.8992 77.1996L39.1992 76.5996L39.3992 76.1996L37.5992 72.6996L41.0992 69.1996L44.5992 70.9996L44.9992 70.7996C45.1992 70.6996 45.3992 70.5996 45.5992 70.5996L46.0992 70.3996L47.2992 66.6996H52.1992L53.3992 70.3996L53.7992 70.5996L54.3992 70.8996L54.7992 71.0996L58.2992 69.2996L61.7992 72.7996L59.9992 76.0996L60.1992 76.4996L60.4992 77.0996L60.6992 77.4996L64.3992 78.6996V83.6996H64.2992ZM86.9992 84.9996C84.8992 84.9996 83.1992 83.2996 83.1992 81.1996C83.1992 79.0996 84.8992 77.3996 86.9992 77.3996C89.0992 77.3996 90.7992 79.0996 90.7992 81.1996C90.6992 83.2996 89.0992 84.9996 86.9992 84.9996Z" fill="#0D61DB"/>
</svg>
