<svg width="93" height="88" viewBox="0 0 93 88" fill="none" xmlns="http://www.w3.org/2000/svg">
<path d="M56.5428 21.5612V71.0693C56.5428 73.9852 54.1577 76.3703 51.2414 76.3703H6.30138C3.38512 76.3703 1 73.9852 1 71.0693V6.30099C1 3.38512 3.38512 1 6.30138 1H36.0726" stroke="#0D61DB" stroke-width="2" stroke-miterlimit="22.9256" stroke-linecap="round" stroke-linejoin="round"/>
<path fill-rule="evenodd" clip-rule="evenodd" d="M36.0723 16.2602C36.0723 19.1761 38.4574 21.5612 41.3736 21.5612H54.7959H56.5425V21.4038L36.1388 1H36.0723V16.2602Z" stroke="#0D61DB" stroke-width="2" stroke-miterlimit="22.9256" stroke-linecap="round" stroke-linejoin="round"/>
<path d="M41.374 86.5871H86.3141C89.2304 86.5871 91.6155 84.202 91.6155 81.2861V31.778M71.1452 11.2168H46.3558M36.0723 76.3705V81.2861C36.0723 84.202 38.4574 86.5871 41.3736 86.5871M36.7496 18.845C36.7127 18.7793 36.6769 18.7128 36.6427 18.6455M36.1773 17.311C36.1598 17.2259 36.145 17.1407 36.1318 17.0544C36.145 17.1407 36.1598 17.2262 36.1773 17.311Z" stroke="#0D61DB" stroke-width="2" stroke-miterlimit="22.9256" stroke-linecap="round" stroke-linejoin="round"/>
<path fill-rule="evenodd" clip-rule="evenodd" d="M71.1465 26.477C71.1465 29.3929 73.5316 31.778 76.4479 31.778H89.8701H91.6167V31.6205L71.213 11.2168H71.1465V26.477Z" stroke="#0D61DB" stroke-width="2" stroke-miterlimit="22.9256" stroke-linecap="round" stroke-linejoin="round"/>
<path d="M12.082 31.1904H45.4581" stroke="#0D61DB" stroke-width="2" stroke-miterlimit="22.9256" stroke-linecap="round" stroke-linejoin="round"/>
<path d="M12.082 42.082H45.4581" stroke="#0D61DB" stroke-width="2" stroke-miterlimit="22.9256" stroke-linecap="round" stroke-linejoin="round"/>
<path d="M12.082 52.9727H45.4581" stroke="#0D61DB" stroke-width="2" stroke-miterlimit="22.9256" stroke-linecap="round" stroke-linejoin="round"/>
<path d="M12.082 63.8652H45.4581" stroke="#0D61DB" stroke-width="2" stroke-miterlimit="22.9256" stroke-linecap="round" stroke-linejoin="round"/>
<path d="M12.082 20.2988H21.9553" stroke="#0D61DB" stroke-width="2" stroke-miterlimit="22.9256" stroke-linecap="round" stroke-linejoin="round"/>
<path d="M27.1621 20.2988H32.0988" stroke="#0D61DB" stroke-width="2" stroke-miterlimit="22.9256" stroke-linecap="round" stroke-linejoin="round"/>
<path d="M64.3145 42.082H80.8022" stroke="#0D61DB" stroke-width="2" stroke-miterlimit="22.9256" stroke-linecap="round" stroke-linejoin="round"/>
<path d="M64.3145 52.9736H80.8022" stroke="#0D61DB" stroke-width="2" stroke-miterlimit="22.9256" stroke-linecap="round" stroke-linejoin="round"/>
<path d="M64.3125 63.8652H80.8003" stroke="#0D61DB" stroke-width="2" stroke-miterlimit="22.9256" stroke-linecap="round" stroke-linejoin="round"/>
<path d="M64.3125 74.7578H80.8003" stroke="#0D61DB" stroke-width="2" stroke-miterlimit="22.9256" stroke-linecap="round" stroke-linejoin="round"/>
<path d="M64.3125 31.1904H69.1901" stroke="#0D61DB" stroke-width="2" stroke-miterlimit="22.9256" stroke-linecap="round" stroke-linejoin="round"/>
</svg>
