<svg width="82" height="67" viewBox="0 0 82 67" fill="none" xmlns="http://www.w3.org/2000/svg">
<path fill-rule="evenodd" clip-rule="evenodd" d="M48.2163 30.9619C49.6187 30.9619 50.7529 32.1005 50.7529 33.5029C50.7529 34.9076 49.6163 36.0438 48.2163 36.0438C46.8139 36.0438 45.6797 34.9053 45.6797 33.5029C45.6797 32.0981 46.8163 30.9619 48.2163 30.9619Z" stroke="#0D61DB" stroke-width="2" stroke-miterlimit="22.9256" stroke-linecap="round" stroke-linejoin="round"/>
<path d="M26.1484 44.5889C30.2061 52.6776 38.5658 58.2302 48.2187 58.2302C61.851 58.2302 72.9039 47.1583 72.9039 33.5028C72.9039 19.8472 61.851 8.77539 48.2187 8.77539C38.5634 8.77539 30.2061 14.3279 26.1484 22.4167" stroke="#0D61DB" stroke-width="2" stroke-miterlimit="22.9256" stroke-linecap="round" stroke-linejoin="round"/>
<path d="M48.2168 30.9617V18.8369" stroke="#0D61DB" stroke-width="2" stroke-miterlimit="22.9256" stroke-linecap="round" stroke-linejoin="round"/>
<path d="M50.6914 32.9415L59.0559 30.6953" stroke="#0D61DB" stroke-width="2" stroke-miterlimit="22.9256" stroke-linecap="round" stroke-linejoin="round"/>
<path d="M30.7617 50.9871L34.0956 47.6475" stroke="#0D61DB" stroke-width="2" stroke-miterlimit="22.9256" stroke-linecap="round" stroke-linejoin="round"/>
<path d="M48.2168 58.2298V53.5068" stroke="#0D61DB" stroke-width="2" stroke-miterlimit="22.9256" stroke-linecap="round" stroke-linejoin="round"/>
<path d="M65.6694 50.9876L62.3379 47.6504" stroke="#0D61DB" stroke-width="2" stroke-miterlimit="22.9256" stroke-linecap="round" stroke-linejoin="round"/>
<path d="M68.1875 33.502H72.9001" stroke="#0D61DB" stroke-width="2" stroke-miterlimit="22.9256" stroke-linecap="round" stroke-linejoin="round"/>
<path d="M62.3379 19.3591L65.6694 16.0195" stroke="#0D61DB" stroke-width="2" stroke-miterlimit="22.9256" stroke-linecap="round" stroke-linejoin="round"/>
<path d="M48.2168 13.4999V8.7793" stroke="#0D61DB" stroke-width="2" stroke-miterlimit="22.9256" stroke-linecap="round" stroke-linejoin="round"/>
<path d="M34.0972 19.3591L30.7656 16.0195" stroke="#0D61DB" stroke-width="2" stroke-miterlimit="22.9256" stroke-linecap="round" stroke-linejoin="round"/>
<path d="M48.2169 1.00475C66.1346 1.00475 80.6591 15.554 80.6591 33.5024C80.6591 51.4507 66.1346 66 48.2169 66C34.1859 66 22.236 57.0769 17.7109 44.5861M17.7109 22.4139C22.236 9.92306 34.1859 1 48.2169 1" stroke="#0D61DB" stroke-width="2" stroke-miterlimit="22.9256" stroke-linecap="round" stroke-linejoin="round"/>
<path d="M20.4551 22.4189H31.126" stroke="#0D61DB" stroke-width="2" stroke-miterlimit="22.9256" stroke-linecap="round" stroke-linejoin="round"/>
<path d="M7.25195 22.4189H15.8134" stroke="#0D61DB" stroke-width="2" stroke-miterlimit="22.9256" stroke-linecap="round" stroke-linejoin="round"/>
<path d="M17.9531 44.5889H28.6264" stroke="#0D61DB" stroke-width="2" stroke-miterlimit="22.9256" stroke-linecap="round" stroke-linejoin="round"/>
<path d="M5.44531 44.5889H15.8125" stroke="#0D61DB" stroke-width="2" stroke-miterlimit="22.9256" stroke-linecap="round" stroke-linejoin="round"/>
<path d="M13.2227 29.7539H26.6604" stroke="#0D61DB" stroke-width="2" stroke-miterlimit="22.9256" stroke-linecap="round" stroke-linejoin="round"/>
<path d="M5.57031 29.7539H9.75135" stroke="#0D61DB" stroke-width="2" stroke-miterlimit="22.9256" stroke-linecap="round" stroke-linejoin="round"/>
<path d="M19.2965 37.0342H1.39062" stroke="#0D61DB" stroke-width="2" stroke-miterlimit="22.9256" stroke-linecap="round" stroke-linejoin="round"/>
<path d="M31.1253 37.0342H22.7656" stroke="#0D61DB" stroke-width="2" stroke-miterlimit="22.9256" stroke-linecap="round" stroke-linejoin="round"/>
</svg>
