<svg width="82" height="84" viewBox="0 0 82 84" fill="none" xmlns="http://www.w3.org/2000/svg">
<g clip-path="url(#clip0_382_24676)">
<path fill-rule="evenodd" clip-rule="evenodd" d="M72.1172 65.3856C77.2842 58.6969 80.36 50.2974 80.36 41.1765H63.1331C63.1292 41.4565 63.1234 41.7384 63.1157 42.0221C62.9706 47.4437 62.258 52.1894 61.1641 56.336C62.1785 56.9503 63.132 57.5799 64.0218 58.2089C66.8353 60.1972 69.0235 62.1854 70.5105 63.6788C71.1975 64.3687 71.7356 64.9537 72.1172 65.3856ZM71.0701 66.684C71.0407 66.6499 71.0097 66.6145 70.9774 66.5774C70.613 66.1615 70.0677 65.5633 69.3508 64.8434C67.9165 63.4029 65.7998 61.4793 63.0782 59.5558C62.3302 59.0273 61.5374 58.4992 60.701 57.9814C58.3855 65.7167 54.7291 71.2348 51.0929 75.0953C48.8007 77.529 46.5242 79.2957 44.6119 80.5417C55.2014 79.5742 64.5793 74.394 71.0701 66.684ZM59.2455 57.1174C57.01 64.8146 53.4207 70.2273 49.9016 73.9635C47.1525 76.8821 44.4337 78.7907 42.4091 79.9673C41.9115 80.2564 41.4561 80.5013 41.0528 80.7059H41V51.8916C48.2007 52.0546 54.3693 54.345 59.2455 57.1174ZM59.6912 55.4804C54.683 52.6925 48.3675 50.4036 41 50.2442V41.1765H61.493C61.4892 41.4418 61.4836 41.709 61.4764 41.9779C61.3396 47.0825 60.6892 51.5597 59.6912 55.4804ZM39.36 50.2442V41.1765H19.6643C19.6679 41.4423 19.6731 41.7099 19.6797 41.9794C19.8061 47.054 20.4041 51.5086 21.3216 55.4132C26.0309 52.6535 32.0725 50.4023 39.36 50.2442ZM39.36 51.8916C32.2071 52.0541 26.3067 54.3261 21.7405 57.0777C23.8194 64.8106 27.1658 70.2423 30.4433 73.9855C32.9968 76.9022 35.5208 78.8076 37.3974 79.981C37.7923 80.2279 38.1584 80.4423 38.49 80.6268C38.7793 80.6451 39.0692 80.6603 39.36 80.6721V51.8916ZM19.8517 56.3171C18.8364 52.1749 18.175 47.4348 18.0403 42.0206C18.0333 41.7373 18.0279 41.456 18.0241 41.1765H1.64C1.64 50.2732 4.69955 58.6523 9.84157 65.3322C10.1741 64.9091 10.6283 64.3559 11.202 63.7119C12.5365 62.214 14.5219 60.2203 17.1339 58.2267C17.9746 57.585 18.8808 56.9429 19.8517 56.3171ZM10.9 66.6484C10.9269 66.6132 10.9552 66.5763 10.9848 66.5377C11.304 66.1238 11.7849 65.5277 12.4242 64.8101C13.7035 63.3742 15.6131 61.4562 18.1261 59.538C18.8044 59.0204 19.5262 58.5029 20.2911 57.9952C22.4421 65.7089 25.8344 71.2159 29.2117 75.0733C31.1757 77.3164 33.1282 78.9943 34.8159 80.2208C25.2685 78.7077 16.862 73.7472 10.9 66.6484ZM41.4415 82.3506C63.8818 82.1128 82 63.7697 82 41.1765V39.5294H81.9679C81.107 17.5519 63.0944 0 41 0C18.9056 0 0.893042 17.5519 0.0322006 39.5294H0V41.1765C0 62.9117 16.7685 80.7138 38.0218 82.246C38.374 82.435 38.6846 82.5901 38.9469 82.7146C39.2057 82.8375 39.4172 82.9306 39.575 82.9971C39.6208 83.1336 39.6214 83.1335 39.6214 83.1335L39.6232 83.1328L39.6283 83.1312L39.6444 83.1256L39.7 83.106L39.7743 83.0788L39.8263 83.0991L39.8789 83.1191L39.8943 83.1249L39.8992 83.1267L39.901 83.1274C39.901 83.1274 39.9017 83.1275 39.9424 83.0147C40.1133 82.9482 40.3483 82.8525 40.6394 82.724C40.8722 82.6212 41.141 82.4974 41.4415 82.3506ZM63.1362 39.5294H80.3264C79.9794 31.0255 76.9573 23.2145 72.0828 16.9227C71.7005 17.3094 71.1629 17.8322 70.4774 18.4482C68.9891 19.7858 66.8 21.5651 63.9869 23.3439C63.0806 23.9169 62.1089 24.4904 61.0744 25.0493C62.3054 29.1874 63.0764 33.9836 63.1362 39.5294ZM63.1131 21.9502C62.3149 22.4548 61.4654 22.9592 60.5662 23.4525C58.3876 17.0393 55.093 12.315 51.7436 8.89326C48.7539 5.839 45.735 3.83659 43.459 2.59604C42.7522 2.21085 42.1165 1.89878 41.5748 1.65119C53.3856 1.82097 63.9377 7.2153 71.0425 15.6363L71.0084 15.6713C70.6448 16.0426 70.1 16.5773 69.3838 17.2208C67.9509 18.5083 65.835 20.229 63.1131 21.9502ZM41 28.8153C48.1287 28.6712 54.244 26.6664 59.0951 24.2258C56.9972 17.9228 53.7928 13.3362 50.5742 10.0479C47.7194 7.13158 44.8391 5.22223 42.6767 4.04366C42.0511 3.70267 41.4861 3.42316 41 3.19837V28.8153ZM59.5902 25.818C54.5971 28.295 48.3165 30.3207 41 30.4627V39.5294H61.4962C61.438 34.2801 60.7259 29.739 59.5902 25.818ZM39.36 2.87374V28.8153C32.2783 28.6717 26.425 26.6827 21.8796 24.2607C23.8312 17.9256 26.8196 13.3213 29.8178 10.0261C32.469 7.11231 35.1426 5.2063 37.1468 4.03104C38.0382 3.50838 38.7963 3.13076 39.36 2.87374ZM39.36 30.4627C32.1219 30.3217 26.1119 28.3289 21.4151 25.8761C20.3699 29.7841 19.7151 34.3063 19.6613 39.5294H39.36V30.4627ZM28.6072 8.91505C25.4964 12.3338 22.4401 17.0477 20.4167 23.4414C19.5918 22.9567 18.8164 22.4614 18.0912 21.966C15.5784 20.2501 13.6702 18.535 12.393 17.2523C11.7546 16.6111 11.2747 16.0789 10.9565 15.7097L10.9258 15.6739C17.5121 7.84794 27.072 2.62759 37.8548 1.77141C37.4007 2.00034 36.8846 2.2776 36.3199 2.60866C34.1988 3.85252 31.3885 5.85828 28.6072 8.91505ZM11.2333 18.4169C10.6632 17.8444 10.2109 17.3518 9.87813 16.9733C5.02653 23.2565 2.01966 31.0482 1.67355 39.5294H18.0213C18.0769 33.9902 18.7926 29.1992 19.9358 25.0649C18.9468 24.4962 18.0241 23.9122 17.1688 23.3281C14.5566 21.544 12.5698 19.7591 11.2333 18.4169Z" fill="#0D61DB"/>
</g>
<defs>
<clipPath id="clip0_382_24676">
<rect width="82" height="84" fill="white"/>
</clipPath>
</defs>
</svg>
