<svg width="100" height="100" viewBox="0 0 100 100" fill="none" xmlns="http://www.w3.org/2000/svg">
<g clip-path="url(#clip0_382_24628)">
<path d="M44.9 47.4004L46.5 49.0004C48.6 47.4004 51.5 47.4004 53.6 49.0004L55.2 47.4004C52.2 44.9004 47.8 44.9004 44.9 47.4004ZM18 67.4004H4.5C2 67.4004 0 69.4004 0 71.9004V95.5004C0 98.0004 2 100 4.5 100H18C20.5 100 22.5 98.0004 22.5 95.5004V71.9004C22.5 69.4004 20.5 67.4004 18 67.4004ZM20.2 95.5004C20.2 96.7004 19.2 97.7004 18 97.7004H4.5C3.3 97.7004 2.3 96.7004 2.3 95.5004V71.9004C2.3 70.7004 3.3 69.7004 4.5 69.7004H18C19.2 69.7004 20.2 70.7004 20.2 71.9004V95.5004Z" fill="#0D61DB"/>
<path d="M9.69961 83.1L11.1996 84.6L12.6996 83.1C11.7996 82.4 10.5996 82.4 9.69961 83.1ZM10.0996 91H12.2996V93.2H10.0996V91ZM40.0996 42.7L41.6996 44.3C43.9996 42.1 46.9996 41 49.9996 41C52.9996 41 55.9996 42.1 58.2996 44.2L59.8996 42.6C54.2996 37.5 45.6996 37.5 40.0996 42.7ZM50.7996 69.5H48.1996V84.1H30.9996V86.7H67.9996V84.1H50.7996V69.5ZM9.69961 15.6L11.1996 17.1L12.6996 15.6C11.7996 15 10.5996 15 9.69961 15.6ZM9.99961 38.2V62.2H12.4996V51.5H18.3996V48.9H12.4996V38.2H9.99961ZM6.09961 12L7.69961 13.6C9.79961 12 12.6996 12 14.7996 13.6L16.3996 12C13.3996 9.5 8.99961 9.5 6.09961 12Z" fill="#0D61DB"/>
<path d="M18 0H4.5C2 0 0 2 0 4.5V28.1C0 30.6 2 32.6 4.5 32.6H18C20.5 32.6 22.5 30.6 22.5 28.1V4.5C22.5 2 20.5 0 18 0ZM20.2 28.1C20.2 29.3 19.2 30.3 18 30.3H4.5C3.3 30.3 2.3 29.3 2.3 28.1V4.5C2.3 3.3 3.3 2.3 4.5 2.3H18C19.2 2.3 20.2 3.3 20.2 4.5V28.1ZM48.9 52.2H51.1V54.4H48.9V52.2Z" fill="#0D61DB"/>
<path d="M10.0996 23.5996H12.2996V25.7996H10.0996V23.5996ZM6.09961 79.3996L7.69961 80.9996C9.79961 79.3996 12.6996 79.3996 14.7996 80.9996L16.3996 79.3996C13.3996 76.8996 8.99961 76.8996 6.09961 79.3996ZM83.5996 79.3996L85.1996 80.9996C87.2996 79.3996 90.1996 79.3996 92.2996 80.9996L93.8996 79.3996C90.9996 76.8996 86.5996 76.8996 83.5996 79.3996ZM87.5996 23.5996H89.7996V25.7996H87.5996V23.5996Z" fill="#0D61DB"/>
<path d="M95.5 0H82C79.5 0 77.5 2 77.5 4.5V28.1C77.5 30.6 79.5 32.6 82 32.6H95.5C98 32.6 100 30.6 100 28.1V4.5C100 2 98 0 95.5 0ZM97.8 28.1C97.8 29.3 96.8 30.3 95.6 30.3H82C80.8 30.3 79.8 29.3 79.8 28.1V4.5C79.8 3.3 80.8 2.3 82 2.3H95.5C96.7 2.3 97.7 3.3 97.7 4.5V28.1H97.8ZM95.5 67.4H82C79.5 67.4 77.5 69.4 77.5 71.9V95.5C77.5 98 79.5 100 82 100H95.5C98 100 100 98 100 95.5V71.9C100 69.4 98 67.4 95.5 67.4ZM97.8 95.5C97.8 96.7 96.8 97.7 95.6 97.7H82C80.8 97.7 79.8 96.7 79.8 95.5V71.9C79.8 70.7 80.8 69.7 82 69.7H95.5C96.7 69.7 97.7 70.7 97.7 71.9V95.5H97.8Z" fill="#0D61DB"/>
<path d="M87.1996 83.0996L88.6996 84.5996L90.1996 83.0996C89.3996 82.3996 88.1996 82.3996 87.1996 83.0996ZM87.5996 90.9996H89.7996V93.1996H87.5996V90.9996ZM89.9996 62.1996V38.1996H87.4996V48.8996H81.5996V51.4996H87.4996V62.1996H89.9996ZM83.5996 11.9996L85.1996 13.5996C87.2996 11.9996 90.1996 11.9996 92.2996 13.5996L93.8996 11.9996C90.9996 9.49961 86.5996 9.49961 83.5996 11.9996ZM87.1996 15.5996L88.6996 17.0996L90.1996 15.5996C89.3996 14.9996 88.1996 14.9996 87.1996 15.5996ZM48.1996 17.9996H50.7996V12.0996H67.9996V9.59961H30.9996V12.0996H48.1996V17.9996ZM66.8996 42.0996H66.1996L66.2996 41.4996C67.0996 35.0996 62.9996 28.9996 56.6996 27.3996C50.3996 25.7996 43.8996 29.0996 41.4996 35.0996L41.2996 35.4996L40.8996 35.3996C40.5996 35.3996 40.2996 35.2996 39.9996 35.2996C36.5996 35.2996 33.7996 38.0996 33.7996 41.4996V42.0996H33.1996C27.8996 42.0996 23.5996 46.3996 23.5996 51.6996C23.5996 56.9996 27.8996 61.2996 33.1996 61.2996H66.8996C72.1996 61.2996 76.4996 56.9996 76.4996 51.6996C76.4996 46.3996 72.0996 42.0996 66.8996 42.0996ZM66.8996 58.9996H33.0996C29.0996 58.9996 25.7996 55.6996 25.7996 51.6996C25.7996 47.6996 29.0996 44.3996 33.0996 44.3996H35.0996C35.4996 44.3996 35.7996 44.1996 35.9996 43.8996C36.1996 43.5996 36.2996 43.1996 36.0996 42.8996C35.9996 42.4996 35.9996 41.9996 35.9996 41.5996C35.9996 40.2996 36.6996 38.9996 37.7996 38.2996C38.8996 37.5996 40.2996 37.4996 41.4996 37.9996C41.7996 38.0996 42.0996 38.0996 42.3996 37.9996C42.6996 37.8996 42.8996 37.5996 42.9996 37.2996C43.6996 34.4996 45.4996 31.9996 47.8996 30.5996C50.3996 29.0996 53.3996 28.6996 56.1996 29.4996C58.9996 30.2996 61.3996 32.1996 62.6996 34.6996C64.0996 37.1996 64.3996 40.2996 63.4996 42.9996C63.3996 43.2996 63.4996 43.6996 63.6996 43.9996C63.8996 44.2996 64.1996 44.4996 64.5996 44.4996H66.7996C70.7996 44.4996 74.0996 47.7996 74.0996 51.7996C74.0996 55.7996 70.8996 58.9996 66.8996 58.9996Z" fill="#0D61DB"/>
</g>
<defs>
<clipPath id="clip0_382_24628">
<rect width="100" height="100" fill="white"/>
</clipPath>
</defs>
</svg>
