<svg width="88" height="88" viewBox="0 0 88 88" fill="none" xmlns="http://www.w3.org/2000/svg">
<path fill-rule="evenodd" clip-rule="evenodd" d="M43.7939 1C67.4283 1 86.5878 20.1595 86.5878 43.7939C86.5878 67.4283 67.4283 86.5878 43.7939 86.5878C20.1595 86.5878 1 67.4283 1 43.7939C1 20.1595 20.1595 1 43.7939 1Z" stroke="#0D61DB" stroke-width="2" stroke-miterlimit="22.9256" stroke-linecap="round" stroke-linejoin="round"/>
<path d="M11.423 54.5974C6.37548 39.53 12.4393 22.498 26.7338 14.2441C43.0537 4.8218 63.9201 10.4133 73.3424 26.7332C82.7647 43.0531 77.1732 63.9195 60.8533 73.3418C48.8169 80.2913 34.3077 79.0728 23.7421 71.4094" stroke="#0D61DB" stroke-width="2" stroke-miterlimit="22.9256" stroke-linecap="round" stroke-linejoin="round"/>
<path d="M18.8588 67.0917C17.125 65.2327 15.5719 63.1482 14.2461 60.8525" stroke="#0D61DB" stroke-width="2" stroke-miterlimit="22.9256" stroke-linecap="round" stroke-linejoin="round"/>
<path d="M50.6424 33.1672C47.6973 27.5471 39.1213 28.0731 36.5734 33.9885C34.8664 37.9463 36.7165 43.3982 44.1402 43.8813C50.1808 44.275 53.414 50.176 50.5368 54.8495C47.4038 59.9382 38.3573 59.702 36.1493 52.6756" stroke="#0D61DB" stroke-width="2" stroke-miterlimit="22.9256" stroke-linecap="round" stroke-linejoin="round"/>
<path d="M43.8203 24.1992V29.236" stroke="#0D61DB" stroke-width="2" stroke-miterlimit="22.9256" stroke-linecap="round" stroke-linejoin="round"/>
<path d="M43.8203 58.3496V63.3864" stroke="#0D61DB" stroke-width="2" stroke-miterlimit="22.9256" stroke-linecap="round" stroke-linejoin="round"/>
</svg>
