<svg width="100" height="100" viewBox="0 0 100 100" fill="none" xmlns="http://www.w3.org/2000/svg">
<path d="M31.6992 6.7998H33.8992V8.9998H31.6992V6.7998Z" fill="#0D61DB"/>
<path d="M11.3008 62.4V76C11.3008 76.6 11.8008 77.1 12.4008 77.1H18.1008V82.8C18.1008 83.4 18.6008 83.9 19.2008 83.9H26.0008C26.6008 83.9 27.1008 83.4 27.1008 82.8V77.1H51.0008V74.9H13.5008V63.6H51.2008V61.4H27.2008V56.8H51.3008V54.6H13.5008V43.1H51.2008V40.9H27.2008V36.3H51.3008V34.1H13.5008V22.7H71.4008V15.9H77.1008C77.7008 15.9 78.2008 15.4 78.2008 14.8V1.1C78.2008 0.5 77.7008 0 77.1008 0H12.4008C11.8008 0 11.3008 0.5 11.3008 1.1V14.7C11.3008 15.3 11.8008 15.8 12.4008 15.8H18.1008V20.4H12.4008C11.8008 20.4 11.3008 20.9 11.3008 21.5V35.1C11.3008 35.7 11.8008 36.2 12.4008 36.2H18.1008V40.8H12.4008C11.8008 40.8 11.3008 41.3 11.3008 41.9V55.5C11.3008 56.1 11.8008 56.6 12.4008 56.6H18.1008V61.2H12.4008C11.8008 61.3 11.3008 61.8 11.3008 62.4ZM13.5008 13.6V2.2H76.0008V13.6H13.5008ZM64.6008 15.9H69.2008V20.5H64.6008V15.9ZM27.2008 15.9H62.4008V20.5H27.2008V15.9ZM20.4008 15.9H25.0008V20.5H20.4008V15.9ZM20.4008 36.3H25.0008V40.9H20.4008V36.3ZM20.4008 56.7H25.0008V61.3H20.4008V56.7ZM20.4008 77.2H25.0008V81.8H20.4008V77.2Z" fill="#0D61DB"/>
<path d="M69.1996 6.7998H71.3996V8.9998H69.1996V6.7998ZM24.8996 6.7998H27.0996V8.9998H24.8996V6.7998ZM18.0996 6.7998H20.2996V8.9998H18.0996V6.7998ZM18.0996 68.0998H20.2996V70.2998H18.0996V68.0998ZM24.8996 47.6998H27.0996V49.8998H24.8996V47.6998ZM24.8996 27.2998H27.0996V29.4998H24.8996V27.2998ZM31.6996 27.2998H33.8996V29.4998H31.6996V27.2998ZM18.0996 27.2998H20.2996V29.4998H18.0996V27.2998ZM18.0996 47.6998H20.2996V49.8998H18.0996V47.6998ZM31.6996 68.0998H33.8996V70.2998H31.6996V68.0998ZM31.6996 47.6998H33.8996V49.8998H31.6996V47.6998ZM24.8996 68.0998H27.0996V70.2998H24.8996V68.0998ZM79.0996 49.7998H81.8996C82.4996 49.7998 82.9996 50.2998 82.9996 50.8998C82.9996 51.4998 82.5996 51.9998 81.8996 51.9998H79.0996C78.4996 51.9998 77.9996 51.4998 77.9996 50.8998C77.9996 50.2998 78.4996 49.7998 79.0996 49.7998ZM79.0996 72.3998H81.8996C82.4996 72.3998 82.9996 72.8998 82.9996 73.4998C82.9996 74.0998 82.4996 74.5998 81.8996 74.5998H79.0996C78.4996 74.5998 77.9996 74.0998 77.9996 73.4998C77.9996 72.8998 78.4996 72.3998 79.0996 72.3998ZM79.0996 66.6998H81.8996C82.4996 66.6998 82.9996 67.1998 82.9996 67.7998C82.9996 68.3998 82.5996 68.9998 81.8996 68.9998H79.0996C78.4996 68.9998 77.9996 68.4998 77.9996 67.8998C77.9996 67.2998 78.4996 66.6998 79.0996 66.6998ZM87.5996 63.2998H79.0996C78.4996 63.2998 77.9996 62.7998 77.9996 62.1998C77.9996 61.5998 78.4996 61.0998 79.0996 61.0998H87.5996C88.1996 61.0998 88.6996 61.5998 88.6996 62.1998C88.6996 62.7998 88.1996 63.2998 87.5996 63.2998ZM79.0996 55.3998H81.8996C82.4996 55.3998 82.9996 55.8998 82.9996 56.4998C82.9996 57.0998 82.4996 57.5998 81.8996 57.5998H79.0996C78.4996 57.5998 77.9996 57.0998 77.9996 56.4998C77.9996 55.8998 78.4996 55.3998 79.0996 55.3998ZM66.6996 62.1998V86.6998L66.4996 86.7998C64.8996 87.3998 63.8996 88.7998 63.8996 90.4998C63.8996 92.6998 65.6996 94.3998 67.7996 94.3998C69.9996 94.3998 71.6996 92.5998 71.6996 90.4998C71.6996 88.7998 70.5996 87.3998 69.0996 86.7998L68.8996 86.6998V62.1998C68.8996 61.5998 68.3996 61.0998 67.7996 61.0998C67.1996 61.0998 66.6996 61.5998 66.6996 62.1998ZM67.7996 88.6998C68.6996 88.6998 69.4996 89.4998 69.4996 90.3998C69.4996 91.2998 68.6996 92.0998 67.7996 92.0998C66.8996 92.0998 66.0996 91.2998 66.0996 90.3998C66.0996 89.4998 66.8996 88.6998 67.7996 88.6998Z" fill="#0D61DB"/>
<path d="M61.1008 39.5998V83.5998L61.0008 83.6998C59.2008 85.4998 58.3008 87.8998 58.3008 90.3998C58.3008 95.6998 62.6008 99.9998 67.9008 99.9998C73.2008 99.9998 77.5008 95.6998 77.5008 90.3998C77.5008 87.8998 76.5008 85.4998 74.8008 83.6998L74.7008 83.5998V39.5998C74.7008 35.8998 71.7008 32.7998 67.9008 32.7998C64.1008 32.8998 61.1008 35.8998 61.1008 39.5998ZM62.9008 84.9998C63.1008 84.7998 63.3008 84.4998 63.3008 84.1998V39.5998C63.3008 37.0998 65.3008 35.0998 67.8008 35.0998C70.3008 35.0998 72.3008 37.0998 72.3008 39.5998V84.0998C72.3008 84.3998 72.4008 84.6998 72.7008 84.8998C74.3008 86.2998 75.2008 88.2998 75.2008 90.2998C75.2008 94.3998 71.9008 97.5998 67.9008 97.5998C63.8008 97.5998 60.6008 94.2998 60.6008 90.2998C60.5008 88.2998 61.4008 86.3998 62.9008 84.9998ZM87.6008 80.1998H79.1008C78.5008 80.1998 78.0008 79.6998 78.0008 79.0998C78.0008 78.4998 78.5008 77.9998 79.1008 77.9998H87.6008C88.2008 77.9998 88.7008 78.4998 88.7008 79.0998C88.7008 79.6998 88.2008 80.1998 87.6008 80.1998ZM87.6008 46.3998H79.1008C78.5008 46.3998 78.0008 45.8998 78.0008 45.2998C78.0008 44.6998 78.5008 44.1998 79.1008 44.1998H87.6008C88.2008 44.1998 88.7008 44.6998 88.7008 45.2998C88.7008 45.8998 88.2008 46.3998 87.6008 46.3998Z" fill="#0D61DB"/>
</svg>
