<svg width="37" height="39" viewBox="0 0 37 39" fill="none" xmlns="http://www.w3.org/2000/svg">
<path d="M2.41895 10.9058L18.4902 20.2063L34.4522 10.9603" stroke="#0D61DB" stroke-width="2" stroke-linecap="round" stroke-linejoin="round"/>
<path d="M18.4902 36.6961V20.188" stroke="#0D61DB" stroke-width="2" stroke-linecap="round" stroke-linejoin="round"/>
<path d="M1 14.0545C1 11.5428 2.80186 8.48511 5.00415 7.26566L14.7233 1.85999C16.7982 0.713338 20.2018 0.713338 22.2766 1.85999L31.9958 7.26566C34.1981 8.48511 36 11.5428 36 14.0545V24.338C36 26.8497 34.1981 29.9074 31.9958 31.1269L22.2766 36.5325C20.2018 37.6791 16.7982 37.6791 14.7233 36.5325L5.00415 31.1269C2.80186 29.9074 1 26.8497 1 24.338V22.8455" stroke="#0D61DB" stroke-width="2" stroke-linecap="round" stroke-linejoin="round"/>
<path d="M27.5899 21.4621V14.8007L16.5419 8.41226L14.6309 7.32014L10.3174 4.82666" stroke="#0D61DB" stroke-width="2" stroke-linecap="round" stroke-linejoin="round"/>
</svg>
