<svg width="21" height="23" viewBox="0 0 21 23" fill="none" xmlns="http://www.w3.org/2000/svg">
<path d="M12.5513 22.5259H8.44872C2.87949 22.5259 0.5 20.1464 0.5 14.5772V8.42333C0.5 2.8541 2.87949 0.474609 8.44872 0.474609H12.5513C18.1205 0.474609 20.5 2.8541 20.5 8.42333V14.5772C20.5 20.1464 18.1205 22.5259 12.5513 22.5259ZM8.44872 2.01307C3.72051 2.01307 2.03846 3.69512 2.03846 8.42333V14.5772C2.03846 19.3054 3.72051 20.9874 8.44872 20.9874H12.5513C17.2795 20.9874 18.9615 19.3054 18.9615 14.5772V8.42333C18.9615 3.69512 17.2795 2.01307 12.5513 2.01307H8.44872Z" fill="#0D61DB"/>
<path d="M13.5768 10.3002H7.42293C6.15113 10.3002 5.11523 9.26431 5.11523 7.99251V6.96687C5.11523 5.69508 6.15113 4.65918 7.42293 4.65918H13.5768C14.8486 4.65918 15.8845 5.69508 15.8845 6.96687V7.99251C15.8845 9.26431 14.8486 10.3002 13.5768 10.3002ZM7.42293 6.19764C7.00241 6.19764 6.6537 6.54636 6.6537 6.96687V7.99251C6.6537 8.41303 7.00241 8.76174 7.42293 8.76174H13.5768C13.9973 8.76174 14.346 8.41303 14.346 7.99251V6.96687C14.346 6.54636 13.9973 6.19764 13.5768 6.19764H7.42293Z" fill="#0D61DB"/>
<path d="M6.55054 14.4955C6.41721 14.4955 6.28387 14.4648 6.1608 14.4135C6.03772 14.3622 5.9249 14.2904 5.83259 14.1981C5.63772 14.0032 5.53516 13.7468 5.53516 13.4699C5.53516 13.3366 5.55567 13.2032 5.60695 13.0802C5.65823 12.9468 5.73003 12.8443 5.83259 12.7417C5.87362 12.7007 5.9249 12.6494 5.98644 12.6186C6.03772 12.5776 6.09926 12.5468 6.1608 12.5263C6.22234 12.4955 6.29413 12.475 6.35567 12.4648C6.68387 12.393 7.04285 12.5058 7.27875 12.7417C7.37105 12.834 7.45311 12.9468 7.50439 13.0802C7.55567 13.2032 7.58644 13.3366 7.58644 13.4699C7.58644 13.7468 7.47362 14.0032 7.27875 14.1981C7.08387 14.393 6.82746 14.4955 6.55054 14.4955Z" fill="#0D61DB"/>
<path d="M10.6643 14.4946C10.3874 14.4946 10.131 14.3921 9.93611 14.1972C9.74124 14.0023 9.63867 13.7459 9.63867 13.469C9.63867 13.3357 9.65918 13.2023 9.71047 13.0793C9.76175 12.9459 9.83354 12.8434 9.93611 12.7408C9.97713 12.6998 10.0284 12.6485 10.09 12.6177C10.1412 12.5767 10.2028 12.5459 10.2643 12.5254C10.3259 12.4946 10.3976 12.4741 10.4592 12.4639C10.6541 12.4228 10.8592 12.4434 11.0541 12.5254C11.1771 12.5767 11.29 12.6485 11.3823 12.7408C11.4746 12.8434 11.5566 12.9459 11.6079 13.0793C11.6592 13.2023 11.69 13.3357 11.69 13.469C11.69 13.7459 11.5771 14.0023 11.3823 14.1972C11.1874 14.3921 10.931 14.4946 10.6643 14.4946Z" fill="#0D61DB"/>
<path d="M14.7556 14.4955C14.6223 14.4955 14.489 14.4647 14.3659 14.4134C14.2428 14.3622 14.13 14.2904 14.0377 14.1981C13.9351 14.0955 13.8633 13.9827 13.812 13.8596C13.7607 13.7365 13.7402 13.6032 13.7402 13.4699C13.7402 13.3365 13.7607 13.2032 13.812 13.0801C13.8633 12.9468 13.9351 12.8442 14.0377 12.7416C14.4172 12.3622 15.1043 12.3622 15.4838 12.7416C15.6787 12.9365 15.7915 13.2032 15.7915 13.4699C15.7915 13.7468 15.6787 14.0032 15.4838 14.1981C15.2992 14.3827 15.0428 14.4955 14.7556 14.4955Z" fill="#0D61DB"/>
<path d="M6.56324 18.5971C6.28632 18.5971 6.02991 18.4945 5.83504 18.2997C5.64016 18.1048 5.52734 17.8484 5.52734 17.5715C5.52734 17.3048 5.64016 17.0381 5.83504 16.8433C5.87606 16.8022 5.9376 16.751 5.98888 16.7202C6.04016 16.6792 6.1017 16.6484 6.16324 16.6279C6.22478 16.5971 6.29657 16.5766 6.35811 16.5663C6.69657 16.5048 7.04529 16.6074 7.28119 16.8433C7.33247 16.8945 7.3735 16.9458 7.41452 16.9971C7.44529 17.0587 7.47606 17.1202 7.50683 17.1817C7.52734 17.2433 7.54786 17.3048 7.56837 17.3663C7.57863 17.4381 7.58888 17.4997 7.58888 17.5715C7.58888 17.8484 7.47606 18.1048 7.28119 18.2997C7.08632 18.4945 6.82991 18.5971 6.56324 18.5971Z" fill="#0D61DB"/>
<path d="M10.6648 18.5971C10.3879 18.5971 10.1315 18.4945 9.9366 18.2997C9.74173 18.1048 9.62891 17.8484 9.62891 17.5715C9.62891 17.3048 9.74173 17.0381 9.9366 16.8433C10.1725 16.6074 10.5315 16.5048 10.8597 16.5663C10.9212 16.5766 10.993 16.5971 11.0545 16.6279C11.1161 16.6484 11.1776 16.6792 11.2289 16.7202C11.2802 16.751 11.3315 16.8022 11.3828 16.8433C11.5776 17.0381 11.6802 17.3048 11.6802 17.5715C11.6802 17.8484 11.5776 18.1048 11.3828 18.2997C11.1879 18.4945 10.9315 18.5971 10.6648 18.5971Z" fill="#0D61DB"/>
<path d="M14.7556 18.5983C14.489 18.5983 14.2325 18.4958 14.0377 18.3009C13.8428 18.106 13.7402 17.8496 13.7402 17.5727C13.7402 17.306 13.8428 17.0393 14.0377 16.8445C14.13 16.7522 14.2428 16.6804 14.3659 16.6291C14.7454 16.4752 15.2069 16.5573 15.4838 16.8445C15.6787 17.0393 15.7813 17.306 15.7813 17.5727C15.7813 17.8496 15.6787 18.106 15.4838 18.3009C15.3915 18.3932 15.2787 18.465 15.1556 18.5163C15.0325 18.5675 14.8992 18.5983 14.7556 18.5983Z" fill="#0D61DB"/>
</svg>
