<svg width="21" height="21" viewBox="0 0 21 21" fill="none" xmlns="http://www.w3.org/2000/svg">
<path d="M15.8233 21C14.7195 21 13.5572 20.7363 12.3558 20.2284C11.1837 19.7302 10.0019 19.0465 8.8493 18.2163C7.70651 17.3763 6.60279 16.4386 5.55767 15.413C4.52233 14.3679 3.58465 13.2642 2.75442 12.1312C1.91442 10.9591 1.24047 9.78698 0.76186 8.65395C0.253953 7.44279 0 6.2707 0 5.16698C0 4.40512 0.136744 3.68233 0.400465 3.00837C0.673953 2.31488 1.11349 1.67023 1.7093 1.11349C2.4614 0.371163 3.32093 0 4.23907 0C4.62 0 5.0107 0.087907 5.34279 0.244186C5.72372 0.42 6.04605 0.683721 6.28047 1.03535L8.54651 4.2293C8.75163 4.51256 8.90791 4.78605 9.01535 5.05953C9.14233 5.35256 9.2107 5.64558 9.2107 5.92884C9.2107 6.3 9.10326 6.6614 8.89814 7.00326C8.75163 7.26698 8.52698 7.55023 8.24372 7.83349L7.57954 8.52698C7.5893 8.55628 7.59907 8.57581 7.60884 8.59535C7.72605 8.80047 7.96046 9.15209 8.40977 9.67953C8.88837 10.2265 9.33768 10.7247 9.78698 11.1837C10.3633 11.7502 10.8419 12.1995 11.2912 12.5707C11.8479 13.0395 12.2093 13.274 12.4242 13.3814L12.4047 13.4302L13.1177 12.727C13.4205 12.4242 13.7135 12.1995 13.9967 12.053C14.534 11.7209 15.2177 11.6623 15.9014 11.9456C16.1553 12.053 16.4288 12.1995 16.7219 12.4047L19.9647 14.7098C20.326 14.954 20.5898 15.2665 20.746 15.6377C20.8926 16.0088 20.9609 16.3507 20.9609 16.6926C20.9609 17.1614 20.8535 17.6302 20.6484 18.0698C20.4433 18.5093 20.1893 18.8902 19.867 19.2419C19.3102 19.8572 18.7047 20.2967 18.0014 20.58C17.3274 20.8535 16.5949 21 15.8233 21ZM4.23907 1.46512C3.70186 1.46512 3.20372 1.69953 2.72512 2.16837C2.27581 2.58837 1.96326 3.04744 1.76791 3.54558C1.56279 4.05349 1.46512 4.5907 1.46512 5.16698C1.46512 6.07535 1.68 7.06186 2.10977 8.07767C2.5493 9.11302 3.16465 10.1874 3.94605 11.2619C4.72744 12.3363 5.61628 13.3814 6.59302 14.3679C7.56977 15.3349 8.62465 16.2335 9.70884 17.0247C10.7637 17.7963 11.8479 18.4214 12.9223 18.8707C14.5926 19.5837 16.1553 19.7498 17.4447 19.2126C17.9428 19.0074 18.3823 18.6949 18.7828 18.2456C19.0074 18.0014 19.1833 17.7377 19.3298 17.4251C19.447 17.1809 19.5056 16.927 19.5056 16.673C19.5056 16.5167 19.4763 16.3605 19.3981 16.1847C19.3688 16.126 19.3102 16.0186 19.1247 15.8916L15.8819 13.5865C15.6865 13.4498 15.5107 13.3521 15.3447 13.2837C15.1298 13.1958 15.0419 13.1079 14.7098 13.313C14.5144 13.4107 14.3386 13.5572 14.1433 13.7526L13.4009 14.4851C13.02 14.8563 12.434 14.9442 11.9847 14.7781L11.7209 14.6609C11.3205 14.446 10.8516 14.114 10.334 13.6744C9.86512 13.274 9.35721 12.8051 8.74186 12.1995C8.26326 11.7112 7.78465 11.1935 7.28651 10.6172C6.82744 10.08 6.49535 9.62093 6.29023 9.24L6.17302 8.94698C6.11442 8.72233 6.09488 8.59535 6.09488 8.4586C6.09488 8.10698 6.22186 7.79442 6.46605 7.55023L7.19861 6.78837C7.39395 6.59302 7.54047 6.40744 7.63814 6.24139C7.71628 6.11442 7.74558 6.00698 7.74558 5.9093C7.74558 5.83116 7.71628 5.71395 7.66744 5.59674C7.59907 5.44046 7.49163 5.26465 7.35488 5.07907L5.08884 1.87535C4.99116 1.7386 4.87395 1.64093 4.72744 1.57256C4.57116 1.50419 4.40512 1.46512 4.23907 1.46512ZM12.4047 13.44L12.2484 14.1042L12.5121 13.4205C12.4633 13.4107 12.4242 13.4205 12.4047 13.44Z" fill="#070707"/>
</svg>
