<svg width="18" height="18" viewBox="0 0 18 18" fill="none" xmlns="http://www.w3.org/2000/svg">
<path d="M9 18C4.03535 18 0 13.9647 0 9C0 4.03535 4.03535 0 9 0C13.9647 0 18 4.03535 18 9C18 13.9647 13.9647 18 9 18ZM9 1.25581C4.73023 1.25581 1.25581 4.73023 1.25581 9C1.25581 13.2698 4.73023 16.7442 9 16.7442C13.2698 16.7442 16.7442 13.2698 16.7442 9C16.7442 4.73023 13.2698 1.25581 9 1.25581Z" fill="#0D61DB"/>
<path d="M12.1057 12.29C11.9968 12.29 11.888 12.2649 11.7875 12.1979L9.19217 10.6491C8.54752 10.2639 8.07031 9.41837 8.07031 8.67325V5.2407C8.07031 4.89744 8.35496 4.61279 8.69822 4.61279C9.04148 4.61279 9.32613 4.89744 9.32613 5.2407V8.67325C9.32613 8.97464 9.57729 9.41837 9.83682 9.56906L12.4322 11.1179C12.7336 11.2937 12.8257 11.6788 12.6498 11.9802C12.5243 12.1812 12.315 12.29 12.1057 12.29Z" fill="#0D61DB"/>
</svg>
