<svg width="16" height="18" viewBox="0 0 16 18" fill="none" xmlns="http://www.w3.org/2000/svg">
<path fill-rule="evenodd" clip-rule="evenodd" d="M15 -4.37114e-08C15.5523 -1.95703e-08 16 0.447715 16 1L16 16.75C16 17.3023 15.5523 17.75 15 17.75C14.4477 17.75 14 17.3023 14 16.75L14 1C14 0.447715 14.4477 -6.78525e-08 15 -4.37114e-08Z" fill="#0D61DB"/>
<path fill-rule="evenodd" clip-rule="evenodd" d="M8 5.25C8.55228 5.25 9 5.69772 9 6.25L9 16.75C9 17.3023 8.55229 17.75 8 17.75C7.44772 17.75 7 17.3023 7 16.75L7 6.25C7 5.69772 7.44772 5.25 8 5.25Z" fill="#0D61DB"/>
<path fill-rule="evenodd" clip-rule="evenodd" d="M1 -4.37114e-08C1.55228 -1.95703e-08 2 0.447715 2 1L2 16.75C2 17.3023 1.55228 17.75 0.999999 17.75C0.447715 17.75 -7.56308e-07 17.3023 -7.32167e-07 16.75L-4.37114e-08 1C-1.95703e-08 0.447715 0.447715 -6.78525e-08 1 -4.37114e-08Z" fill="#0D61DB"/>
</svg>
