<svg width="20" height="17" viewBox="0 0 20 17" fill="none" xmlns="http://www.w3.org/2000/svg">
<path fill-rule="evenodd" clip-rule="evenodd" d="M0.714841 5.50189C2.90186 2.06401 6.0988 0 9.60001 0C13.1013 0 16.2984 2.06417 18.4854 5.50228C18.9753 6.27021 19.2 7.25889 19.2 8.21115C19.2 9.16357 18.9752 10.1524 18.4852 10.9204C16.2981 14.3583 13.1012 16.4223 9.60001 16.4223C6.09867 16.4223 2.90161 14.3581 0.714593 10.92C0.224711 10.1521 0 9.16341 0 8.21115C0 7.25873 0.224788 6.26987 0.714841 5.50189ZM9.60001 1.2C6.6077 1.2 3.75264 2.96209 1.7271 6.14635L1.7266 6.14713C1.38903 6.676 1.2 7.42536 1.2 8.21115C1.2 8.99695 1.38903 9.74629 1.7266 10.2751L1.7271 10.2759C3.75264 13.4602 6.6077 15.2223 9.60001 15.2223C12.5923 15.2223 15.4474 13.4602 17.4729 10.2759L17.4734 10.2751C17.811 9.74629 18 8.99695 18 8.21115C18 7.42536 17.811 6.676 17.4734 6.14713L17.4729 6.14635C15.4474 2.96209 12.5923 1.2 9.60001 1.2ZM9.60003 5.52313C8.11024 5.52313 6.90727 6.7261 6.90727 8.21588C6.90727 9.70567 8.11025 10.9087 9.60003 10.9087C11.0898 10.9087 12.2928 9.70566 12.2928 8.21588C12.2928 6.72611 11.0898 5.52313 9.60003 5.52313ZM5.70727 8.21588C5.70727 6.06336 7.4475 4.32313 9.60003 4.32313C11.7525 4.32313 13.4928 6.06335 13.4928 8.21588C13.4928 10.3684 11.7525 12.1087 9.60003 12.1087C7.44749 12.1087 5.70727 10.3684 5.70727 8.21588Z" fill="#0D61DB"/>
</svg>
