<svg width="19" height="18" viewBox="0 0 19 18" fill="none" xmlns="http://www.w3.org/2000/svg">
<path fill-rule="evenodd" clip-rule="evenodd" d="M7.90665 2.5772C7.43025 2.1008 6.59739 1.62186 5.06078 2.00611C3.51888 2.39169 2.38139 3.5405 2.00357 4.95697C1.63275 6.34716 1.96827 8.11238 3.62878 9.77262L8.84293 14.9859C9.20748 15.3504 9.79609 15.3503 10.1606 14.9856C11.3315 13.8139 13.1921 11.9524 15.3719 9.77267C17.0315 8.11299 17.3672 6.34772 16.9965 4.95727C16.6188 3.54065 15.4815 2.39168 13.9393 2.00613C12.4022 1.62183 11.5692 2.10086 11.0928 2.5772C10.8323 2.83776 10.6529 3.12664 10.5386 3.35533C10.4822 3.46811 10.4439 3.56165 10.4209 3.6229C10.4095 3.65338 10.402 3.6754 10.3982 3.68728L10.3952 3.69669C10.2786 4.09372 9.91419 4.36689 9.49986 4.36691C9.08553 4.36694 8.7211 4.09382 8.60448 3.69681L8.60147 3.68738C8.59758 3.6755 8.59011 3.65347 8.57868 3.62299C8.5557 3.56173 8.51739 3.46818 8.46099 3.3554C8.34661 3.12669 8.16723 2.83778 7.90665 2.5772ZM9.49975 1.55631C9.58354 1.45628 9.67451 1.35613 9.77315 1.25749C10.6966 0.334075 12.1965 -0.353361 14.392 0.195513C16.5824 0.743127 18.2445 2.39367 18.7998 4.47644C19.3621 6.58538 18.7646 9.01937 16.6916 11.0924C14.512 13.2719 12.6516 15.1333 11.4807 16.3049C10.3876 17.3987 8.617 17.3993 7.52333 16.3057L2.30918 11.0924C0.235375 9.01895 -0.36226 6.5849 0.200275 4.47596C0.755801 2.3933 2.41818 0.743122 4.60801 0.195525C6.80313 -0.353393 8.30297 0.334128 9.22635 1.25749C9.32499 1.35613 9.41596 1.45628 9.49975 1.55631Z" fill="#0D61DB"/>
</svg>
