<svg width="40" height="40" fill="none" xmlns="http://www.w3.org/2000/svg" id="icon"><g clip-path="url(#a)"><path d="M20.125 0C10 0 2 7.737 2 17.5A16.506 16.506 0 0 0 7.437 30c.257.244 10.625 9.231 10.875 9.481 1.038.75 2.594.75 3.37 0 .256-.25 10.874-9.237 10.874-9.481a16.504 16.504 0 0 0 5.438-12.5C38.25 7.738 30.225 0 20.125 0Zm0 22.462a5.094 5.094 0 0 1-5.175-5 5.18 5.18 0 0 1 10.356 0 5.1 5.1 0 0 1-5.181 5Z" fill="#212121"/></g><defs><clipPath id="a"><path fill="#fff" d="M0 0h40v40H0z"/></clipPath></defs></svg>