<svg width="32" height="32" viewBox="0 0 32 32" fill="none" xmlns="http://www.w3.org/2000/svg">
<path d="M10.786 15.5073H4.53268C4.63935 9.28061 5.86602 8.25395 9.69268 5.98728C10.1327 5.72061 10.2793 5.16061 10.0127 4.70728C9.75935 4.26728 9.18602 4.12061 8.74602 4.38728C4.23935 7.05395 2.66602 8.68061 2.66602 16.4273V23.6139C2.66602 25.8939 4.51935 27.7339 6.78602 27.7339H10.786C13.1327 27.7339 14.906 25.9606 14.906 23.6139V19.6139C14.906 17.2806 13.1327 15.5073 10.786 15.5073Z" fill="#0D61DB"/>
<path d="M25.2134 15.5073H18.9601C19.0667 9.28061 20.2934 8.25395 24.1201 5.98728C24.5601 5.72061 24.7067 5.16061 24.4401 4.70728C24.1734 4.26728 23.6134 4.12061 23.1601 4.38728C18.6534 7.05395 17.0801 8.68061 17.0801 16.4406V23.6273C17.0801 25.9073 18.9334 27.7473 21.2001 27.7473H25.2001C27.5467 27.7473 29.3201 25.9739 29.3201 23.6273V19.6273C29.3334 17.2806 27.5601 15.5073 25.2134 15.5073Z" fill="#0D61DB"/>
</svg>
