<svg width="19" height="18" viewBox="0 0 19 18" fill="none" xmlns="http://www.w3.org/2000/svg">
<path d="M9.08464 17.1251C4.3763 17.1251 0.542969 13.2917 0.542969 8.58342C0.542969 3.87508 4.3763 0.041748 9.08464 0.041748C13.793 0.041748 17.6263 3.87508 17.6263 8.58342C17.6263 13.2917 13.793 17.1251 9.08464 17.1251ZM9.08464 1.29175C5.05964 1.29175 1.79297 4.56675 1.79297 8.58342C1.79297 12.6001 5.05964 15.8751 9.08464 15.8751C13.1096 15.8751 16.3763 12.6001 16.3763 8.58342C16.3763 4.56675 13.1096 1.29175 9.08464 1.29175Z" fill="#FCFCFD"/>
<path d="M17.8345 17.9583C17.6762 17.9583 17.5178 17.9 17.3928 17.775L15.7262 16.1083C15.4845 15.8666 15.4845 15.4666 15.7262 15.225C15.9678 14.9833 16.3678 14.9833 16.6095 15.225L18.2762 16.8916C18.5178 17.1333 18.5178 17.5333 18.2762 17.775C18.1512 17.9 17.9928 17.9583 17.8345 17.9583Z" fill="#FCFCFD"/>
</svg>
