<svg width="22" height="22" viewBox="0 0 22 22" fill="none" xmlns="http://www.w3.org/2000/svg">
<path fill-rule="evenodd" clip-rule="evenodd" d="M15.2869 4.56468C15.5548 4.1792 16.0845 4.08389 16.4699 4.3518C18.6755 5.88463 20.1991 8.32328 20.5081 11.1378C20.5594 11.6045 20.2226 12.0243 19.756 12.0755C19.2894 12.1268 18.8695 11.79 18.8183 11.3234C18.5645 9.01243 17.3143 7.00889 15.4997 5.74777C15.1143 5.47985 15.0189 4.95017 15.2869 4.56468Z" fill="#0D61DB"/>
<path fill-rule="evenodd" clip-rule="evenodd" d="M6.76178 4.60983C7.03281 4.99313 6.94179 5.52357 6.55848 5.79459C4.76204 7.06481 3.53071 9.06784 3.29526 11.368C3.24745 11.835 2.83012 12.1748 2.36312 12.127C1.89612 12.0792 1.55629 11.6619 1.60409 11.1949C1.89126 8.38952 3.39358 5.95037 5.57702 4.40652C5.96032 4.1355 6.49076 4.22652 6.76178 4.60983Z" fill="#0D61DB"/>
<path fill-rule="evenodd" clip-rule="evenodd" d="M6.41481 19.5093C6.62764 19.0908 7.13937 18.9242 7.55779 19.137C8.60537 19.6698 9.80009 19.9692 11.0619 19.9692C12.2797 19.9692 13.4188 19.6971 14.4386 19.2007C14.8607 18.9952 15.3694 19.1709 15.5749 19.593C15.7803 20.0151 15.6047 20.5238 15.1826 20.7292C13.9311 21.3384 12.5375 21.6692 11.0619 21.6692C9.5297 21.6692 8.07117 21.3054 6.7871 20.6522C6.36867 20.4394 6.20199 19.9277 6.41481 19.5093Z" fill="#0D61DB"/>
<path fill-rule="evenodd" clip-rule="evenodd" d="M7.41602 3.79386C7.41602 1.78136 9.04749 0.149902 11.0599 0.149902C13.0725 0.149902 14.7039 1.78137 14.7039 3.79386C14.7039 5.80636 13.0725 7.43782 11.0599 7.43782C9.04749 7.43782 7.41602 5.80637 7.41602 3.79386ZM11.0599 1.8499C9.98638 1.8499 9.11602 2.72024 9.11602 3.79386C9.11602 4.86749 9.98638 5.73782 11.0599 5.73782C12.1336 5.73782 13.0039 4.86749 13.0039 3.79386C13.0039 2.72023 12.1336 1.8499 11.0599 1.8499Z" fill="#0D61DB"/>
<path fill-rule="evenodd" clip-rule="evenodd" d="M0.150391 16.0751C0.150391 14.0625 1.78186 12.4312 3.79435 12.4312C5.80684 12.4312 7.43831 14.0625 7.43831 16.0751C7.43831 18.0876 5.80686 19.7191 3.79435 19.7191C1.78184 19.7191 0.150391 18.0875 0.150391 16.0751ZM3.79435 14.1312C2.72072 14.1312 1.85039 15.0015 1.85039 16.0751C1.85039 17.1487 2.72074 18.0191 3.79435 18.0191C4.86795 18.0191 5.73831 17.1487 5.73831 16.0751C5.73831 15.0015 4.86797 14.1312 3.79435 14.1312Z" fill="#0D61DB"/>
<path fill-rule="evenodd" clip-rule="evenodd" d="M14.5605 16.0751C14.5605 14.0625 16.1921 12.4312 18.2045 12.4312C20.2171 12.4312 21.8485 14.0626 21.8485 16.0751C21.8485 18.0875 20.2171 19.7191 18.2045 19.7191C16.1921 19.7191 14.5605 18.0876 14.5605 16.0751ZM18.2045 14.1312C17.1309 14.1312 16.2605 15.0015 16.2605 16.0751C16.2605 17.1487 17.1309 18.0191 18.2045 18.0191C19.2782 18.0191 20.1485 17.1487 20.1485 16.0751C20.1485 15.0014 19.2782 14.1312 18.2045 14.1312Z" fill="#0D61DB"/>
</svg>
