<svg width="15" height="14" viewBox="0 0 15 14" fill="none" xmlns="http://www.w3.org/2000/svg">
<path d="M6.60929 0.745358C6.98043 0.0181071 8.01958 0.0181088 8.39072 0.74536L9.81681 3.53979C9.96211 3.82451 10.2348 4.02261 10.5505 4.07281L13.6488 4.56558C14.4551 4.69382 14.7763 5.68211 14.1993 6.25982L11.9823 8.47964C11.7564 8.70581 11.6523 9.02634 11.7021 9.34209L12.1909 12.4411C12.3181 13.2476 11.4774 13.8584 10.7497 13.4882L7.95342 12.0657C7.66851 11.9207 7.33149 11.9207 7.04658 12.0657L4.25032 13.4882C3.5226 13.8584 2.68191 13.2476 2.80912 12.4411L3.29791 9.34209C3.34771 9.02634 3.24357 8.70581 3.01768 8.47964L0.800708 6.25982C0.22374 5.68211 0.544856 4.69382 1.3512 4.56558L4.44955 4.07281C4.76523 4.02261 5.03789 3.82451 5.18319 3.53979L6.60929 0.745358Z" fill="#0D61DB"/>
</svg>
