<svg width="35" height="35" viewBox="0 0 35 35" fill="none" xmlns="http://www.w3.org/2000/svg">
<path d="M19.1279 21.9767H1.22093C0.553488 21.9767 0 21.4233 0 20.7558V7.73256C0 3.46744 3.46744 0 7.73256 0H22.3837C23.0512 0 23.6047 0.553488 23.6047 1.22093V17.5C23.6047 19.9744 21.6023 21.9767 19.1279 21.9767ZM2.44186 19.5349H19.1279C20.2512 19.5349 21.1628 18.6233 21.1628 17.5V2.44186H7.73256C4.8186 2.44186 2.44186 4.8186 2.44186 7.73256V19.5349Z" fill="#0D61DB"/>
<path d="M28.8953 31.7443H27.2674C26.6 31.7443 26.0465 31.1908 26.0465 30.5233C26.0465 29.4001 25.1349 28.4884 24.0116 28.4884C22.8884 28.4884 21.9767 29.4001 21.9767 30.5233C21.9767 31.1908 21.4233 31.7443 20.7558 31.7443H14.2442C13.5767 31.7443 13.0233 31.1908 13.0233 30.5233C13.0233 29.4001 12.1116 28.4884 10.9884 28.4884C9.86512 28.4884 8.95349 29.4001 8.95349 30.5233C8.95349 31.1908 8.4 31.7443 7.73256 31.7443H6.10465C2.73488 31.7443 0 29.0094 0 25.6396V20.7559C0 20.0884 0.553488 19.535 1.22093 19.535H19.1279C20.2512 19.535 21.1628 18.6233 21.1628 17.5001V6.10472C21.1628 5.43728 21.7163 4.88379 22.3837 4.88379H25.3791C26.9907 4.88379 28.4721 5.7466 29.2698 7.1466L32.0535 12.014C32.2651 12.3884 32.2651 12.8605 32.0535 13.235C31.8419 13.6094 31.4349 13.8373 30.9953 13.8373H28.8953C28.6674 13.8373 28.4884 14.0163 28.4884 14.2443V19.128C28.4884 19.3559 28.6674 19.535 28.8953 19.535H33.7791C34.4465 19.535 35 20.0884 35 20.7559V25.6396C35 29.0094 32.2651 31.7443 28.8953 31.7443ZM28.3256 29.3024H28.8953C30.914 29.3024 32.5581 27.6582 32.5581 25.6396V21.9768H28.8953C27.3326 21.9768 26.0465 20.6908 26.0465 19.128V14.2443C26.0465 12.6815 27.3163 11.3954 28.8953 11.3954L27.1535 8.35123C26.7953 7.71635 26.1116 7.32565 25.3791 7.32565H23.6047V17.5001C23.6047 19.9745 21.6023 21.9768 19.1279 21.9768H2.44186V25.6396C2.44186 27.6582 4.08605 29.3024 6.10465 29.3024H6.67443C7.21164 27.4303 8.93721 26.0466 10.9884 26.0466C13.0395 26.0466 14.7651 27.4303 15.3023 29.3024H19.714C20.2512 27.4303 21.9767 26.0466 24.0279 26.0466C26.0791 26.0466 27.7884 27.4303 28.3256 29.3024Z" fill="#0D61DB"/>
<path d="M10.9885 34.9999C8.51404 34.9999 6.51172 32.9975 6.51172 30.5231C6.51172 28.0487 8.51404 26.0464 10.9885 26.0464C13.4629 26.0464 15.4652 28.0487 15.4652 30.5231C15.4652 32.9975 13.4629 34.9999 10.9885 34.9999ZM10.9885 28.4882C9.86521 28.4882 8.95358 29.3999 8.95358 30.5231C8.95358 31.6464 9.86521 32.558 10.9885 32.558C12.1117 32.558 13.0233 31.6464 13.0233 30.5231C13.0233 29.3999 12.1117 28.4882 10.9885 28.4882Z" fill="#0D61DB"/>
<path d="M24.0119 34.9999C21.5375 34.9999 19.5352 32.9975 19.5352 30.5231C19.5352 28.0487 21.5375 26.0464 24.0119 26.0464C26.4863 26.0464 28.4886 28.0487 28.4886 30.5231C28.4886 32.9975 26.4863 34.9999 24.0119 34.9999ZM24.0119 28.4882C22.8886 28.4882 21.977 29.3999 21.977 30.5231C21.977 31.6464 22.8886 32.558 24.0119 32.558C25.1352 32.558 26.0468 31.6464 26.0468 30.5231C26.0468 29.3999 25.1352 28.4882 24.0119 28.4882Z" fill="#0D61DB"/>
<path d="M33.7785 21.9769H28.8947C27.3319 21.9769 26.0459 20.6909 26.0459 19.1281V14.2443C26.0459 12.6816 27.3319 11.3955 28.8947 11.3955H30.9947C31.4343 11.3955 31.8412 11.6234 32.0529 12.0141L34.8366 16.8978C34.9343 17.0769 34.9994 17.2885 34.9994 17.5002V20.756C34.9994 21.4234 34.4459 21.9769 33.7785 21.9769ZM28.8947 13.8374C28.6668 13.8374 28.4878 14.0164 28.4878 14.2443V19.1281C28.4878 19.356 28.6668 19.535 28.8947 19.535H32.5575V17.8257L30.2785 13.8374H28.8947Z" fill="#0D61DB"/>
</svg>
